<mxfile host="app.diagrams.net" agent="Mozilla/5.0 (Windows NT 10.0; Win64; x64) AppleWebKit/537.36 (KHTML, like Gecko) Chrome/131.0.0.0 Safari/537.36 Edg/131.0.0.0" version="26.0.2">
  <diagram name="第 1 页" id="WtMTUddreCy5hKZcmtQl">
    <mxGraphModel dx="983" dy="1684" grid="1" gridSize="10" guides="1" tooltips="1" connect="1" arrows="1" fold="1" page="1" pageScale="1" pageWidth="827" pageHeight="1169" math="0" shadow="0">
      <root>
        <mxCell id="0" />
        <mxCell id="1" parent="0" />
        <mxCell id="PnWIzYzLt3JOAJieJ4XY-7" value="" style="edgeStyle=orthogonalEdgeStyle;rounded=0;orthogonalLoop=1;jettySize=auto;html=1;" edge="1" parent="1" source="PnWIzYzLt3JOAJieJ4XY-3" target="PnWIzYzLt3JOAJieJ4XY-6">
          <mxGeometry relative="1" as="geometry" />
        </mxCell>
        <mxCell id="PnWIzYzLt3JOAJieJ4XY-20" value="&lt;span style=&quot;font-size: 12px; text-wrap-mode: wrap; background-color: rgb(251, 251, 251);&quot;&gt;wsgi通知救援&lt;/span&gt;" style="edgeLabel;html=1;align=center;verticalAlign=middle;resizable=0;points=[];" vertex="1" connectable="0" parent="PnWIzYzLt3JOAJieJ4XY-7">
          <mxGeometry x="-0.3" y="-2" relative="1" as="geometry">
            <mxPoint as="offset" />
          </mxGeometry>
        </mxCell>
        <mxCell id="PnWIzYzLt3JOAJieJ4XY-3" value="实例开始进行RESCUE" style="rounded=1;whiteSpace=wrap;html=1;" vertex="1" parent="1">
          <mxGeometry x="294" y="-460" width="120" height="60" as="geometry" />
        </mxCell>
        <mxCell id="PnWIzYzLt3JOAJieJ4XY-6" value="获取元数据" style="rounded=1;whiteSpace=wrap;html=1;" vertex="1" parent="1">
          <mxGeometry x="294" y="-320" width="120" height="60" as="geometry" />
        </mxCell>
        <mxCell id="PnWIzYzLt3JOAJieJ4XY-8" value="参数解析并判断API版本（2.87）" style="text;html=1;align=center;verticalAlign=middle;whiteSpace=wrap;rounded=0;" vertex="1" parent="1">
          <mxGeometry x="430" y="-305" width="250" height="30" as="geometry" />
        </mxCell>
        <mxCell id="PnWIzYzLt3JOAJieJ4XY-24" value="" style="edgeStyle=orthogonalEdgeStyle;rounded=0;orthogonalLoop=1;jettySize=auto;html=1;" edge="1" parent="1" source="PnWIzYzLt3JOAJieJ4XY-9" target="PnWIzYzLt3JOAJieJ4XY-23">
          <mxGeometry relative="1" as="geometry" />
        </mxCell>
        <mxCell id="PnWIzYzLt3JOAJieJ4XY-9" value="获取元数据（密码，网络信息，image信息，dbms信息）" style="rounded=1;whiteSpace=wrap;html=1;" vertex="1" parent="1">
          <mxGeometry x="294" y="-180" width="120" height="60" as="geometry" />
        </mxCell>
        <mxCell id="PnWIzYzLt3JOAJieJ4XY-11" value="" style="endArrow=none;dashed=1;html=1;rounded=0;" edge="1" parent="1">
          <mxGeometry width="50" height="50" relative="1" as="geometry">
            <mxPoint x="120" y="-360" as="sourcePoint" />
            <mxPoint x="610" y="-360" as="targetPoint" />
          </mxGeometry>
        </mxCell>
        <mxCell id="PnWIzYzLt3JOAJieJ4XY-13" value="用户" style="text;strokeColor=none;fillColor=none;html=1;fontSize=24;fontStyle=1;verticalAlign=middle;align=center;" vertex="1" parent="1">
          <mxGeometry x="80" y="-450" width="100" height="40" as="geometry" />
        </mxCell>
        <mxCell id="PnWIzYzLt3JOAJieJ4XY-14" value="nova-api" style="text;strokeColor=none;fillColor=none;html=1;fontSize=24;fontStyle=1;verticalAlign=middle;align=center;" vertex="1" parent="1">
          <mxGeometry x="80" y="-310" width="100" height="40" as="geometry" />
        </mxCell>
        <mxCell id="PnWIzYzLt3JOAJieJ4XY-15" value="nova-compute" style="text;strokeColor=none;fillColor=none;html=1;fontSize=24;fontStyle=1;verticalAlign=middle;align=center;" vertex="1" parent="1">
          <mxGeometry x="80" y="-180" width="100" height="40" as="geometry" />
        </mxCell>
        <mxCell id="PnWIzYzLt3JOAJieJ4XY-16" value="" style="shape=image;verticalLabelPosition=bottom;labelBackgroundColor=default;verticalAlign=top;aspect=fixed;imageAspect=0;image=data:image/png,iVBORw0KGgoAAAANSUhEUgAAAxMAAAD0CAYAAADg83v3AAAAAXNSR0IArs4c6QAAAARnQU1BAACxjwv8YQUAAAAJcEhZcwAADsMAAA7DAcdvqGQAALCjSURBVHhe7N13fBRl/sDxz8y2ZNMbvYbeO4L0KlUBQVRAUQ8VQT3PhoeeP0+9s9x5drFjB6mCoPRO6D0k9F5CetnNZsvM74/ZJNsCKZSIz/v12pey8+zkmeeZ8nzneZ4ZyWU9o3IV2Van0jZJz1/6VuGZZg7fxT6sbPoun4dyZN8FAKSGG0meEEocWhZPLkhl0Hm9bzIAlEgTm8aFFKUFkPZn8MAG2KxKXmkBjtQ14xpmKvq3MyGDrrskcr1SQcdoGVO6i2b9qnpsT9nyXTbZfPW+i7d0/nkuVFi28v4MGq+X6Ns6nI976JBTMnhhDmS2ifD69xv1QnANMyHbs/n8axdvO0tat8RrY2MYHesC4NJvafQ8rvNNBEBNs44HO5kZ17K4PqSD6TywVgpY3njkuzyu5X5VqLA8S/c3brR9bH9/KJcif6DD/b2opmrbIinn2PdVF87lS8BDRN79T7rEuYACTi98lINnVvmuCGgJ8e/SfWhjQt3f5K17no37zB6/L6T93Qv1VnP77Y2KvlWSfmTN6udxKIHr3tT/An0qfZkKgiAIglBWgVtb142Z7uPCWN5OZaxBJcx3sY/4viH81EBisKG4EVjbqGNyBzM77vEOJADUVtHMHKPjjSiVDpK2TJElRtQ2ktgryCutvmsY85tAH3e6WKOOZ3uG8mNfF9W8UlLmfFcWijGCSYP1/C1SLdqmmmYdL3cJJaGtf+BT7VYDT8oqigxdTHiVwzmri1fX5fLvfcWNR7V5jF953xh/zPq5GlS5Jo2bP+r7NWCizogZtOn4OmZjN/d3LZFDniWi10/09QgkykNudi997lpI1dj70ck3su4FQRAEQbiepKvdMyHcLKxs/iafcXYjs+4O55Ywjx4fxcnF1Zn0OqT36+ERBEEQBEEQ/jxucM+EUFnJKTaW5Gq9DpY8FwVK4RIXzvQCDlzUhj89EhF42JkgCIIgCIJw8xM9E9dQ4ZyFeVLgceS+KtNYfUnJ5efPHLzkKjnvulA9c+4Np7nHsLMru/KcEE+F80EEQRAEQRCEykf0TAgBqXIYY+8JKpqj4jnvoE2ojqc6mEmYUNZAQhAEQRAEQbiZiJ4JQRAEQRAEQRDKRfRMCIIgCIIgCIJQLiKYEARBEARBEAShXEQwIQiCIAiCIAhCuYhgQhAEQRAEQRCEchHBhCAIgiAIgiAI5SKCCUEQBEEQBEEQykUEE4IgCIIgCIIglIsIJgRBEARBEARBKJdr+NK6NLYuvI81lqbUuOU/3NdQxC1lE8Rn7cJ53Cx5fKfwe0IafZRrVGVCqR18P4Z2s/Ve33WdbmXtkFyv7wRBEARBEG5m16yFL6ftYF/OflDmcvzUMd/FARWcWcfPvzzBf3+ozRvf1eGN7+rw+oL1nJM8G9SlIyct5NHXZ/LWEYPvomvoAN+8+jUPfLqdM+XIc0XZEpbTas4S4hcnc/YG/P0/vkzWLlxMqzlLeGxbnu9CQRAEQRAEwcc1CyaU2I60Dm8F8mji6zbwXexHPreIL9eN53jOQhyKaAgXck6wU7Apxf1JLXWvRLBaunRCYCbp8odG8yfSi+rF8YHVd7EgCIIgCMKfwuVbTBUSyy0jljJt3DulGuJ08OCr5KgDCW2RwNS7zzBtwmmmTTjN9JE9qSkaxqViDjUD4NJdubyFQKKoblYAUGVRhoIgCIIgCFdSSVpMaaTkXEQ1DKNnh1qEGkTwUC7uDp3zwWHE+C4TSsXk/m/DkDCfJYIgCIIgCIKvqz4BWz70Nf/a9rLXd1VuvcCDDRxe33lLY928dmyUf2DiqF5XpSdCTlrIw/OziL9rElP1q/huyQl2Z6soeh3VWnZhyuDGVJW9/46SfoAFiw+w7oINuwKK0Ui15p2Yeltjquh98+Qid89aPt1yltNpKnYJFKOOoAIXuXEt+OejnamtqshHfuep2Re50KQrM8c0weizFnvCLJ5YbSN84Bje6hTisUSbgD35EQeuRzM9vi+ZfGAjLZKySY5tj6NPdd/FAJxc/gvDs2vw/V2daXZ0D18fOMfXdpUcOZhHa7fl0c7RXnmUXBbO7NzLzHMZzHZKgI5ukXV5pnMLGkZod/E9yWlnWbnnGN9k57FLgWCdgUExjZjcvgHVw/zTS44skjbt48vMHH4vcf2ZrF24kQd1jdg+vKlXoFS4zY+0GsHUpp77mIJ1324+PJHCfLuKBWgdUpVnOnWiXZxvXRbTykcfYH0lk3eFYXjcfMUJ2OdW/cibCXaC+93Bm12jfBcLgiAIgiD84dywngk57Xc+/7ZwonV7EqwSurzxfFf0nfb56ljFJlBbNvzMtB+Osztba0DKTheX9mzihWVnvdK5khby7Cc7WHFOCyQAZLudS3s2Mf39ZSTYPYvKQtLC73h2yRmOpmuBhJbeVfT/hZRGLekX7iL88AnWOn2LO5VNuy2ocjWGtKv4nXClZXf2jxlaYiDhKWXbaobsOsuH7oa2Tsnn81MJvL7H5pEqkx3L1jP4VKY7kABwsSnrOCOXr2ZFis4jLcjpiby1ei9PZmqBBEC+y8GCSwd5K9l/QrOcc5KvF29kTGquO5CgaP3Ndp3zSV0WTs6vWUnfQxf5zr19APssKdy3dhmfH/FJ7qHewDvYP2ZoqQOJ0jvAys0F2CXIXL+bbWKCvCAIgiAINwHf1m2FKU0eKJrv8PfOr/guvu5SLmTjqN+cx6eOZ8b0iXzyQH3iJRXjrv0sdzfuZXsi3y3OxCKZqD/sdt55/gFmTJ/Ix4/1ZFicC13+eT5bc6FonfKRDXxxAJyhNRg76W7enz6RGdMn8uHfWtLRb4J0Lfp3CgEusnK3911r+eJ+1mbocLRtRW+9/137a+cST5+0UjMinoX9hrJ/zFB2N42gA/BZyjkKc+nasYspFoUWkU1Y4k53YERvVtYPowMWpu4/id1jrZaj5/hGgvEN+7Fr1DD2jxlK4rAerGgYQxPJt1xy2L5hH/91SbQMr8fPPQa719+PtS1r8oah/LumfHgnf09zkG+uWbzeUbextmUcI1QHbyYdvAFPu2pEr85BGFWI6tmOzleh900QBEEQBOFGK3+LrYKU2EFMuq9wovUuuppVXKHfM6HoO+1z+eFRVxbcri//GdeZFhHaOwGkGr0Y3wHgIkmn3HfWDxxii0PC2GUAz7eJxuwe0iRHxXP7fe3piIp8+CRJ7gbowT2nsUghdL93MH2qBBUNC9IHBxGoHyWoQxM6opKy/yieA5bO7j1FihTF8B51PL69HnTcGd+NbwY2o0G09o2+VR0GKSrBdoc7QLCwJ8VCtq4mr/RrRB13OtUQQtWOt/JMqAtj5qWiMgEICTIRAuy5dIJTedr3SnA41dp14dGOnkO4QL5wnIUWHZagBvxnQEuaVdN2RdUQREyztjzdvapX+rI4e+4SO4ng7Vs7FK9XpyemWWcerwbBBZdIunS9d30T9W67h/dfnCiGOAmCIAiCcNO43i2q6656owZ4N2OhVg2tZVzg7gxIz7UBOpo1qOadEFCCatEgSsGQk0OGBJDKhVQdqhxD8yql601QjO3o3cpF8IXD/JKqBTCScohNe1RyGjdlaKjL9yfXWBDta/lO0a7D3WOHcbxoTkI6R/Jk9K5zjJ73K63mLPH4LOOePB2QyyWPRrnSpjOzouBEznFGLl/M4EWbmLntHOdtAXoB0vNYKMHtNepR02fuSsXkcDoXIJunVy7yyfcS+qUAWDiZddPv+oIgCIIgCNfcn7NF5QjUeNcTUvgon1JQDfqiJ/+URuPO8VRVLew8kAKAdOwEWxwGenRs4Tcpu3JwUuD71RUFU6//ULb1bMcnNSPo5srkv6f2cNviX3lhp/+cCYAInfe8i4pzYStdjCcIgiAIgiBU0J8wmChg76E0wES1UO2OeEiQDBSwPfmib2Jk21mOZcoUxEZSRwUwERysIhdYSXF433F3JR1lXwlj8ZVqbelf1UnBzoPslezs3XGarKjG3BYfKLCpDKKoa1IpMNTnl7u0+Q/+n94MiPPPv1K1Bt1v7c6LI4eR2LMhU3Uqvx7fw5psj8AhxExXYHbqRa95F5cTYrN4zXWQXDnsO5vjlQaiqGdWgBg+HTY8QJ61z6RGFRs+JwiCIAiCIPwJggl7Vhr57kcsyfZMTq74hc+PGSmIbUifGlpDOKhpXeJVsG9Zzjt7M7C6nyykXjrAt1/uZgcSce2bU1tVgXAa1jIBF5m34ACXnBKSM4cT6+fx3LwsLIFjCSCaXp2ikQtOsWpvMluPG2jUoz3xlXYibhRtY42YHCd4eeURzly6cpP/xNqVzNh2jgs5HgFGeHVuDQVwkuvxoCi1ThVu06kYsvYxZe0JTqdr3QmSy0nekX38d6PWg6MxEmZQgVTW7NZ6OOT086xetol7cv3LL75qJCGk89yaPSSfs+NwlVgp19W5VT/yxGszeT6hdI/6FQRBEARBqOyu8nsmtPdFJFhLbrwFNT3AXzuF+3x77d4zEYgqhzPg4TGMjilu9Gau+5EXNgZuMCvVW/PSAx2o7X4ikZydwDsfJpNc+Ja4onS16ZJ/ig36VkXvmfAkKYf4+e1NrHLKqHJN7p82kFv9nnJUqOzvmSgN7T0KEbzesx+3V/XvVfAkW84wZ9le/q+Exrjv+ywK39EQiGxuxOqhjX3eEbGZvyRlkuDxXSHfdbt2rKLbCVvRY14LdQwxY7BYae31XohMtizeyCRb4FjZEtTA730VFVG690wc4JtXt5MgSyj6OvxlWj/xRCdBEARBEP7wAre2bgY12jOmSzR1w2SM7jabYjRSrVlbHn9itFcgARDV617euqM2DWOkovT64CiaDujHWxOLAwkAJaIrTz7UjHYR7icWGc006tWftya2pn6JwQGochP6tNee9+Ro0+QygUTloITUZvTw7syJC2OQ30v7/MV3vpUffNLWNoQzpX5nNg1q4td4V1reyhc9m/F6qIn27j3RJcuMimlCUvuaXml1HW9lXo1Q+rjjmlhDOM8178037aKo6pe1KLoO6ctvdaMYq5f9JuDfGOLRsIIgCIIg3Hyucs+EcHkW9s2ezcdHI+k/eQyjoy/XM3BteiaEq690PROCIAiCIAg3n5u3Z6KScRZcZOfsuXx8VMbRpiO3XzaQEARBEARBEITKT/RMXGO+czFsVVvw6kOdvYZNBab1TDxu9pyvoPB7Qhp9/N6yLVxvB9+Pod1s7/khomdCEARBEIQ/G9EzcZ0oRjM1O3TjrYmlCSQEQRAEQRAEofITPROCIAiCIAiCIJSL6JkQBEEQBEEQBKFcRDAhCIIgCIIgCEK5iGBCEARBEARBEIRyuWrBxPyVW0k6ds73a0EQBEEQBEEQblJXLZgQBEEQBEEQBOHPRQQTgiAIgiAIgiCUiwgmBEEQBEEQBEEoFxFMCIIgCIIgCIJQLiKYEARBEARBEAShXEQwIVwDVjZ9l07jT7L4MMl3mSD80QXxWbsqmLpV9fjEsUaWfBMK112guqnCl2k634Q3FcllZPWLMXx0Mth3kXAD5W9dTf85Sxi/9gJ234XCH4REytIoJs4Px+a7SCgiggnhqpNTbCzNlpAVlSePFfguFq4JFcveDF6fmUnvjzJp6v7ofq185S8nLeTR12fy1hGD76Jr6ADfvPo1D3y6nTPS9W/02xKW02rOEuIXJ3P2Bvz9P75M1i5cTKs5S3hsW57vwj81yWVk87/CGLBVx/ncy+1bx/lm9q+0mrOED5Ou57H3Z5XJ1gsWUoC9qWdJEsf9dSEdTeKrJb8zfM4SWrk/8YuTSfdNWOpzip68FIlt/wlmzNIw34WCmwgmhKtOqRrEkAgVRZZ4r4HJd7FwDci7Mhi6UeI7C1z0XShcE84Jdgo2pbg/qfRRVN8kAQWrpUsnBGaSLnfZsvHw7ktF9bJ7rNM3QaUl5yYy64vvmfDrcd9FlyFxaW4IvX/XMe2dPF5vZfVNEJho114HUdxSPYSqQJu4WjQTx/01J5/YxXO7jvM/q4uTvgsv4/LnFAcNHshl7t0Olr8ezPT9Zt8EgggmhGvDTLcJMRyeHMnUZr7LhKvPysp9cBGJZ/qGsXdyFMlTtI9rmAjmKgNzqHYBcunEKbd8oqhuVgBQ5Zu0DG2pHL/oxOHwXVAy+VAoD71rJH68nZeuGEhEUNekNWhNN/eor0oj+Ja+rBwzlO97V8fou1C46o4fOcNSSced8V3ZNWIY+8cMZf+YoRwf3pQY38RlOqc4aDHFwmfV4Y1XzKx1Xin9n48oEUH4w3NwMkfiRLSJu5rpMYmjuvJx3wk+HxwW4KImlEZhWNwwRAw10BhY9XUQS0JV3nkghyDfxX4KTwwhVA3XGlGCcPPI5KRVxqmrxj0dYzAYrtwTVJZziqorYOJ0G33P6XhuUYjv4j89yWU9c+USL4X5K7fSrH4tmjWo6bvoD8G2OpW2SQZeGxvDXWoGPy138UmWxHkZhtQN4sVBZmJlz6JyYdmTzXu7YEG+RC7QMlrP8wND6RTj34csKfkcXW/j28Mqsx0SigydI/VM7h1Ct+qBWn/a+t/dI7HCPXSlplnH471DGVG/OL1nvkfHujx+n81X77uYFB/id3daTs1m/goXn2RLnFIg1qjjgS7BPNSqYuNo5f0ZNF7vve1/6VuFZ5p532qTUzJ4YQ5E9Yvm7pNpjD+uIzPIwLf3hlFnRxp3H5C5aNTzzu2R9Isr3CYXeYm5/LhHYV6Olm+zXmJgdQMT+4TSNMx7N5YUO6fXWXjniMpvDv/6SA03kjwhlDi038nZeaxb42DGeZWdqoRZL3Fvs2Ae7h5EuFe9l03htma2iWDGLXYSf7fx2lntb1SN1PP2kHA6R3mvv+z1U3JdV0Zy0kIenp9F/F2TmKpfxXdLTrA7W0XR66jWsgtTBjemqk+ZK+kHWLD4AOsu2LAroBiNVGveiam3NaaK3rd+XOTuWcunW85yOk3FLoFi1BFU4CI3rgX/fLQztVWVo4u+4D/79dS7436mtfTdRzLY8Pl8frgUx21PjmJkqOexFcRn7cKZ/IgD16OZHt+XTD6wkRZJ2STHtsfRp7rvYgBOLv+F4dk1+P6uzjQ7uoevD5zja7tKjhzMo7Xb8mjnaK+7m5LLwpmde5l5LoPZTgnQ0S2yLs90bkHDiACNxbOHWLT/DJ/nFXASiDUEM6pqC+7tXI0YnW8Zgpx1no3bD/N1roUtLnDJMqNjW/HXW2sTXXShzmTtwo08qGvEdp+7f4Xb/EirEUxt6nkOULDu282HJ1KYb1exAK1DqvJMp060i/PPRyGtfPQB1leyg+/H0G62jo9/Sechr/Nj+VhPrOfbZSc46N6vvIXTf/IYRkdrf0dScji2bR0/b0rjpE1ClXVE1G/CfcO70DKksH4O8M2r20m4wuT9+Lsm8Vwjn/PooTD6TTSTMS2fnXfkeC0LTKurxx1hvN6zH7dX9S8P+cIepm84R179Przb1k7Shj38O9PCLgVqmKvx766dae/evqLfuPeTT3O0dMG6YMbXasWDHaoQ6rdf5ZOx+yBfnC6u+zZB0Yxu0oYRjQMPH7EfS+L75FMscA9diTWE82Cj9kxoUdygK3lfu8z+WaZ8l8Vxvpl9kP941Gng417L24CIjrhqnOOZ/Sn8php4smVfHg4/yJtbTvOtYmRck25Ma+2xrSmnWLn/JD/l5LHFBaCjY0g0E5q1oW99//O//dhevk48x5wClRTfhYT47AvlOzavTCuTv1TpgLNnOGe37+KN8zmsdUGsIZpn2nRkaH3v61vZ66fkui5J2c8pJhZMDGf0OYnFv6UxRB/gPPsnFagV+6emHMxg4hwXL2dJXARkBX4/YWPCCs9nMTg5+1smvTdJfOsOJAAOZDiZMCubDw57JAXAxvYfLAxNhNnuhq2swI4MJ7evzCfVbwCrg5MLsuiwyXsM/Dmri2lLreyqyESuw+k8MsfFtEytoQqQZnfx9vo8hi4t4HpO103ZncOTx3RcBApsDmb9lsXje2VOKVBgc/LKruJnJ8j7s+m4VuWdrOJ8W50qC8/Y6Tc3j6OqZ5k4OPFLLgMOEjCQ8CWnZPHOLDuTzsFO93qsTpUv9lvp+JMlQP2Und6Wz7cz8xl5pvhvpGQ5GTs3l0TPvJeyfuT9GUWTrJt+pPCWTqLRKavHd5k0/SiLueV6ik0a6+bV5o3v6lzmM5stFdkPAcuGn5n2w3F2Z7sDOqeLS3s28cKys17pXEkLefaTHaw4pwUSALLdzqU9m5j+/jIS7J6nMQtJC7/j2SVnOJpe3OCT7S6/xl/jzvFUVWF/4mG/J63IqfvYkKInp3FThnoFEuWjtOzO/jFDAzQo/KVsW82QXWf50H0x1yn5fH4qgdf3eD5LJJMdy9Yz+FSmO5AAcLEp6zgjl69mRYp3vcuHtzIx4SjT3YEEQJojn8/O7uCnI3qvtADyuT1MX76bR7K0QAJApygsuLSXV/dYfJOXgZPza1bS99BFvnNvH8A+Swr3rV3G50d8knuoN/AO9o8ZWsqL/tXnSlrISz8cZ4/HflWyVBK+X8hbq9I5adMSS4qLnGMH+eD9uczNKM9x6e3IZiPrZZUH2l9peFOhKHqPGM7+Mb0DBhKedPaT/Lh4I2PStYYcwHnrRe5ev5NDSvHGyxcO8d6aXTySVZwu35XP56e20e33Q36TXs+vWU2vo951v9eWwUt7E9kb4HySmbCCnj5j4NMcObx1cDuLfPbxsihrvq+l2nlHefPARX5TARy8cnI7n2w9zbeKBDj45ugRDhWVzXG+XrufJzMLAwkAFzssqTy5YxPzT3sfy/KBjTy86ywfBgwkfJX/2CwtvZpFwtLVDDqjBRIAaY4Mpu3YytrM4vosbf3IF/bw0s+FE60387hDJsR2jN4ek69bzVnCh8mBb8SV/ZxSwICRTvRWiU3iIQZeRDDhReUf+xUOhBn4fnQkyVOiODwcRkkqyacLSHQf0PLhbKYd05EdqWfenVq6Q5PD2NhbZZSk8MYmi9cTY+T0fBZkyxypEsSmSdpY9kOTw9g2VM8H4R5/3s2ZkMuY8zIFRj2v9g1xj4EP5+AIPf+NCRSRl46k5DJntcQqSc8zReuN5OAoPa+EKxw7kc+88/4Ni9JSWkUXjdU/3PPK+Vyc6cLUJJTDo1SGqioLLihk1zWz/wGJyYrKnjSHV0O+dx0D80ZGFM0JOHyvgXfCFMKsDlaf8DgRnc7hrXMSulB9cT1OCmZFY5UwoHf7cNInhLh7JWxsW+5khlPmwY4hbJ+kbcPhe418UVVBzirgi31Fqy635Ycd/NMl82xPrdwPTzLxcZiCye5kkzvv17p+KpuUC9k46jfn8anjmTF9Ip88UJ94ScW4az/L3WNSZXsi3y3OxCKZqD/sdt55/gFmTJ/Ix4/1ZFicC13+eT5bc6FonfKRDXxxAJyhNRg76W7enz6RGdMn8uHfWtLRZ4K0Uq0t/as6CTuazJI874bJpT1nOC2Z6NGpxXUe63yJp09aqRkRz8J+2njf3U0j6AB8lnKu6MaFa8cuplgUWkQ2YYk73YERvVlZP4wOWJi6/6RXgHT89EV2YuClNrcVjSNOHNyVX2qEUsXnKiC5zjJn61kWStAlrnnR+hOH9WBFwxiaSFc+tksiH97J39Mc5Jtr8nOPwVq+R93G2pZxjFAdvJl0sJI+7eosy1akk6cLoeUdw/nghYl8+sK9vHF3PeIlFVvV1kx/8c6iXgn71lXMPKOgNm7L00/cz4zpE/n0+VG82C+SUFcO81cddNdPS+5/SdunP3u4HnVUyGrekxnu/bbw49srAUZO75dxmlU61bl8YFAey86f4FU1lOea92TXqGEcGNGJ900KJsdFtpwsPFZy2L7rEJ85jTzUsCsJ7jHqiX078lmYjGI9wjeJnnV5mvWXVAoMtflpqLZP7R8zmP1dW/J2mH/DTD68lafO2rEQzFONuxStf2+fjvwYE0T5H4Jb1nyXVTz3jy0cr9+MZ67wYIYQWw6fGuqwaGRXPjAoROZl8F+5Kj8N7s9PoS70rixOXyo+SEOC4nirdQ+2DNf+xoERvVlW1UgI+XxxyvPxG5f4/UgmOwnmr4X1OOo2EtrWYIQKsrkRaz0Cy+txbDZMP84km4n76nUmYcQwDozqzdxICchmzanCmyXXun4qJry1nREumHXk+l4ZKjsRTPjoGG9m5bhwOlbVdlalThDDQlRMdoruCp8+orJD0vHO0EhaVNPSqbKe2BbRPNlIIczqYm+mR9GGSdSWoE6Wkw3nCif86AmvF8a9dxQ2agtZWX9IJReJ/9wRwZhmRvcYeB1yzTCG3h1G+3I+FUI6ameWU2Jw+zD+UrReCbl6GPf0kOimKqw/5XuP9topMBp4rrcRpbqOFgoosp6n+wdjMEuEqWDwOAkrraKZMTyUFjXkojkBSlQofWspgEpOgcfJJVtitSTRv2locT0ag6jbS+YhReXz9OInvMjZNlZmyVSNN/PcLUbCjNrfVKJC6Hm7jr8qKi+eq/jTpXPNBuaOj+KhVlq5K0YzXevjlfey1I9n4JY8ReY5l8qRumaP77RAxHvoW2nF0uvOM0ybcPoyn7F0Ked+WCi4XV/+M64zLSK0AEmq0YvxHQAuknTK3WA5cIgtDgljlwE83yYas3tIkxwVz+33tacjKvLhk0WPXTy45zQWKYTu9w6mT5WgokBAHxyEf3Mlml6dooFMEpI8h4mcZVuig/zqzbm73vV+GpCOO+O78c3AZjSI1r7Rt6rDIEUl2O5wN0At7EmxkK2rySv9GlHHnU41hFC14608E+rCmHnJ61GUkUFBgIMV5y+S4e6tU0Kjie/Wi7saezdUpaSTvO2SqB/dlo961y9avxIcTrV2XXi0Y/nHC589d4mdRPD2rR1oVk07kFWdnphmnXm8GgQXXCLJo+FUeWSRmi2TX6Mx41rGYJBBlY1ENujB4PoOglLSOV1U3DnsOpiHYornL6Pb0SjMfY3Qh1Ory2Dure8g7Og59lSoYSZzeLsEbRRq+S66CvJNNZkzoC8TWoRh0Kmohip0qWrShhC6u2XkzDOsseioU6Utf20XTah76JsSU5VuPRryhKLybprn/fAgoo0qJkcaW08U3veWoVZdBg1qSxuf88nxkxfZiY5HWvbkwTYxReuXY6vSqm8XBlyhd6UkZc/3tabjr43bUF8fTT33hODJDdrTMtRUNJwnv2g0TTyj77iFwU3CCQnSlqmGEGo1imOACiucnsdyHhfsEmnhdbmrsB51ekIbtWF8pBPFmu0VHFyPY9OpC+d/3W7j2U5xhBpUVF0IzWpFEgLkuJ88UJb6Uaq35dW7CgPTW/nAoGAJasBa9w2Twk/pex5KIVahhVPl5KWb58be1VCxPeMm1LZeqM8Y+WBuvT+G5Cmh7kZ8PqfTJMDFMz+k+QwryaTXYR3g4oTHQacYI5ncE/o4HExbmk37T7N4eUkeiRcDNca0ybTnI430rBJoeflZUiBRgmU7svzy3XiJxCZJ4vOsq3jQXcHp6gbaekySOlbbSO/gksYgOsjYlun3HoW2SQEOaJNKCxVWJuexP1Nbn2y3cWyFky9liWEhHrv9ORfzZImU4xb/Mvlc5V1ZIiTDVeGhThfjDLT2mdcR3COG5ClRRXNKKlv9XGvVGzXAt1laq4bWci1w7wbpuTZAR7MG1bwTAkpQLRpEKRhycsiQAFK5kKpDlWNoXqWk/cib2roF/fQK6dsOcLyw5/HIAVblyTTr3Joo3x9cc0G0r+U72rcOd48d5vFEknSO5MnoXecYPU97b0DxZxn35OmAXC55nIOiunbk8yCFLal76bXwV8YtTWDx3nTyAgwDtOZasQDD69S7yr0yOZzOBcjm6ZWLfPK9hH4pABZOZlXGy1IQZqNK8PnDzD6Si0PR5mVlJ69k7gkjjvBwoosO7wscP6dDLjjOl//6mkdfn+nx+YnPTxqQlCxOed5wKgfpco/Gr6BTYVVp4TNJO/iWgd4Ns4vZzJXg9KXtfnXZYulh3pclJEuWx5ChKgzqXJexUj7vHlxL83m/8X/LD7D9ZKDBtdpkWoijR3P/2wAVUuZ8X2sx9PB66mEV+rYOcF0rdPYQi35byf3zPPK98RwL/Q5lI2E6iM05xYJD+ThcEpLLiSVpBx9l6SkwhFA87fj6HJsFhjja1fC+DirNbmXLmKH8r5N7zkylqx9vSphKtfLFsTe1iu0Zf0oqtnK08dVW0cz8SzDL20k8GKqw7qSDO+dl0eEnK2e8xvtrCmQJk1ePRcVJjtI1sCofJycWZXPrdkr1HgWlcTivV3XhynMy5sdsd2CQz+CTOtKMBv7ZxWOSmqt4zsuNVnnq5/rMmQjIEegsrSfEf15hiVSDvugpHVeiyk3o096AIes0692N78NJZ8kNiqdfi8p6enSWeW6Tqouhy/Dh7LilOe/GhhFty+Dvh7fQdeEyvkgK1PuiwxhwkmNFuLBVll28zBpy522RmFwW9vw8j8f/PZNH/v0jz8+7QIpqosmgdh7vEXDguNpFVxm5lKJx9aWl1GzNSyN7s6JpHaabDezMPsWD21fSceFODuT5H29Ona4UT6kqo3Lku7KQkzYXzX0qnEtQslqMbhxGPfJ5e99q2s//lZbzl9HlQCprJANPNG1MfNE+W4mOzUpeP7JdooL3AW5KokjKzEx8hALo+eQR7c5yoM/jPkMHABRjMHVujWTquGjWTwpidhUFS0YBH+7wvPLoqBGkUjfLya780laPyoUMz7Qq1h1OVvs8IcQcpw0dmdjNc4iM98c1uLTNsOtHtuex7JSMIut4ZZD3exT2NPNvCMkpeXybKtM6XGZwYRepLNG3hpHf7g6jjWfvRxW4U1Vp0jzUrywKPznjzD5D0a6NP2r9XD0F7D2UBpioFqqVd0iQDBSwPdk/hJRtZzmWKVMQG0kdFcBEcLCKXGAlxeeOuyvpKPtKCH6qdG5IvGph/Y7TyPbdrN2vw9ShOZ0qMDfg2oqirkmlwFCfX+4qfpa696c3A4qehFbMVKc+/fr05INRQ9nZvgYjVAf/TTrgMcETzEHacJZ1F0t/7y/EZvEaMiG5cth31vcJQ1HuYRwxfDpseIA8a59JfvMDKoNU1m3NIN8cTp0YCfdoSAyxVbht/B0818izD6cqdWIUHOHNePJFbT6E/2cUYyL966f0FOr0UGGvjPfjCq6jmFBGqNCipvZwgUCfU0Ma+z1VR9WFUK1VK8YN7s+vo7Tx/nrHRZ7bfckjVRixJhW9K4PEwiGPpXDU4n1rSDp6klVeD2gof75vPCf7TqaxExhYszPr3XMm9o8ZSmL3mozwO11lsvlkDocMIdxlkqjq/rZNUDRvdOzF1KaevR+V6Nis7PVzTmaXQaJXLf+2x59ZaVurgof4ujJhOHlmTjaJ55WiIRklkQ+m89TiPK+0qt5AwwbQQoVcm+dFJYSWNVVkxcmUn7PZfNrh/o2KK93Cylm5Xk9z0gdrJ9rF+3NIt0vI9gLOrMni4S0yO3zbTk1k/orKVwnZfJ9kJ/f6TY+omFyVMxI49BLVY3WYZG3Y0oXtmbxzzP9CY010Ml+VGdU9jNfuDtcmPE+O5OORIX6PkFWqmugRpJKUbOG9LXYyrFeozGup0tTP9ZkzYc9KI79w/LU9k5MrfuHzY0YKYhvSp4Z2TAQ1rUu8CvYty3lnbwZW95OL1EsH+PbL3exAIq59c2qrKhBOw1om4CLzFhzgklNCcuZwYv08npuXhcX3eHBTItozuIEdfeJBNu49xXa5OsO7V/FNVolE0TbWiMlxgpdXHuHMpSvtKJkk/L6BuXvTybQU11lQ1Rr0MCroXQ68ZgXVieV+Fbaf28p/Es5zwf0byWEjY38CM3Z43jc0EmZQgVTW7NbG3cjp51m9bBP35PrvH/FVIwkhnefW7CH5nB2Hq4RKuY5kWyI//O8rHvn3j7y6M8N3MQByaiIJqXqC29zC1PGjePM5LUj44JEhjKzr+0jTOFo1MmLISeKTObs5mpHv97SwgIKMmFWViOQ9fH/CeoXf2GnUTkFvldh+2v8ceD0o1WvQw6CQeG4rn+zK8Nq3ApEvHOST3/ey/WQuDnewr+qCqVkrNsB4fz3N4kIIIZ9pu9ax8FBO0W/kvAySVyd4P7HMaKAFsOj8YY5my0guJxn7E3h813m/4T9lzXflYXUPS9QRHxFBVJCK5HKSd+Iwv+y+wAqf7ZQvnGKJTWZglZY83bMPv7iDj++Hd2VogEfIVpZjs7LXT8EhAwt10LXu5Y/QPxvxngk37X0N+oDvRfBnZdN3+TyUEzgW83uHQYD3LxRSZB3vjo5iiMddRNmSzbc/uHgtwHhmMPDj1OJJ2HJ6Fv+apTDTZ0y/KUhmsOri7Wre7x7I35TO4D1yCUOFpADvqygtK6tn5vOYJXCZAPRtHc7HPXRF7154o15h3nzfk6D9+9kok7scLVdct2e9Obel03W7HHD4UqxRx5hWQTzaxVg0FEY6mM4DayU2BxhuRgnvyigt/229vPLVj2/5VW6F75kIRJXDGfDwGEbHFG9j5rofeWFj4BO3Ur01Lz3QgdruXgQ5O4F3Pkwm2ed4UKrXpkv+KTboWxW9Z8KTfOR3npp9EYukPU1n1sh4r+Xeyv6eidLQnnkeUeI7ADzJljPMWbaX/yvhgu/9XPvC9wsEPn6axnXih95VvOZHZG5dzZjT+QEfJ9m/Xp/i8c2Aa8cqup2w+Q1N6BhixmCx0trrGe6ZbFm8kUm2wHmxBDUo9TPiS6M075nw3L8KYovfQ+JJzt3Bh+/vZ1+AuVOKXkeNRq24Z1g7mri7LGT7IWZ9tInV1sDbGXgfy2DL1/OZGeCJbQHfM3EwjH4PmVn9qA3X/dley8qr8D0Tb8QFei+CPzlpM385kEmC7wI3z+f3F67bt3GvMfBE24FMalT8jeRKJ2Hp5hL2Fe/3I0ius8z9ZY/f8eCSw7nHkM3XUkOv/aos+S4rW8JyOp0t+bfF+3jhcVmN7+/qTBtV9XrXTPG/i88JV1q353EvZybz/vJjfBqg+FyyzJioRjzYqTF1wwpvoF3LY1N7z8QrZu96KEn56qfs75koOwNrpkXS/6hKws/pdK7AO6huNoH3GuEKzHQfF8bydipjDdrjRi9HbRHKms4wIQQKp5Ga9RIjahtZND7CK5AAUEIiuG9iMPMbUDRMB6BltI73hgR7Pc1JiYnkhX5wX7D2nSJL3FE/iNUTjAz0e5kXBHeLZtkgib9FqtT9w9S+mf4jjbwTVZznWKOOKa2C2NFXm2ztydAxiFdN2gmyXRBe25lmd/HJTgv3rS3uolSbxzBzjI43olQ63OChLX/M+imjGu0Z0yWaumFy0XARxWikWrO2PP7EaK9AAiCq1728dUdtGnoML9EHR9F0QD/emlgcSAAoEV158qFmtIvQGhWK0UyjXv15a2Jr6l+mbpVGLekX7gJ09Grb2HdxpaOE1Gb08O7MiQtjUIDj3FsUfbu25r2oULp43MxtExTJP5r3Zo5PIAEQdUtflraP5ymzjnru74J1wYyt1oaX2npPm9d1vJV5NULp427HxRrCea55b75pF0VVv6xF0XVIX36rG8VYvew3Af9GiLmlDX1DFVTZSHzHBn6BBIAS1pG7OmuNfH2wkUiP87LsdHExaQ9vfb6laBK/YmzC2MeH82i7CGq5n7pzZdHces8A7m4S5rX+kijNC3i6kwLfm/ithAbgtaY0u5Uvejbj9VAT7a+QBaV6a6a1qu21T7lkmf7htfi2921egQTueT6B9pVapkj+0byTV8Ct6mox5pZmPBUkudPp6BYZz6L+vZgQ5B9EliXflUlw5278UiOU3u7j2CXLjIqpz8+92vKKz/lNiWrKXdW1fTbWoPc69nWKwvz0Q/Rbc8BjeGLlOTYra/1Iu4P51zqZthPsIpDwIXomhJuMkxOLshh8Rs8/RkZybw3PZS4cu7K4e7PM2gjv3iPhz0227eer93ewLqJlwDvT3q5Nz4Rw9ZWmZ6I05EO/8tScNKQew/hXr1iv4MuVvYfvPt3NFkeE1xuwrwf5UBjDJprZPM7O2amZV3+ysvCHJSdt5r4DmUTX7s47XSK8l6Uf5as1yfxXDS1VT6gAksvEzLERPGhU2PJNBp0MN3BIdCVUiWI+QbgaLKw5qe3Wznwn9qJX1ao48wo4ekp7/KolSi8CCQFwYb+4iy8/2c4WRxBt+3e4QiAh/Bkd3HceiwSyvYBsj0lyst1K6snTnLBLqHIYNaKubwNDaWLl3fsd5P5kZMzSK/WRC38mx8+kshOQXQ6veQdyvo208ynsUiQghHpx13ef/WMykPhRCA9fgOdeyhOBRACiZ0LwUzjOf14JT7/xVZE5BVefjR3f5TE+p+RJiQVGPV+MiKRfgKfdlEybl/CWrnRlUjg/RKisUlnz8SJmZxbXUWTvO3ijW2neLKH1TDxu9twXFH5PSKPPFd52K1xrgepGrXDPhH3rLJ5YebmXV5qoMWQI/2jnfQf4epBcRpY+G8GIrRLPzMjj9VZW3yRCOWlzFvznsARSsTkFV19Jc5mKGRjXpBvTWpdtQNOV5m14q1I0/+OPy8CZ2aHc9p6RBi9aWTwk0GxMQfRMCDeZIDqPDWFJCxhrKp6jAlDbqGNScxM77g8vYyAh3MykyBi63j6Sf5YqkBD+jIy3jOHNOxvQsZoes8c9AsVopEaDpox/7O4bEkgAqDo7Q97O5rc+LhrGiMdVChpdxz6saqnNUfGcdxCsM3BnRF2+7X1bmQOJPycnpiDo8Pd8EUhchuiZEARBEARBEAShXETPhCAIgiAIgiAI5SKCCUEQBEEQBEEQyuWqDXMSBEEQBEEQBOHPRfRMCIIgCIIgCIJQLiKYEARBEARBEAShXEQwIQiCIAiCIAhCuYhgQhAEQRAEQRCEchHBhCAIgiAIgiAI5SKCCUEQLit79avsGnM7W745TKbvwj8px4Hv2TOuLVv/ncBpRfJdLAhF8jel0/ujTEYvLaDAd6EgBCDtDue+D6LIdIlzi1BMtgTz4TOxLM/U+y664W5wMGFl9cx0mn6UWfSJ+c5CKoEPIHl/hlfaph9l8p8kg2+ySse2OpWmH2UxN03nu+iKZIuFDQszeWCG57aXb12CUHZpZKz+DDiL8dc9nJcCH5t/NulbXkCxyxh2reBS5g0+jQqVmJWEI3AROHDCQaI4fv605JQMpn+Yge7XK4SUB8OY8HQws1Ml0v70u0smaxcuptWcJTy2Lc934U3kON/M/pVWc5bw4eXatNkSqWdkBk+JZH1+5bruVK7cCF4kJY8ls21MOgcJ4g6FcEPEEt33YaAW9mFtqaGK19IAxHT5N7JRwdF+AFWiFN/Fwh/GWU699SI7/r2Os9ekoW+mayOoBrSsb6CFOH4qEQubfsxg9E8l38C83mSLmTcnB/NDZycH/i+TRrLYXwqZpJKbq5Iji+S163l8/hJazVlC83m/8fLqoxzNLvk3padg3beTNxctpf+c4vU/tWwvuzI8b+oWBwQlf9ayKOUKN4IvsysqNay8+j8LUy/I9HkliiOVqFf8apR0BZjpOzGG5ClRJE8x8XHI5S/KSqtod9ooDve8+Q8yKdHOP/Jl4qNNLH0womjbk6dEMjrW5ZtcEK6JiL4v0X7OIrrc35go34V/UoaW42n7wx5ueaErdcQF/w8sHfu2xSj5vt9fPcHdYlg7JYq5Q0yYfBcKN5CTQ2mwxun7/Y1iYNO/zPzdCJ8/lSMCCQCiqG7W2oWqHLi5Kl84xPu/bmRMai5r3c0inaIwP/0QQ9Zs50AF7+CfX/MbfQ9d5PsClRT3dzpFYWXOWe5ftY61mVcIDkolgromrb5NV1idUsPCf/5up8l6PZN+D/VdfMNUrJSFa8qa6iIXiRG3hBMfLKpKEARBEG5G8sEg/rFaR4fJ+TxY1eG7+E+rMABvGBLms0SjVomlpdHMtMZdSBgxjP1jhrKve0Om6lRMjovMOXSFYWWXIbmOsuKSSoYhhi+7DWT/mKHsHzOUxMFd+SlMArJZc8rmTh3P/WO1v+/7SRzSnKclFUtQNbpVDXQjuLB9F0LV8MvfVAcwDLDyTkeFDf8L5jdb5WgbSi7rmasc/rrIS8zlxz0K83IkTilg1ksMrG5gYp9QmoaV9OesrJ6ZzxhdEMkTQomjpHQaeX8GjddL/KVvFZ5pFvjAkxQ7p7bk8eUBmO3QuoPahOq4p2coI+prFSDbs/j4U4Up9UNwDQt830hOyeCFObChURjrb7vMeLYS2Fan0jbJwGtjIxl8NoO3tmn5Mesl7m0WwuM9DQHvWBX/LiZgT4ScnM7IlTLrawZzdmSQ3zpcG9NpsVfmto6RvHdL2bvDCrc7s00EM26xk/i7jdfOquxUJapG6nl7SDido7zrSc7OY90aBzPOa+m0bQzm4e5BhPvdaXGQsS2PGQdUFuRL5Lrr584uZu5qEmiCkUrBsWy+2VK8b8UadTzQJZiHWhXXS8n7Rsn7WNnyXXm4UvdzfOFS8rZsQM05j2psgdpsKKZxI2haP4jiUtnLkdH3kTbqF7rclsvhr74hb89KJHsTlDZ3ETJlDM28huto6XOl4tsktsGzufXBRh5pyk7OWsm+Sc+SX+8tYv8zkPo+wz7k5O/Y9dL/sN2xgA7j6xblX8k9yalZs8na+COqVYcafhvy2Mep068mMTrPdWj5Th0yl273V+fCyq9J+XkZrpzzKHUmo5v6IO3qe9/6UdMPc3T+AvKK1t0btc844kZ1oq77rpgmjRMvtiPzUFzRN85m/6PGq72pVcLwFcmVxun535Lx+2pcRfUzgpBH76KZ1zHtzvfDG7ml3SEOf/oZ+Xt3AI1Q2kwg/KnbaXyFntvLufhFbc4v+y+muWOpe+w3zn78DdZTh1DNtyGPe5x6A2t49TpJrjzOb5hH2o+/4sg8puW760NEPdCXBgHyUVQ/XvthG0wXd2N7dDadWmq3f+V9X7Hj1Q9xvbyv6DuNVrap8vd+5Vn6ugcoIHXTr1xaMJeCU4eARqiN+yGPu4+WzQuPB/96DMQ2aR23DgzcgLmybL5638VbuuLz7pG65hKvMQDKuRwWrXPySXbhuQ1GNjRzf68gYit4Dirtuku+5mjbMyne8zqpnU8Hm8yk36Gwe7m96PxZ06zj8T5hjKhXvP3aeVnmb4NjGJebyns7YUG+RLYsMbKuiWcHmf22U07NZv4KV1G+zXqJAbVNPNffTIzRM21x/pQhEqfXWXj9kMpal0S0WcdzRXnR8vyY5fINsL6tw/m4h/d5wjcvga49hTzbHksd2rWtil4l3ymxK+B+YCBhegTdt8ks/i2NIXr/YwxATl3La5+eJK3PKP53SwF7flvHN4l5WF1AXG3GjR1Ajwjv3yrpB1iw+ADrLtiwK6APjqLNgN7c3yoCo1dKkJQcjm1bx89bMjlp0dajC42iRlguyVVu5bth8T6/uPZOLv+F4dl6Hmk1gqlNA7f1ApF3r6PF0TySY9vj6FPdd3GpyJYjfPrrIV6Ibsn5AfW8ykvetYYWx6w82HQYT7W6/PF5af0y+qWoPNJqMFObBkqbydqFG3ncEcbrPftxe8CAw5ucEEHTp4MIfj6fnXfk+C6+7i5/RJWDvD+bjmtV3snSDjgAq1Nl4Rk7/ebmcVQte6O2PCTFwqrvcxm4WyoKJAD25rmYtjSbxzZoFzLFqCPGACHZrpLHTWarJCPRNdr/pFEWW5dn0HtTcX6sTpUv9ufxj+2FO5f3hPS2SXpA5cXZaV6TzgsncClNg5gUpBB10cEuh29V2thyAhRZz93tr9BvdgV6Wz7fzsxn5BnY6a6/lCwnY+fmkuhRn3JKFu/MsjPpXHE6bRutdPQbl6pydkk2t26Hb92BBO76+cdKG7v8xi+rZK3JoPvv3vtWmt3F2+stFZqQXrZ8l0Ua6+bV5o3v6lzmM5stfttaWns5Pnk8uctno+acB0CyJyLvfQvHc/9k7zn/MtEl/0jiE+OxbFuNZJeBI8h7X8cyfd51GX+pRPYgurcZ3ck1pJ333WfhwvbFKAxC1y++KJCQUzeR/NxtZC6fjWrVtknKWYb6+TCOvZoQcKy75DzHyTfu5fwXX+Nyl418+hOUF2ewN6f478pZm0h+fLRWhkXrXov8yyTObcwuSlcesmUfh6Z2JfXn74vyoNXP6+RPnsz2A/4NBuOy10n860PuQAJ3/fyDrDfXBNzOsslHWvkqh5//O9ZThwCQrMtQP3+UI5vsHunSOP3uX7nw0Xs4Mo9p6eyJyOv+RtbD/2JPus9+dXEVB6cM1+rHazt/xJGS5J22jMpa96k/PMyZd193BxIAR5AOz0B9eRGHK1x+1458OJ37FriYlul5boPPD1qZeSjQjZXSu5brBqhqdfD69wVe589zVhfP/ZbHSr8hICpHN2fQe6NUdN6XFZVfTtiYsMJzHwRpfwb3zla88m11amk7fpPL3kDDVxQnG3/IZcBBWOueZ5hRYl7K4HA6j8zxLUMXb6/PY6jPU7okxcLGH4rbHoXXtkvO4v/3JefqWbFMhkFO+pYQSHjSWw/y/QeL+WSfO5AASD3Dt1+uZa/HNVk6uoJXPt3BinNaIAHgzM9k56IFTP71NJ4lLikXWf3lz7y1Kr0okABw5WVy5oITR+nb8VdVvYF3sH/M0DIFEp4mldCjURpKSH0GxEhUz0qk/+KdbD9ZgOSwcHbbZqYetSKb47mrhe+vvMk5R/jlgoOs0EbcHzCQAIii94jh7B/Tu1SBBIDauYAndSp7Nhg4VwnObQGOxorrXcfAvJER7J3snt9wr4F3whTCrA5Wn6jAAV0G+WutPJYro0Qa+OUebb7B4UmhbO6k0lGFlQfyWZErA3pqBqtE2lSy3PWRsiKNxp/kklDYQLdCogS1IioSTKgszpRoUj+IVQ9EkDwlnP3dtLz8tM/KkXLtDCEMaAqy4mRdos8dnRQrS7Mlqtcz0dVw5ZPT5Sw/7OCfLplne4awd3IUhyeZ+DhMwWR3sqmoPm1sW+5khlPmwY4hbJ+kzW85fK+RL6oqyFkFfLHPc605rDshYw0yMLtoPkg4B0fo+W+M/wEnH85gaqJMtizxZJfC9UeSeLeJWXXA7P+TUiprvisXV+MX0L/8G/E/7qb9nF10mLWeWncPA37HsU5rCHrSJ83FFjEJ+d+baTxrN21+XExU82jk1FfJ2OG5n7Sh0dy9tJ+zi/ZzviZMLd0J7spM1Or3KDK/49hSOAJVI7n2kvNbEo72w6lbozAveZz64kVsaQNQpy6m9ixtO1t/Pp/Y3u3QJ/6LCzv882Za8TfSDjZCmTSP2rN202HWeqre1gbJ/iUF+wu7pSFn+2/kO/S4pm6hsXvdbX5cT82/PkOQwXeniqX+a2fcZbKcqCapPss9FXD+p3+RlxaGs+8XxH1XvG6tfjYjffybXwNXPr0ch/5++PdmWszZRevPPyMkzIY+KYHUjPKcIzy9h23GNpzd3yHyiz20n7OLptMfR+Ys6sZE0t2prBu+JHXLLpx9PyTana7DrPXUmvIwOvvP5P+816NRlMepLydiz6+P69751CjaD7dQa1z/olTlU9a6TyZryS6Umq8S8r2Wtv2cXTR791tCuwV7pPOsR23fdjb7H1XmFv+m/ZxdFeiVAIjgwScK5/jJPOfy3Ze8HUtW2CFJTO8fWTwvcKKJJU2hagWv0tdy3QBmm4t5LpnHe4Wwb1I0hyeZWVBDQVacfLCn+FgrtChboXYVo/u6HEnSMBglqZw4amONs3DEQDZfbIYdksTErqHsKzrfG3knTMFkd/D8Rv91Nzpj54E8HeNba+fyQ5NDivKy4qjLZ56mVi+p4UY2TCmej5k8JcqrV0JScpmzWmKVpOeZvto1MHlKJAdH6XklXOHYiXzmnS8OypybbTyUIxMSXdz2SJ4STvJtKkNL6MHkpJ5ZRolBrRwE+S4LIGdbMuvskXS4fTgfvDCRT58fwMg4F7r8U2w+5Q66laP8vPAMF6VwbhmjpZsxfSKfTLqFgXEuDHu38mNq8XYWbF3L7Et6bFWb8fjU8cyYPpEZ0yfw4b31qFpCtiuvfPZdzAaC6Vcj0ndhGeip36c3i+JMGG0XeXD7SlouXMvgU5lQtQ1rBjan5hV6Dc/uPMz7sp7XGjWhImcUX6rOQachCvoEHXs9bpjfKFfhVOJNaRXNjOGhtKghY3KvXYkKpW8tBVDJKbgeG53H2qMyiqzns1HhNInWMqIYDUR3juK/TVzIipOdx1QgmOpRCmab6r5AWkk8JyErTjYd1X5nzVAAierRFWmUS4zoGMr3Q4KpaZYBHYa24Twb58Jsc3EoU/Y50UWxp5kTkHhtbKzXic6zi9TQTOYeReXlJCueHV3WRBfzJJlHW5k9vi2fXLOBueOjeKiVEZMMitFM1/p41aecbWNllkzVeDPP3WIkzN0FrUSF0PN2HX9VVF4853ny1xMTpBJkd7LxWGGDQIdcM4yhd4fR3uukq3I8UbsgPtIzkskdCtcvoYsx03Z4JEPi/BuUpVH2fJdFLL3uPMO0Cacv8xlLl5IuMFfUhqb/upvWLasS6W74qrpQqvXsgh4V1eZ/J0ep8yLh/32Ctg2DCNWp6Aw1afDQVGTAlXTaN/k1oTbqRGhYPqZfN3g1pqXEneQ6DNCvC1XcZSLn7sGyMxP7Hc/SuldN4tzDWvSR9aj34KOY1dM4DpwpWkchNfwh9G+/S8eB9YnTqai6UGp36Q6A01J8HzE40t39vXMzKTYtLzpDKFW73Uv7PuFF6cpKzt9H1u/JuOq9ScwjHagdpOVbZwilyp3TqdLTjJy6mpyz3qdgJe5BjG8/S/uG2rBFfWRHovu1BOy4Ktxz1AHl0S9p82Rv4t1DIcxtuxJicCBZcsiXJCCP9I0fooa/RPgj3ajnTqfqQqnS+wFie6Zi3HiQ0+56k1PXk70nFnvvf9NwZD2qFe2HRoKCKnK+LE/dhyLXyEJK3Ujuwayiu8XBNVvS+K/DK/WTlKLMACrLjtlIt2tlq4SYadAviglN/I/jsriW6wYoMOp5d1Q0U1oaMRpVFKOJFkO1c+ea8w6/nt2O8WZ+GhPivi5LSHWjeLKRAjg5cNzduN3n5G2nRJvmIUxrb8BYdL4PYdidOv6KysHTDr+bcAVGPe/dHsmLPbRzuSobadEEwoBcW/muEdJRO7OcEoPbh/GXZto1ECTk6mHc00Oim6qw/lThPX4r645qIwI+HF3c9gAdchglBgrZp3Uck6Bt9dJdaxyR8Tw6dTSTWsVgkEHV16R7syDARa67YSkdP8oWm0xE/9t4oLGWDkCq0ozRg+OJUi0kHS1sNaSyabcFVa7Gvfd3pUVEYXCkwxhaPG/hjyIzYSN/ydPRv15n7qxVsRn2qi6YqtEhtPc5/e7JyeBC/uXPyXJ6Il+nghLeiFENK5YPfy4iqmnntAuFd8JvoKseTGjj4DN5fWYmvT2G5mhDdq4XF+dtEqci9bQP9r2gSVSvpm326VytcquHAjg5niojZ9vZlmvgseoKLx6zAJCWLwF64uN811U2HRv4nkr01I1TAQVbOfczJSaMsdUU6mc42ZpbWJ0W1h6XyTUb6F67fCdQTxfjDLT2mesS3EMLeormJJxzMU+WSDlu8XsXSOPPVd6VJUIyPIeShTBkqMy9isIH6/Jo/EkWf5+by+bTgQoin+PZWnDYp+VVPmjKnO/KxXJuM4fefond97dh15j27BrTnh2PvYizhPzaW7Sisc8xodasj1l1gct7mMG1ouqaEj2yH1LOUrKPFN4ZK+Dshi9RjU8S0saj9/LUIaySjPGXkex3b1/Rdt73CFZJRn/igt/7L1w1WxJT03s7lZYP+d1x1nX6C9WHdkaX8DeyJw5j+7Mfsmf5Ic44A5dfqeWlYpcknO0a0cDvzpWJ8EZdgDWomd5/x97xNlpV8T5mTTF1vP5dfrWhbTWfhkFTGv24n87/7OWep3AW2/5IpJxXsY5t51Xeu8Z05dL6OCT7ceyFvSQXLmr7WtM6V/9JX2Wu+1o0eGYmJt2vyP/qw4H7p7D7w2Uknc6v9C+Li+pr5stwhR0nbHT7PIPRP+Uwb6edXHfjvyKu5boBcoJkOvnculaMBhqbVQyK774PbeuF+jVOq8dpeSlw7/rWHO0GXr+6nj1KGiXESOMQ1eMGYLGcIJmONb23S2kew3af3oaysKRoIxOW7cjyv0YskdgkSXyeVRiUOTiZI3ExXEdDv57NkkllPN9YatSivc/cpZAe45gxfSLPNdLyknshHYsEOcvn8OjrM70+D397ikwJjqcX9kemcDpdpiCuCm285qL88Vh3r+eps3bqxLTnzU4Vf9pRZsIq+h7KYLU+kjc69mdf9+a8bFTItJ1h5OqtHMgrqRnt5PjO48ySDDx3lXslClWt0A3uq6ukUignJycWaePgv7NoL+q5kZwmye+kFYg5TjvJZORIcMTFy7EGHqoHTS84SFQlnHaV1HCJ2tfgGCuo8Psj9DRvJdFCdfLrQe1MLJ+2scgmMbq5mdrX626cq+TxoCVRqkfxyuRQVneXmR6psDPVyYOLc2nzZV7A8bAO/TW4Q1KOfJfetZ0z4TjwFUf+OhXLtiVF48nLQ7LbUUoIPq6V2B4jMLID15ZjONx38vM25eAY3JsmJo8TZIXvxl+JieoTZ9Dm41lEjh9IUPY6lM/vIfWeu9iyKpWK3rdVgyt+Mbu+CsDuf+xdiRx01Y/M8tV9tX60+jqBWi+8QXDLYJSE58l/uhv7p84mKcA5pbJQ5RC6TYhmz+063q8rEZvtZPoWCx2+zOTDik07uabrLpmKvSz3sQLdQwLCfGcI3wCSo+wNtgJZwnSFh8hca/ZyHD8ukw7j9WozXHUKmQmruf1oLs64NnzVq4bfBPOykk/t4uUzdrJ1Vfi0fw+G1jchVa/PmGF9mRuhYnJc4rndl3x/BoB84QBfZsko4Q0YFV/CDl5B+aXryLoururZVbbnseyUjCLreGVQWNGcieIhO9eLTJgRGqQEmpiscuGidnKIj3VfAKvAnapCRo6T42cUHqplJKyljkdtDjadsHM8WyYrQnfFJ0yVnYXdpyRAR0xk+dddOBF7xvF8coALh1RW6gwVnnhdJlXgTlWlSfNQryFZnp+ccWa/MlRlIzXaRHD/PdEsfySEFY1VjDYHj6/3vJdoJCZYxWR3su+Mb32W7GiWz/3IYzZWWn1OsOXM941XQMqal1Go5TVWvf2cXXT8+DX0Zciv48A2rJIMUVf93nKJCidiG9bs4pgi4di7iTzHcK+J1wBUr4YeFdu9y73Gs3t+Ov9flwq/TE8X15j4O6bS6rM5tPn4A0Jid2OcMYfEKzz1pURB4RhVFcPm3ZzwCxYLyDmyBRiBVL1i+b76aqJvmoFS803CfeYQFH+m0a7wyV9BBm2I3Clt4nUhyXWW9IQ9Xt95cqVkev3benwTlhPRXt+Vt+5VXShV2g+k+bP/oeO3G6l19zDklDfJWnDcK13lIxFUO5yBwyKZ8WgUewepjFYV/rsx7yq8Obss61a5kOG536tYdzhZLfumK5l8uoBFdomsEB3hVzwXOTl4QgUkarp7wPXBOkBl4VH/1pJssXPYIl2zG3y+Cm82TuzmPa/C8+MaXBhMa22PqlaFFK9yVck4qLLcr6w14bW19tGeC76jF8ovpoo2xLne8Pvd8x/8P3OGFfZ6BmE2qgSnZBcNYSyUfvA8pwNnu9KQXBYOrfqdwWfzqVetE1/1rkWo35PeyiHXyhoJ6sfVp0NocVCp6kJoVi+OFsCO/LwANyTz2bfnNAulYF5tdm16JUDHGfewwPiYsge8V1s5r5QlyFU5I4FDL1E9VodJBtlu48L2TN45dh0btoRya01t0tXUuTkcytAKWrYXcGZNFk8f0lFgNDC4qXbrRI2TaaDAsdQ8Vl3S072BCcUYStcqLmYl5nOiQGJYWMXzn5/uwO7uWpYtVvbOs/FSgUyNOkZuLcUTHEqmTcSun2FneVo+u09cnYnXZaFUNdEjSCUp2cJ7W+xkWC//t+WUTD78KYfNp4vLRJV11GoEA1WVTV53g/S0qCMThsrff8tiTpLdqxyTFmWx1GMiGSaVFirMOWolOVdCUpyk781g8jKY7/M0sbLmu2yu5ZyJXJRUgKpQpzpRBhXJZSf9VAJJX/5W4jAnOSuNFKsDByC57KTun0vSBzOAERh7VvVNfg1pE7F1OV+Te9DFhe3/9Zl4rVHiWhNSNw3T3H+zc905LrrnNVwtF374P3YvP8RZd5kAENmGkDYdgDSc5fx7Slhbgtulozv5AZc+3ckZ93pcjnTOzXyeS+utONoPoE7s1dzfroZYIm65A/ncB6R/uolTac7LDxGq3RSzwYFxySx2nrDhAGwXd5L8wkNkHszwTV0UfMjr1nHMIiO57KTt+pqjL/0Du937HFvWupdTV5H49mKSTmeR4+7xVXWhhHfsUOIcIjAhhdvRJ83h4uZs8krRUyxf2shbb3zNw2/O56sTV2NooJWNc7P4aafn+UciuJqJHmYVk53L18FllW3dWiMeFu/PId0uFV0zH94is6OEogmxq1xwDxkGF7aT2Xy+TGK1JPNms2C/3mRLno1cd7HJdivHf8vh0Us6UsMN9K+lXZONjSXuUVR2J+Xxv12F1wgV5UIO3/zs4l0kxjeu6E0ereEfl+Pgy112Cko6FJvI/BWVrxKy+T7JXpT3wIJpFaNgttl5b3UBOYqEbLeStCidAQflAI1Ot0ZOpheo/L7fgH/4VE4N6tIRleO/LeLrw+nkX3ZYW22a1nEiFxzn55VnyFIkZPtF9v7yAy9svOwGI9sS+eF/X/Hwm3OYceTyaa8FyXGJzcvWMzpDpW+9bnzRo0qpeiTknJP8NP9XWs1Zzpt7SqgZnUwIcDjzBHvOFW+bnJdB0qlsEoGOwaF+wYJ8IonPcnU4IhsxrM61uZEuufTsT5BxdnXR+Oq25MvlKr9n4srPcPZ89n/h+wBKZuDHqYWTca+8bs9nQ8uWbD7/3sXbAcYiKrLEE70jmdqs8BsLq7+08ZhNxhpkZNVfQmmkqjgTMmi5S/v9HZ2jeLOT51pKT3t2d+A5IwVGAwvHh9PGb27H5Z757U+2Z/Hx5wqnauq4dFal36hY7q1RsZ248D0Tb9Qr+R0cnqSD6TywVmJzCY//9ap797rnBbxTIzFlQCSPN/b4RrGw8QftKRn+JK8ykpRcfv7MwUs+DQNF1jE2xMnHksnrPRNlyXdlkvP7Mxz9crXv10W83wvh/96IYrVwTPqS9gPjinoFrrTuK71foXTOcuyZrqQ1/j8ili8k94Vf6NTBv34dB74n8d//QSlh+I33Owu07cxs/n6p8qe9fyHw+wacLT6mxitdi9ZR+I6Ekk3DNHds8UTfi0s58PQLfo1kANU8Hv3bz9KmaH5E8fsxfN/lodVFOMqMV+gYc/nzQEm07ZxUqnXI+ckkP/M38i4FHqjq+76R1B/u58zC/V5p4FaMgxpi//1br/qRXMkcmTqcnDTvy69qHo++7v8owPs9E2Wpezl1KXsem15CIH0rzlfep3Nz//UEzn/J75lInvMZ7x7WmitZzXsya6T/s/cvd84HSA03epyDLn9ta1DfzPxyvz27bOuW07P41yyFmT5laAqSGay6eLua/3smSlp3ozpm5g73WPdlrveKrOPfd0ZyZ5XC66D2KPCSGuAh0SYW3h1Cbanw+NbeM/FslPe5/fJUzi5Jp/9J/+PT9z0T+ZvSGbxHLmHotvf1Rz6czr3L/YOvlvV19Djm5G8B32llYM20SAZtkPjy93TGhwU+RgvfM7GvReD9zlfmptm8vCafwHFEOP0nj2F0tDvfR3/nqVkXsfikVZpXo+2BC6xv2Svg3/T8nWKKZ8qzvWhzhfPu1WRLWE6ns5e/Pgd6R4Xn7yxBDdg+vCkxXilAcqWzeslmnigIvI8XGKowv/8ttPTotYAcdi5Zy0RrKK/cMpBR1yiYkA+G0e8hM7Gv5fFTP21+740UuITKzUz/kUbeiVKp615zrFHHlFZB7Oir3S2+XpSQCCaNN/F5Tejq7u5SZLg1Vs8Pd0V4BBIAJmJCtTT1ahlp5D4QjM1lJioqINEgpuQLw5UYm5l4v67EYINaFMHGGmFMoyB23B8WMJAoK8UYwfA6CgvOKXwfY2RYBQOJ8lCbxzBzjI43olQ6FJ3kA1OqRvBCH5m/RRbvK4os0T9Gz3d3R3gFEqCN++0+Lozl7VTGepRjTbOOl3qGeAVbqhzG2Dv0PB2uEOau9y41jCwaH8FDAU7SZcl3ZRIx4P+oPm4cuvAaAKjmrnDbfwn9ZDbhYfm+yf2oxhYobZ7D8NbPXoHE9VOL6sMmYVjxEZaIBwlr539RBzC0HE+rd78gpPNQJLN//VVElbFbiBk7Hl1UA/c3tVCqjkedupgGLxUHEuVSbQgt3v/eK99aHX1I5MfPeAQSlYsS3JQm739L3F2e5VKyKnd/RI27Rru3sRbOFs9heOs/tO7gf85UdU1p+PJPBDfXghHV2AKl1ztEfvwMVQPMMy9L3StxQ6j1jzcJatMd1aidU1VzV9RbXiH4k08CBhK481/abQVo3qs5TQwqij6cgW1r+S4uBzP9hxr4wONahfsFni/1DGVJuQMJyrxuJSaSF/rBfcGF10yJO+oHsXqCkYH60h0Lhete7BFIlMSslxhRWzs3FwcSABKRfaJZ211lQghUc38ba9QxuYOZNWM9A4nykqg9OIT5DWDwFSZLB3eLZtkgyet6VRKlcTRf9dWuU7jz/GzPUOYOUSnxnb046Du2gJ6KxPsrKv4ExkJR3cbyxrhmdKymx3ilfDccxGt31aKe+8lzijGcpgP68dbwmoT4JvagNOzB/Y20upMLMjmRfYU/VEmYWzTm/3QqYOCR2jX9AgkAVRdD36G9+KV2FGP1Wi8FQKwhmLHVmrOij28gAfKhJN62XtteCTCydEYQq0NVJvS68rX+erjKPROCIFROJd/5FoRrobB3y/9t18LNQeuZGKMLKlVvQGHPRGXt6b3xtLdg914r88n8TB6sWjnKqDS9IfL+X3h4USaqXIeH/t6PzhW5CSNckWNFJG1eNlH//6wsGRio7+76+2OEkIIgCIIgCDctB92eyOdRI0x6KoL1lfjpY8Vc2C8m8u167RGzjrZNRCBxjcnnQ3jmX0YO9XTy2W15votvGNEzUSbauMy3dAEHIPrxHXd5I51ckMogj7d0Xo73eF7h5nBteiauNLfCm8+cAqHMLj8vwN+N7BUQPRNX1+Xnmfm79j0AomfiWpB2hzP8sWCW9HKS/K8MGvm9p+b6Krln4gDfvLqdBPdTvuzR9XnsoT50dA8xFK4+Od3MO5NDeVqvsObLDHpehSHyV8sfIfQVBEEQBEG46antclj8cT5jG7mIvbFxRKnoQqNoOqAf7zzSWwQS11qQiqGaizWfZ1aqQALRMyEIgiAIgiAIQnmJnglBEARBEARBEMpFBBOCIAiCIAiCIJSLCCYEQRAEQRAEQSgXEUwIgiAIgiAIglAuIpgQBEEQBEEQBKFcRDAhCIIgCIIgCEK5iGBCEARBEARBEIRyEcGEIAiCIAiCIAjlIoIJQRAEQRAEQRDKRQQTgiAIgiAIgiCUiwgmBEEQBEEQBEEol2sUTJxj66IXeXPROs5Jku9CQRAEQRAEQRBuAtcomEjnbOY3OF0ikBAEQRAEQRCEm9U1CiYEQRAEQRAEQbjZSS7rGdX3y/JJY928diRYL98bEdT0AH/tFO7+1z7mfTOU/bVW80qf6hzf/jVLjy4lV0lECX6RNl0fYmhNHQBH19zF3LN5RHX6lUea+sZAeWxd2Iw1uU/R/o5nGRju8lpasOcX/m9pJjmte/LWsHhCvJYKgiAIgiAIglAevq3yG0JSzrNx0VhmH36bXCURADn/NfavncHyHC2YaNx0POHqflJOHsTm83s5bSP7csBeZSA9fQIJSGXz5jQyVXDt3c8K9/oEQRAEQRAEQaiYqxhMxNLrzjNMm3CaaRN+pZGi4gr9ngn3FX6nfYp7JYqZLk5gg6UJUU3X88jdZ3hh3EGGVusHypscOmkFQKnelw7hYExdznqfgOD8oaWkS8Np2LwtQV5LAOJo0ymcKAl0bVoxwC/YEARBEARBEAShPK5iMFF+quF52vR/j0c61SPKoKLKobSp1xMAV0GBO1UotzScDrzL4RP5Hr8+x8EzC3BG3Ee/OoEDhehOY/j33yfykRjiJAiCIAiCIAhXTaUIJhRTK1pXU7y/a/SAX0+G1LwPrXQqOUfWccT9yFn52Dp221sR17gzVdWrNP1DEARBEARBEIQrqhTBRGmpchM61B2JnL+a/Sla1g+fXojdOIlOTcRcCEEQBEEQBEG4nv5QwQRAjRYjqaZ+z8FDx5Ec29l+LgFD/R60l0SvhCAIgiAIgiBcT9comDARZABd3iyW7M/G5j2CqUKUyFtpG1cL3bktbEvazSnpJTq1qeKbzEvBnl944V8zmfLrcSy+CwVBEARBEARBKJdrFEw0oUWNvsCvZOxuybs/1OGN77TPu9tzfBOXkYn2jR/HaH+GVXtfw1atD72CLhetiEfDCoIgCIIgCMK1cI2CCajf8yOG1H2KMH0H30UVpjToRdsggAE0btDMd7EP8WhYQRAEQRAEQbgWruIbsK8f2bqfn38ZwqGgH5g4qhc1xVOcBEEQBEEQBOG6u2Y9E9eKLSWBnxf/jaPO4dRu210EEoIgCIIgCIJwg/xBeibSWDevHQlW7d0S0JKgpt/y106xPukEQRAEQRAEQbhe/mA9Ey3RBT9H484/MUUEEoIgCIIgCIJwQ/1BeiYEQRAEQRAEQahs/mA9E4IgCIIgCIIgVBYimBAEQRAEQRAEoVyuWjAxf+VWko6d8/1aEARBEARBEISb1FULJgRBEARBEARB+HMRwYQgCIIgCIIgCOUigglBEARBEARBEMpFBBOCIAiCIAiCIJSLCCYEQRAEQRAEQSgXEUwIwk0gf1M6vT/KZPTSAgp8FwrXlLQ7nPs+iCLTJfkuEv4QrGz6Lp3Gn2TxYZLvMkEQBOFKRDBxXWTz1fsZNP0os+ij+7V0TT7ZYmHDwkwemOH5+yzmpul8kwp/WlYSjsBF4MAJB4mSaNReNwfDmPB0MLNTJdJEsf8hySk2lmZLyIrKk8dKd14WBEEQiolgohKTlDyWzLYx6RwkiLueZWY/kMHLn2XwYZLBd9FNxkzXRlANaFnfQAtV9U0gXAOyxcybk4P5obOTA/+XSSO5cpe7nJ3D7B8yaLv0xjeYK9OxqVQNYkiEiiJLvNfA5Lv4uqlM9SMIglAWIpi4LiJ48IlokqdEkTxF5jlX6RodUqKdf+TLxEebWPpghPv3USRPiWR0rMs3ueBDueRitkPC5rvgJhTcLYa1U6KYO8TEjWsO/ZkY2PQvM383wudP5VT6QAIAm5N9mbBf8V1w/VWuY9NMtwkxHJ4cydRmvsuuo0pUP4IgCGUhgolKzJrqIheJEbeEEx8sqkoQKgv5YBD/WK2jw+R8Hqzq8F0sCIIgCH8akst65qrcUpu/civN6teiWYOavov+MOT0XJZtcDLzvMpOVcKslxhQ28QTvc3UNPsWkwvLnmze2wUL8iVygZbRep4fGEqnmMsNScrmq/ddTIoPwTXs8veQbatTaZtk4LWxMVe5J0LL+7t7JFZYtLH2Nc06Hu8dyoj63kGLbM/nwGob759UWeuSUGToHKnnSZ/tPLkglQ55ZhIHOPlpsYtP7RKD2ofxfmsLs39y8lKBTPemIXzUz4gJkPdn0Hi9zN8GxzAuN5X3dmrlmC1LjKxr4tlBZmKL7vZaWT0znzG6IJInhBJHcV1o65H4S98qPNPMUfTvyzPw49Qw2nsMB5Kz81i3xsEMj7q/t1kwD3cPIryCd53l1ByWbXLx40WVhKIy1DGhSwi31fec+6LtGzObhLGxo5X5y1x8ki1xStH2recGhdM5yjMvWvq3dMXbe6Su+Yr7VWnIKRm8MAcy20Qw4xY7ib/beO2sVjZVI/W8PcQ3L2UtQwcZ2/KYcUAtOn7ahOq4s4uZu5rofdICqBQcy+abLQrzcrQyiTXqeKBLMA+1Kh4q47s/FLvMPlSmfAMYSJgeQfdtMot/S2OI/vK3kgvX/1VR/Wv7+HP9zcQYPddfvI0/ZklcBGKNMKKJ2S8v2rkhmJ8eMxK71sLrh7Tj06yXuLttCM/dUlgm/vtIIL7lJSl2Tm3J48sDMNuh7bO3VjMyrX8oTcM8yu5CBtMWwFzJwGcTI+gdXFwW0v4Mxq2T2BZlZNW9odQ9kF6uY/NaCXSu8C2HYlo57mgXwYymefy03MUn7jpqGa3nH8PCae1RLgCSks/R9Ta+PawWlWHnSD2Te4fQrXrhebZ89VPWc0pZ8o3Hef/z0yq/Xab+KdfxIwjCzUbc7naT07P41ywHj5+Dnap2Yrc6VX45YeP1nU6f1E7O/pZJ700S37obQgAHMpxMmJXNB4d9kpealdUz04smWrdN0gMqL85OK9fk7cAcnFyQRYdNEt+5AwmAc1YX05Za2eUxeVe2ZPP51/mMOgZr3XM2ZAV2uLfzPz5PPgm3KXy5XAskAH45kM/7C7VAAmBjcgHrcz13OZWjmzPovbG4HGVFK/MJK+we6a4tOSWLd2bZmeRT91/st9LxJwupXP5Cf3nZfPGTk8c95r1oZejiyaW5/HTWfyJ94iUr02a7mJapNZpx71tj5+aS6M7f9aK35fPtzHxGnikum5Qs/7yUrQxVzi7J5tbteB0/e/Nc/GOlzWsfLEyftSaD7r+rvJNVXCZpdhdvr7dU6GEEZcu3+ze5elYsk2GQk75XCiQuZDDtB239xfWv7eMvbfU8r3hvY+FxmWbHnZc8zvjVvZOPv7Ew4GDx8Wl1qny1w8J/knzTloWV7bNzGbhbYrajeJ/dct7O7d9nszS1uLyV6tH8sx1EKE4eWmghx/29bMnmi82wTafn4yHh1JZujkblL0dzeGSOi5c96uhAhpM+C/N89hUb23+wMDRRC8bwOHfevjI/4H5VemU/p5Q+397n/d986r/FOu+BaeU5fgRBuPmIYMLNctDFTCTu6RzO3sna3ITDk4JZ0xmaGHzuxBzOZtoxHdmReubdGUnylCgOTQ5jY2+VUZLCG5ssnPFrEFUOzoRcxpyXKTDqebVviHtbwzk4Qs9/Yzy308nx5U7edko0rRHMqge0ORuHJwWzorFKGCofbczjiMd2muxOvrEY+Oy+SBZWc2GyO3k/x8DrY6JYH+8CnCRf8L7QLcpWqF3FyC/3RJA8JZKkYTBKUjlx1MYaZ9l3T6VV4dyUKPY00xprf+lbxWO+SRTJU0I97nza2LbcyQynzIMdQ9g+Sfv94XuNfFFVQc4q4It9Xn+izELDdbzVN4Ttkwr3K3NRGX6S6D9qPC5H4SeDgTcHhbF3chSHJ5n4OEzBZHeweK9nyvLNxSmL5Ycd/NMl82xPbV8pzouTTScK67KsZZjDuhMy1iADs4vmAgXaBzXy4QymJspkyxJPdilcfySJd5uYVQf8Og1Lraz5djupZ5ZRYlArB0G+yzxISi6zf4H5qkTH+kH8Nk47VwQ6r8gpmbydKJEt63jFXe9ameh4Uq8iZ9n5crdv4KKywQJtagWz8mHtHLSuiRNQef5k4X5VvI8cHq1yp6pypK7Z53iI8rrr7UywMTlDpmkNzzybWdtWpbPLxf0bLV6PH9Z3DWNODQVDho3nElyAg4O/O3nbKfNw7zD6R2m9qmU/Nq8tz/wc7lm6vxlmhVWSnlcGhbv3FZln9SpxOS62ZhWfr+T0fBZkyxypEsQm93F/aHIY24bq+SDcc41lrx/KcU4pbb7Bxrb5Dt52SjSvYii6vh2eFMrG3vBqkGc5lfP4EQThplP21tpNKiQEwoC9J22csGgNZMUYRPVOUTzZxXvYxekjKjskHe8MjaRFNS2tKuuJbRHNk40Uwqwu9maWp2jN9J0YU3QB0S64Eq+NjfW6sJR/GIuV9YdUcpH4zx0RjGlmxCQD6JBrhjH07uLhBbI9j9/PSuSajfxnRDA1zdr2KMYgag8I44tYLVjYccY7OOjf0kzPMIl67iEw7ZoGc2cVCDdp/y7wGa3VMd7MT2NCaBItAxJS3SiebKQATg4c97/DdrXJ2TZWZslUjTfz3C1GwtzDTpSoEHreruOvisqL5/wvzqUXwV0TI7i9mZEwo/aNYjRRtzUMVFU2OXwbiJBrNrB0fAR3NNBjkkExmunfU6KbqjL9QkXyUna5ZgNzx0fxUCttX1GMZrrWB1DJKXDftSxzGeqJCVIJsjvZeKxwh/DfBzUqxxMVdkgSj/SMZHKHwvVL6GLMtB0eyZC48g0BLHu+NdmndRyToG11/2WepEQHb7kkatUK5sshwdSPLPm8cmGfwjxJ4sGu4Yx117tWJuFMuQ36qiqvnvR/h0iHhma+vSOIWgbtHFS9k4GJigrlKxKggD1HFdKMBl4fYfbIs4lq3cJ5Ns5F1EWnz+OHDdS/I4iPQxRW77HwyyoLEy7K9G0dyjM3ckLzNVBg1DNjVCRjG2jnJiUqgttqKYCCzbOjKUyitgR1spxsOKcd46qsJ7xeGPfeEeI1zK7syn5OKW2+5RQrC7JlUsONvDc6rOj6phgNxLaI4u/9i8Pn8h4/giDcfMrT4r0pKe3D+bm2izOX7Iz4NoN+X+fw+fp8zvoNn83ndJoEuHjmB+/hR00/yqTXYR3g4sSlyli0Dk7mSJyPNNKzyhUuZpkKZyRoUMNIQ78hCgaaxKmAyrlcz0aFRN9m7qub+99jWl3u3i20rRfq9/Sh6nHaOn0Dj2vinIt5skTKcYtfXTb+XOVdWSIkw1Wh7nrlXA4Lf8xg3MfF7wppPFdiXgm9VxfjDDTzGHsOoNaR6aZQgUZi+VyMM/iNqQ7uoQW8RXdLy1yGIQwZKnOvovDBujwaf5LF3+fmsvm073BCgHyOZ8sosp4+LQOXV7mVOd8ayVm6fGgPUIA7moX57eO+8vNUQE+HBv7nDaWejo4KRFpc5HjlRWJkB7PXupUIiSsd2pdn41C2jMnu4E6P/VX75DI2TYesKJz3uVmiyiH0v01itOrk+WSV7EgjL3S/8Y99vdpOVzfSt6r3sRkb7F/gijGSyT2hj8PBtKXZtP80i5eX5JF40T9teZT1nFLafHMJ5kkSYxoGX3loWjmPH0EQbj7+V64/LQP1b49l511GPm0G3R1O/rvfRv/PMvlrgvfYZtsVzrGVXYEsYSrlnbEoz9jgegnUprxWXMVj9q8F6WA69y3Q5j8UjikuD8kJ7qkolU85ylCpHsUrk0NZ3V1meqTCzlQnDy7Opc2XeezN9z8tOfRcsUFeZuXId9lJmPSlO9YA9MG+31x/Bf43tktNcv/WYVXJsFXWHfb6UFtFM/MvwSxvJ/FgqMK6kw7unJdFh5+sAea/lN7VOqdcToTe/xj0c12OH0EQ/ghKccb4c1HiQujVN4pXHo7m8F0yT+pVft+Vz4qiicNm4iMUQM8njxQPSfL9PN7Yr0ujEtBRI0ilbpaTXQEabF6CZMJU2HHSHmD+h4NDqRIgUS+uAi2PgJwcPKECEjV97ojH5Kmc8ciKpOSzO7n0DbWAqsCdqkqT5qF+dVj4yRlnLuewBCd79qvskKB/85CisdPJHuOjS+2Aiy9liWEhV6i3G6GcZajKRmq0ieD+e6JZ/kgIKxqrGG0OHl/vOZjHSEywisnuZN+Z0m/70SyfAUHHbKy0+uzH5cx3eG0t2t1z4fK9buZwGVBZdSrfd5EfvVECnGw56L9PyCdd7JDBEqX3y8vVZ6BeuIo1yMjiqcVzCrw/4QyL9O4iky3ZfL4IfjQZWTpApVuBg6eXW/2GZf3ZKMZg6twaydRx0ayfFMTsKgqWjAI+3FHeeryK55RAwqCbqvLdaduV666cx48gCDef0l+db3InlmTwwfp8zud5XCQjTNwaqwIust3jwwHi68qE4eSZOdkknlcqdCfv6rGQtHAmj74+kyd/2lPCna8QWtZUkRUnU37OZvNphzvvKq50Cytn5RY9SUeJCKJHpEqY1c4zC/M5Z9U2UrZbSVqUzV/SdJyINjKwgo+steTZyHU/uEm2Wzn+Ww6PXtKRGm6gf63i8fThOi3fK7ZrQZqcmceKn/MZe5nhZPpgbXzwZ7syOZQd+IKmVDXRI0glKdnCe1vsZLi38+pwYLFpQVd8jJ4YI0iKk5yTucxfAcv9gjS3fIUM934oKU7SEjP4R4JELhITrjBsrDTkSxt5642vefjN+Xx1ouJPzSprGcopmXz4Uw6bTzuwu7tbVFlHrUaBxnzraVFHJgyVv/+WxZwke9FvZIuVpEVZXk8XwqTSQoU5R60k50pIipP0vRlMXqZNhPZU1nwXaeRkeoHK7/sNl3/pWn0dE1HZe9DC62tsHseQg/S9Gby3pbgLrk4DiRYqfL0pm9nHnO7j0kXBkUzeWQarJZkPmoYUr7s83DcIGpwpYHbRXBVfZtrXUjDb7Ly40MrJtJLSFZMUCyvnaROuX+gXQXzjKN6o7+Ls2Xye2hC4m7E0x6Yn2ZbID//7ioffnMOMIxXfZ681+WA6Ty3O87o+qHoDDRtACxVybQHKtVT1U85zSimpdQwM0kP4xXweWprPyQwt85LiJPdIFv9aWbzHl/v4ATI3zOaJ12YyaeauEq5VgiD8kYj3TLidXJDKoPOBnm8PSqSJTeM8J81Z2fRdPg/lBG7IpoYbvZ5lrz0TPvC6CZC+UFneMyGnruW1T09yWgIIp//kMYyO9v+NbMnm2x9cvOZ+5J8372e8Fz5D3rcRBqDIOt4dFckQ9zhcrfyK8+qb98IyKM37IBRZx7/vjOTOKsUXJ2dCBl13+Xerd4yWMaW7aNavqt8TT7TH/SrM9Buz672d0sF0HlgrsTnAdhLgGe9lcaW6934vxOWfOd+3dRgf9yhe15XWXdJ+lTznM949rI1fy2rek1kj472WQ/F7Jt6od+X3oVDGMixcd+Dx3RJTBkTyeGOPbxQLG3+wlXC8SV7Hh6Tk8vNnDl5yPzKzkCLrGBvi5GPJ5FUmZcl3MQNrpkUyaIPEl7+nMz7M/zjTqGRuyGDkPrnocZye+rYO5+MehYGQg5MLchh0PtA2Qsv6Zn7weLu57/FV7HLvsbGx47s8xuf4P9jAq37s2cye6eQlR+C8eO+zKikr0ul1WEeb5qHM7qPNkyiuB5m/9I30m4hd2mOzkHz0d56adRGLBIopninP9qJNhe7Ca+8decwSeBvxq5+SyzVQXVzp/Pbu6KgADw4oXf1c6bgPdE4pbb5Bez/IAxsIeEz4vsemfMdPDlu+/pmZ7utt7KC7ea1DxW+SCIJw45R8Jv2Tie8bwk8NJAZ7PK6xtlHH5A5mdtzj+/QNM93HhbG8ncpYg0qYx5IbRYnrxMjWBowqmOLjuSUq8F0iJSSC+yYGM78BXtvaMlrHe0OCvS7iSvVo3hir440olQ7uyXiKLDGitpFF4yOKAomrxawvXrdnIIH78ZPzm0Afdz5ijTqe7RnKj31dVPNKWUyJiWTaIJm/RarUvcyerjaPYeYY7+28WoJ7R7CkKfTWeZafgbl3G3jV/d3lKDJ0jNbx3pBwr0CiIpr3ak4Tg4qiD2dg21q+i8ulLGWoVI3ghT7e9aLIEv1j9Hx3d4RXIIF7cm+g462mWcdLPUO8GkKqHMbYO/Q8Ha4Q5i6/LjW0feqhAI3+suS7mIO+YwvoqUi8v8Lsu9CDRFSPaJYNkry21ayXGNMoiFdv8axPA/VGhrO2baBtDGWuRyBRfkF0HhXM5zWh62X2PcUYwdiJZr9zRCDS/kyePqQj12zk9d7FE6xUOYyxfVU6qtojpH3nwZT22CykNOzB/Y3cPTsFmZzILsWPbiC1RShrOsOEEIrOT57nN/9AglLXT0XPKVeitor2OyYKz/uJvbwb/eU7fsK5dWgj6riTn0y55LNcEIQ/GtEzIdwQJb+p+M+s5LuIQmWjvQW791qZT+Zn8mBVsQ9fa/L+X3h4USaqXIeH/t6PzhXqmRBurIss/3AJ87N1RPQdw5tdKziETxCEG6py394RBEGolBx0eyKfR40w6akI1l/pgQZCBbiwX0zk2/XpADjaNhGBxB+YbM/kxPpNLMvSocpR9GpVGfr2BUGoCNEzIdwQf7yeicvPZ/DlPd66tETPxB+NtDuc4Y8Fs6SXk+R/ZdBIviqnU6HIAb55dTsJsnbc2aPr89hDfehovLpDLIXrI3Pdj7ywsXACvYmag27jpQ7RPqkEQfijEbfTBEEQykltl8Pij/MZ28hFrIgjrhldaBRNB/TjnUd6i0DiD07R66hSuyHjH7tbBBKCcJMQPROCIAiCIAiCIJSL6JkQBEEQBEEQBKFcRDAhCIIgCIIgCEK5iGBCEARBEARBEIRyEcGEe75H0rFzvl9XeiLf15fI9/X3R867IAiCIPwZiGBCEARBEARBEIRyEcGEIAiCIAiCIAjlIoIJQRAEQRAEQRDKRQQTgiAIgiAIgiCUiwgmBEEQBEEQBEEoFxFMCIIgCIIgCIJQLiKYEARBEIQ/meQ5n/Ho6/OZm6HzXSRUAicXpNL0oyzmpon6ESo/EUwIgiAIgiAIglAuIpgQBEEQBEEQBKFcRDAhCIIgCIIgCEK5SC7rGdX3y/KYv3IrzerXolmDmr6LKr0/at5Fvq8vke/r74+cdzl1La99epK0PqP43y0F7PltHd8k5mF1AXG1GTd2AD0iFK/fKOkHWLD4AOsu2LAroA+Oos2A3tzfKgKjV0qQlAySN25mwfZUTtokVFlHSNXqDB/WnT5VgnxSA7jI3bOWT7ec5XSail0CKbIqA4f1YmRdc1GqzHU/8sLGIPpPHsPoaJfH7w/wzavb+a1lL2aNjPf4HuTcY6xetodFR3OxukAxmmnS9VYeurU2kXJ5LzGprPl4EV+FdeTDu6LYvXh70fqlyKoMuKMvo2qZvH4h555j64ZtLEvK4qxNAsAQG0PHW3tyT4AylDMPs3zVfpYW5dtIteZteGBAS+obffNtIWXXVr7ffJYj2Vq9GWKr0KVfD8Y1DHOnKWDnD9/y+cl6THhpIN0U33VQtF0/WRsx5dletFG1NNYTW/lxdRL7LoBdAn2wmfqd/cuwIvvVpos2rC5QZR1G2YXDGR6gnkvLyuqZ+Qw2mUm/Q2H3cjszzqvsVCVqmnU83ieMEfW0OigkZ1vZmWDn29MKvzm0ZW1CddzePphxrQxeaQHk9FyWbXAy071es15iQG0TT/Q2U9PsW7YOMrblMeOAyoJ8iVz3uu/sYuauJnptffYsPv5UYUr9EFzDvPedQnJKBi/MgQ2Nwlh/m5YnSbFzakseXx6A2R75vqdnKCPqe9+TLfx9ZpsIZtxiJ/F3G6+d1fJfNVLP20PC6RzlnXc5NZv5K1zMyYKdqoQiQ33glCLx2tgYRseWp34E4foRPROCIAjXkN56kO8/WMwn+9wNPoDUM3z75Vr2qsWNLenoCl75dAcrzmmBBIAzP5OdixYw+dfT2ItSAmSQ8M18/rchjZPuRrOkuLBeOMu3C/ZzRvJuxIGF5Dnf8+ySMxxN1wIJADUrhWXfb2KT7Ju+9OTUnXzw6XpmHdIa5ACy3cqRdSv561c7A+SlbIxZR/nkw1Ve61ezUlj23e8szfO8hKWy6rvf+XJ3dlEgAeBISydh0QLe2efwSAtydgLvfLyJuV75tnNpz3Y+2J7tlRbg1OI5vPzb6aJAAsCRdokNs7d4lJ+J2HAJyOV8RkmX12zSciXyq0ZQxx1IZK77kb/9mMSOi1ogAeDMLyzDbZzx2E8KlXa/ciX9ynT3flWYTlJcOJxFSdzSWDevNm98V+cyn9ls8anPqlYHr39fwKRzWkMY4JzVxXO/5bEy03PysJWVC/K555haFEgA7M1z8er6PN7Y45EUkNOz+NcsB497rNfqVPnlhI3Xd/pmXuXskmxu3Q7fugMJ3Ov+x0obu9x5Vow6YgwQku0iFf8yBSBbJRmJrtGFgYSFVd/nMnC3VBRI4F73tKXZPLbBNy8avS2fb2fmM/JMcf5TspyMnZtLoudxvz+DiXNcTMuUitLJCpzyjgcFoVIr6WwnCIIgXAU525JZZ4+kw+3D+eCFiXz6/ABGxrnQ5Z9i8ymtsSUpR/l54RkuSuHcMkZLN2P6RD6ZdAsD41wY9m7lx9TihpmcfpD15/Tk1W/HP599gBnTJ/LpC/fy7/tb0z9Wuwvryb51Me8eVnEFx9KzaP0TeP+hWxhSLwiD703eUstg86+72V8QRIOBg3jjeS0vH03tyz0NZIJS9vHD/oq1igw5uZywh9LyjuG88/wDfPr8KB5rLCEpmfyy9ZJXWiUikluH3sarz9xXVCavD44gRIXEvQfJ9Eibu+84yUjUGjimqLw/e/YOpg+uQl2db4EcYtNeFUd4I/7yrLbuksovNjIYKCA/390wPLOGF16byRsHtESSYsVql7BFRRGF1tPwyQY7qhxO93vv9Kib1rQ3qQSlJPL1nvziP+BWuv3qEPMXXSJDMtJ42O28466fz569i0nx3sFVeZltLua5ZB7vFcK+SdEcnmRmQQ0FWXHywR6bV1pTkI6Xu4Sw+YEIkqdEcWhyGJs7qXRU4eWkfHI80loOupiJxD2dw9k7OYrkKVEcnhTMms7QxG+HzWHdCRlrkIHZD2rrTp4SzsERev4b45lWT81glUibSpa7PZ+yIo3Gn+SS4HA3h6yQKEGtCC2YyF9r5bFcGSXSwC/3aOs+PCm0KN8rD+SzIte/KbX8sIN/umSe7RnC3slRHJ5k4uMwBZPdyaYThfWTw8+bYKMk80jXUPZNii5a/+wqojdC+OPwPwIEQRCEq8YRGc+jU0czqVUMBhlUfU26NwvShh2573RKx4+yxSYT0f82HmispQOQqjRj9OB4olQLSUc9mlphIURLKsEXz7DpggUAVTYSVas94+5sR233HW9NKpt2WoBwet9/B/cWrV+HsVozbh/Xg85e6UtPzk1my1kd9nbdeLZTNSL12np0EXXoM6oVHRWVnSfP+P6sTBRTFEMevpupLWMw61VUfTht72hNR0Wl4MRpUorulMfRb9yd3Ne2OnEmrQBV2UhM+0a0VlX0Vjt5HnfVw8KCATh3OJFD+Vp6xRhF7fZDeLJLRFE6TQiR4Qr6vPNsOZzr7iUKXH5hVcKBAi7maX8r/fgFMiXYc+QEAFJ6BuckidpRkQCc3XWC0xLUHzqc8fXDPOqmPY+OrUdVFQ4dPuXTM1XK/epQEqucMsYuA/lbm2jM7vpRjGZC3P9fLJZed55h2oTTl/mMpYvPvlJg1PPuqGimtDRiNKooRhMthur4q6Ky5rzDowfATLe7I7mng5Foc2H96InurKOvohLqVCjw6C0ICYEwYO9JGycshT0LQVTvFMWTXXwDZj0xQSpBdicbjxU2wnXINcMYencY7YvyHEz1KAWzTXX3XlhJPCchK042HdXyZM1QAInq0QqQx9qjMoqs57NR4TSJLtxPDER3juK/TVzIipOdx3zLEnLNBuaOj+KhVkZMslbmXesDqOQUuOsn0clbLol2zUJ5qr0Bo3tonWI0EOFXP4JQeYlgQhAE4Rqy1KhF+xDvu/MhPcYxY/pEnmuk3R3OvZCORYKc5XN49PWZXp+Hvz1FpgTH09OLfq8Y2/HAqDhibWks+/5nHn77Z15fvJXtaYGGXKRwOl3GVrUe/WMr1kvg53w6ybKEcfdq/3y/vZcdskTIxTSPBn/ZOcJq0N4n34qxOnWiFCSXy6uRLWceZuXceUx762uPvOwgIcAwLqXtbTzZAtSTB/nw3a+Y/NFiPt14lLMeQ1mK1WLY3U1oIOVx4JcFTH3zO/45awtrz1v8GvlEh1FHhYuX0oEcDh230rJhHBHJx9isSpBtIx2oViUGgJwcBxBFq4b+Y/iV2nHEqyrGrBy/MizNfpV+yQpAwzrVvdJdTTlBMp2qejd8FaOBxmYVg8+cETk9lxULM3lgRgZNP8p0fxTe0vmXudI+nJ9ruzhzyc6IbzPo93UOn6/P52zADpUQhgyVuVdR+GBdHo0/yeLvc3PZfNr/eKgeCuDkeKqMnG1nW66Bx6orvHhMC8rT8iVAT3ycArg4b5M4FamnfbDvsSNRvZrWhDqd6/93LsYZaB3mvf3BPWJInhLFM820jbCmusgFutfQAltB+KMSwYQgCMINZlf8G1NXoms2jDeeG8pz/RrQLjqflL1JfPnp9zz81a6AY+xdJh3GcvZAlEi5UUMxnDid3tsop27kjU+0ORBZAQMCXyE0GzGRjx/tyZgu0dS1pbF73UZee+trnk/wHBClUap05/nn7uTlOxrSrZqBtBPJzPp6Do+9t5oEe/GlVImLpaaqkpWTi2w/xoGzcTTsX5tOygX2ntSBw4ZFCic+xrNxasLgOzv8qtFh9Bu2FUj55kwEpmL32TXklEymzdbmQCS4SrMOA/Vvj2XnXUY+bQbdHU7+u99G/88y+WuCf+NdqR7FK5NDWd1dZnqkws5UJw8uzqXNl3nsdfc8AZjjtCFGGTkSHHHxcqyBh+pB0wsOElUJp10lNVyitkeROU0S/qHe1SJhEr0Qwh+cCCYEQRBusJgq2tOU6g2/3z0e3/8zZ1gd35+h6uOI79KDyQ/dzwfThjIpXkK+sI9Pd3mOsY8kLkzFfPYC2wvHhV9RDucyvdPm7jrMPt+GZGwkdVRQuwzzy2/hZ+Zf2lP1Kgcx8sXDbM2TsUeGF6377K4jHFcl1Madeb5oXsNEZkzvSNeAT1XSyDHx9Ot3O9OefoCPH21Fe5NK9ur1LLH6l5Uqh1O9ZXfuv/9uPnh+FNM6mtDnnebzVZ5DuapSJ0ahICcPx7FTbKpSgxaxTWlXr4DtyafcvQVhxERrwURwkAxcZFeyf2Amn0nluCSRXyXGZ+ha6YQEyYCL7Byfyee2RBJO+Q4Vunrk0wUssktkhegIR8v3hX0u5qsSTWsEs8o9Z0L7yDznKnnblLgQevWN4pWHozl8l8yTepXfdwWep6DKRmq0ieD+e6JZ/kgIKxqrGG0OHl9fUJyoCtypKmTkODl+RuGhWkbCWup41OZg0wk7x7NlsiJ0xKECMmFGaJDiYJffsaNy4aJWh/Gx5Qs19ME6QCUjx7vuZUs2qy6JN18Lfxy+R4cgCIJwvTWoS0dUjv+2iK8Pp5Nf+EifEsiHfmf6/K3suGTDUXiDW46gcZMoQlSw2jwH39SiRQMZSbnIrC9WsPZ8TtFvlMzjrPphPds8ggStAQpJO/ZyySkhOXM4sX4e/7c0B/fQ9SJKXEPahrtg23Le3XaR1ALfoSAVJ9vtpOZZ3cOJXFjObuXLn06SIulo075R0eNerflairAqVail1xrR9otJrJybyE7fIAg4sngW7288yklbcUNbHxZPh9oq4CLf44lQcmoCH3+zgbXnM7G6e0RUOYSaLapRRwWrzaOxShwxMS5MGWksS8wgtHF9aqtGOjWLQZ94kKVpBTjCw6nmXn39prUIUeH4kkV8fyLXXTcurMc28MFsbTt7tW3ssf7SC6pbhaoqHFv5O6syte2yHtvABx9uY2uB7+W/fHMmQuwqF4qG+biwnczm82USqyWZN5sFF93Rt+Zrv6sVpSfWHeQo53JZsdDJtwGGOZ1YksEH6/M5n+fR0I4wcWusth3Z7nkHuHs9Pvwph82nHdjdx44q66jVCAaqKpuKDhJQ42QaKHAsNY9Vl/R0b2BCMYbStYqLWYn5nCiQGBZW2JAP5daa2mTyqXNzOJShrUe2F3BmTRZPH9JRYDQwuKl/IFgaxpoqfVWVT7fnsCEdwEXBkUze+d7F2z49b94sJC3UhvE9tvQ42gAtQbhxxHsm/sB5F/m+vkS+r78/ct4L3wewr0VPv/cyBJK5aTYvr8kvejSoN+/3AchJC3l4fpZvInDfPR/wiPe7A2RbIt99spUNAe62Q02vdyLI2Qm882EyyT6PznSGRtFASmdv7d5e2yMf+pXn56WRWcKVJP6uSUVj+MtGex/DbK/HixZTmvfkfyPjCXH/W05ayFPzsvwCnkIFsS3456Odi+7wJ8/5jHcPBx5bZKvamlcndShKW1iXpwOu20Szu8fyZIPiss1a8y3TNiuAiVsfnMB91Z3IuZt5591DJMsSljrteH9CG6LA/djeubx7OHAB6tr05K1hHttZpv0qgy1fz2fmee9eCEUfRdd4K1sPmyr8nonHLIH2KWhUx8zc4aaiYELan8GodRKJAcsQUsONJE8IdfcIwMkFqQzyyXchJdLEpnEhRWkL3+0wL0DQCBJTBkTyeFE8ZmH1lzYes8lYg4ys+ksojVQVZ0IGLXdpv7+jcxRvdtJSy5ZsPi+hca/IEk/0jmRqs+LvCvPyRr2S32VRzMaO7/IYn+O9jyuyjheqOXnzvFzCeyaOMufN9axyyoCONuMeYHI9/6FfgnC9BD4LCIIgCNdVVLexvDGuGR2r6TFe4cysNunLK4Pr0DBGovDdaorRSLVmbXn8idF+jUMlqAXjHx/Oo+0iqBVU3GjVV6/O8PHdvF6upkR0ZerY+jQK0+7CKnodVdp2419TutElwNhupckwXn+kIwNqBmEO3O6/qgyxMXS9fSQfegQSAEqz4Tw3KJp67u1TZR2RtRsy9qFBjKvh39BqPmgoD/mUhy40iqYD+vHug8WBBIAS14Mpoxt41Y2i11GldkPGP3a3VyABEB0RqqUx1aRNDa0ulLCWdKml/b8hNtYdSACE0HTMaF7sF0O9kOL1SJHadv7PI5Aou2i6ThjMvfWNGGWtTMIbNOeJqSMZUcW/Lq+GNqE6XuoZymKPQAJAbRXB551Vxrof66rIcGusni9HBPNluH+PVnzfEH5qIDHY4zGwtY06Jncws+Oe4kACQKkawQt9ZP4WqVK3sH5kif4xer67O8IjkAAwEROq/bZeLSON3PVsbC4zUVEBiQYxxUGMEhLBpPEmPq8JXd1zTwrz/v/t3Xd8FGX+wPHPzG42ddNDLxIkEFApIoIUEdGzYEMQBTlBBeFs97uzwNnuTvE4787GISiiYEGQIieCBaRJEUE6IZTQe3rZTbLZnfn9MZvN7iaBZEMige/79drXC2aenXz3eZ7ZfZ55nmfm8/uifDoS1RdCtyFhfNhQo6VqHLd7EwtfPxjFA1H+HQhvl3PvbXGE6wAuDp4u/1wUIeqSjEzU49gl7rolcde9+hy7qCljZOIT01U+IwriQmGMTAw2hfiMKIi6oWjbmTHhV9arCsn3j+Lp1oGM/glxfpzj+pcQQgghhLhQOItPsXXRDtarCq7QRPomlh95E6IuSWdCCCFELdvJzFe9n/1w9tef1no/C1kIUSp17gc88e/vmLKzBF0Np8s93emoyKiQ+G1JZ0IIIYQQop4oWx81hLGtKr6JgBB1SdZM1OPYJe66JXHXvfocuxBCCHEpkJEJIYQQQgghRECkMyGEEEIIIYQIiHQmhBBCCCGEEAGRzoQQQgghhBAiINKZEEIIIYQQQgREOhNCCCGEEEKIgEhnQgghhBBCCBEQ6UwIIYQQQgghAiKdCSGEEBe4dH6a9iGP/WMW7+xz+O8U4pJTuDaTvpOzGbSkmGL/nULUMelMCCGEuKCp6bv46bQZRXOwfucx/92iluTt/JF/T53JU6/NYMwE43X/Vwf8k4k6Z2f9PjgF7DxYwi5F8U8gaoFqs/HTwmxGTs2i3eRs9yuHeRkm/6SXHOlMCCGEuKBpCR3o3dCJrlrocUUz/92iFmhbF/DiwqPsz9RxSFv1AhNGjzbQCLiiVRAddN0/gTjPFK2AxXOKGHUc1rvkhPAnnQkhhBAXuAR6j3qU98cP5ek2Fv+d4rxLZ9W6bBxKOJ3uu5dJ40cw9QXjNfueRP/E4jcQ2jOOlY/HMO+2YIL9d4rzTtnl4OVClcTYYJY8HEXq4zHuVzSD4l3+yS850pkQQgghhJfTHMlUsbVIYkgbK0HSUhCXOHu6i3wU7r42ksRQOSH8KS770fMyPrZg2QaSWzUjuXVT/10XvPoau8RdtyTuulefY1fTV/La+4fIuGEgb11bzNZvVzFzVwF2F5DQnGFDbqJ3lObzHi1zJ18t2smqk0U4NDCHxtDxpr48dGUU/tfjFS2L1DXr+GpjOoeKFHTVRHjDxtwxoBc3NAjxSw3gIn/rSt7/+RhHMoypK0p0Q24ecD33tAzzpMpeNYvxa0LoP3Ywg2K9r7jtZOarG/n2iuvLXZ1W89NY/v1Wvt6fj90FmiWMtj2u45HrmhOtBv4To+5eyOgFOT7bEu8bxXNtSny2lea1echQ7tm7gElbirBbW/DI2P602/AFr6wpxB4Wz6AH7+KWuNLP5CI3dR1z1x5m+xknDg00i4Umrdsz6HdduCLct2wULY8Da5bz+cZsjhWVn+ZQHN+Bv4/pRnP3lBNFyyPtl1V8uTbDUz5Rrdry+zu6lzt2ddR2vTJUXtaBy+Wjd12MSgxHu03hyCobE/borHQpxIaZeO4GK3df5puvam4Bq1aUMPWEzq+6QphZYWhyKKN7hRBZrl6VkPVLAVN36nxVqJAPdIwwcW/3MO5ra/ZLC6BTnJbLzJ815ucpHNYg3mJiZPdQHrkyyJNK3ZFF0mqFR/s14Jlk73pnZ/mMQgabQkgdHkECZfEomoPDPxcwfSfMKVHQVLiukYVx/SNoZ/WPuzqMPHzDVJZP+1qG4RrgPzZhxHZTfATa5QX833KFbxSVp/pG81R0NhMW6nyMytBrI/hrl7K8UdPz+H6ti1mndNa7jLi7RZsY3j2c37Uqvy5ATc/lix9cfOTOP3++eebCtjWXdzbjKZ8rYs08f3ME18SVP5+qrrbrlaFoeTqddgfx2pA4GYmogHSvhBCiFpntKXw2aRFTtrsbfADpR/lk+kq26WU/csr+pfzt/U0sPW40+ACchdn8+vVXjP3mCL73MMpi/cwFvPWT0VAFUDQX9pPH+OSrHRwttyDTRurcz3h2se8ceD3nNN9/tpa1qn/6qlPTf2XS+6uZvcfoSACoDjv7Vi3jjx/9WkEstadg/WKmbinCoYC54AhLFyzitVWFRgO6IIMvfzniSavuXsTz89PYdMroSACoDgendm/lrRnrSfUqG7Cxe/5X/POnnAo7EuWls/6zhbzxY6ZP+eSlpTDp3XnMyyrfMKuu812v1N0LPYusx0zYxHpVITpltde2GYyZsMATu5rxHdM+ac7ET1tU+vrrj/s8cXhoTtZ8ns9NKbDSPfc8y+7iuW8LWJZdli/q6RzenO1g1HH41f157E6dD3fY6fqFjXS8y0Hn2OJcrtsIn7gbqgDbCly8vKyIzeXqoE7Oiix6fafzZk5ZQzjD4eJfq201XFBrZ+OcfG7eojCnxPi7qgY/n3Bw52e5LEmvybGrJzq7mNdXKSzRFVRN589b85j8tc5Mzfj/zF+LvBZv5/LhF06e9FoToGqwKcvF00vy+eKYb9zqySzGzXXxilf+Vc7JsW+z6btW8SmfnVlOhs/OZdJev+SBOO/1ys7yGZmehdaddpsBnRfnZHgtvs7G9I3cSwvpTAghRO3K+yWVVY5orr7zDiaNH8H7z9/EPQkuTIWHWXfY+JFTtP18ufAop5RIrh1spJv6wgimjLqWmxNcBG3bwCyvRoiamcLq42YKWnXm78+OZOoLI3h//FD+8dBV9I8vfxXWsWERb+/VcYXG08dz/OG8+8i13HZZCEEVX4yrgizWfbOFHcUhtL75FiY+b8Qy+Yl+PNBaJeT0dj7fcc6WRqW05Ls9c/U/GBjtv7ucM0dzcV57K1NGtaKhDifS0snv0Ie3nrmCqzQd7fhpTnsaT2bikpN5dNT9nvye/EQfBiS4CMrZywp32QCopzbwxR4dR2xzhj/2oBHPs3cxrqtxRTiq30A+fuwaz6iEY8OPzDiqoSd14s9PPWSUz/MDefHGaCJceSz4McWvc1h9tVGv6kKbow5GFph48KpwNo6KZc/YcL5qoqFqTpbuL+0VFfHLD06mOlUe7mqkS308hr1DLXzYUEPNKebD7d5HzWPVQRV7SBBzPPPZI0m528x/4spXbnVvFk/sUslVFZ7uXnr8aHbdH8zsFhBW/i1V5lxfxNgslXZNQvh2WLQR96gwVnbS6eZy8dAaWw1u5RrFw08ZeZH6uMpzrrMHmpDn4r+WYBaPDua9EI1WWS7eUC3MedjKl7Eugh0aB7PLmoERkSbe6BfOxlHGeoC9o8JYmqRjRWfKriKvIztJWaOxQFc95Wjkt4mnzTrFliBmj471jEqoe3MZl2YiN9rM/HuNPNkz1sqavjoDFY2Ja201vuhQO/VKVJV0JoQQohaVRCcy5olBjLoyjiAVdHNTeiWHGNOO3FculQP7+blIJar/7xiZZKQDUBokM+jWRGJ0G7v355Ud1BpOrKITeuooa0/aANBVCzHNujDs3s6eRq0hnbW/2oBI+j50F0M9xzdhaZTMncN60y3Au8Go+an8fMyEo3NPnr2mEdFm4zimqBbcMPBKumo6vx466v+2WqMFN+X+vo1RGsSRqOvoaiMGDbic0OAQwgHF5fI04rXkAUwYeC1dG4R48tsUlUjPtqE+ZQNAdh6nFWjatSc93Z01zRJDqxs70FXTOXwqoywteWxOKUALTuTRQZ1pYzWOo5sjadb9Voa2KsG6/zhba9h4Ot/1yrvjNvWFrvTQdHLa9/HaNoKpLwz0TH3T4m9h1O+PMm74kUpff72xTVnAbsUWM+/cGc2LvS1YLTq6aqFDW7AC+UXGsdXcIpblqDRMDOO5a410AFpMOH3uNPFHTefF496NWzNxITohDidr0kobjibUplZuv99KF5/6rXNgl8YmReGxPtGMvbr0+AqmuDA63RHNbQmBTmMpZut+jQxLEBPuDqNVtFEOmiWYRj0jeTbBRcwpZx3eylXh/7pH0DoojMRYo1P/2DURdAw1ExmiAxpFztK0Udw3Ioo7ky1Y3XPfNEswLa+Cm3WdtSXeFwUcnLApOM1m7ukT7M4/E2rTSB5o7SLY4WR/blnz8sg+nU2KiTdvj6ZDI/f5oJqJ7xDL0200rHYX27w6NYE4//UqjH4j4jwLrbcmOwGF14bEey2+jqlgitmlqWalJ4QQ4qxsTZrRxW+OfHjvYUx9YYRn7n/+yUxsCuT9MNdvWskMRn9ymGwFDmRmet6vWTozcmAC8UUZfP/Zl4z+15dMWLSBjRmeloEXYzFtUcPL6B8f+ChBhU5kkqoqWLYsLx/3v7axSVUIP5XhNRpQu/Jat6ZHUNlnzG2XxM1e//dl4/Tm5eWeozB+TQVjBkEhhOtwfNMGfsk18lh1ZJPy7XY2qQpRkZFeiU9y4LgJtfgA01//2C9fvmDaoSAULYfDNWw81Ua9qgt5ISpdm/rWB619HBsfj+G93u5RkuMu5qsKpw/YfKaUtJucTdI0nbdVhfAsl9eUlHBuu11lqKYxaVUBSVNy+Mu8fNYdqeh8KORAroqmmrnhivNdL4vYk6sS7Cjh3ve8n0WQTbvJ+QzJMKFqGidqWPZVZ6Zfe+//B3Fz58o/s3Y8j4WzshjmFXvSPIX55c5fE5EmHbPTyfyfi3E4FMCFfiiHGWkmwERcdGkHrpAjGcb+Zz73nSLUbnI21+81AS4OnqlZntROvRJVVbPSE0IIUWMOrfo/XqbkAUx87naeu7E1nWMLOb1tN9Pf/4zRH23mqM98f4Mr2IQlwBGISmmBXsH9rRWzf+FcXvn2SJWeo6Bd3psRrTUsWQf56L+fuTtL/+Od7U5coU0Y0buBV+oSSs5zNgcqkHpVVQGvmagKV9m8+qrSGsfwt7ERLO+l8kK0xq/pTh5elE/H6QVsKyzf1CkxUyu3VC2urO96gVNSMvn9Vy7GZSuetQSVC6bb9Qq36xqzNtm4aloW7SbnkbxYZ6pTod9VodxgLs0InaIL5HwIpF6Jqil/hgkhhKhTcQ2Muylddocxv76i19wBLfzfhm5OILF7b8Y+8hCTxt3OqEQF9eR23t9c6JUqmgSrTtixk2wsqepXfh7H/a6e5m/ey3b/K5Tx0bTQQe8+oFy8pa8Zj3ah4fnuxNSQ6khh5Q4dXY2k11Df5yj8o1f5+xup6Vv49qBCUHw0zULcUyPMJhJat+fpx26hh8W7BdmQFnEaJZHJPP2isYak/Gsgg6NrvyMWaL36zTWAe3Wdtu0jfKaUeL/yhoX53EEJ91S/Jh2jeOiBWH54LJylSTqWohKeXO29SsFCXKhOsMPJ9qNVPR9gf47fSoe0IpbZ/RvdQVwWqWMPsbDoidK1Df6vSAbUQdlXj5OtO3Q2KdC/fThr3WsmUh+PYe8gnXvLnb9O0rbqLDKp3BGj09Kdjc0tJp7tE8F7vb3XbYWRGKUBZqY8VjZtyP/1ZJLvHdpqRYD1Spxb1c8kIYQQtaN1S7qic+Dbr/l4byaF57hUru75jhcWbGDTmSI8U5nVKJLaxhCug73Ie6pOMzq0VlG0U8z+cCkrT+R53qNlH+DHz1fzi1cnITzE+FnYvWkbZ5wKijOPg6vn89cledj8wtISLqdTpAt++YG3fzlFen25LJtvI0tR0IOsNIqPIEg1pi0d3bycj7eUXx6bmXKEA3oE1956M089NoRJ40fwwfPDefX+bhXc5jWBK9tYCMrbzZS5W9ifVVjjxdYBq2a9qo5A10xUhdYwmN4hOrtTbbzzs4Msu38e+1JPZ/PfL/JYd6TEPeUGdNVEszYVzfc306GFihWdv3ybw9zdDs97VJud3V/n+N5xKVingw5z99tJzVdQNCeZ27IY+z0sKHcFP4wuzTTCihy8uNDOoYwLrdNQmRJsRQqgkBhnJs4CiuYk71A+C5bCD/4XEbCx4pBKTKMQ/jLAyvyHjEXvS0dF+txWt1RiSxUrTp6Zm8uuE9pvNnpT3XoVOBu7FxrTCf+w5ADGqraLmzxnoh7HLnHXLYm77tXn2EufB7C9Q58q3as/e+0cXllRWMmUm0if5z5U9PyFUroayU2P+T4jQi3axadTNvCTvaLrR00Z/tLN9NSMnwI1dz1v/jeVVL95w86IGFormWxr3tfn86h7vuH5+RlkV/JLUtFzIaomnRXvfc0cr9s6+gvrO5A3e0ZWkNf+z0kw/r+ywRXuZ0GcOeexveMu3jiXp3+ouElgDo3h8l7XMqpbI8Ld21THHmZPXsvyCvMbctpXrU5UpPxnPbvq1Ksy/vl3PhjPA3g2JrjccxkqoqRkMnKlwrpyDXaD9zMM1NNZjJ9LBXP7ARQevymaJ5O8tmg21nxexCN5FZWP4vMsAUXL58sPSnjJfbvRUppqYki4k/cU38+jOnKZM8PJS5WMAlb8XIiqMZ51UP5ubaXSIy3uWGwsn1HIH2zBzHrCWIB+6Kt0bjkR6vf/sucmnOvYvnHn8/VUB8+5yn9GTYVesWbG3BxJt5jSMraz9tPCSvLbO+6z14mK1V698la950zsZ+4/V/OjUwVMdBw2krGXVbR+5+JRcckKIYSoUzE9hzBxWDJdG5mxnOObWW/bj7/d2oLL4xTcNyRBs1holNyJJ58aVK5xqIV04MEn72BM5yjPNB0Ac+PG3PFgT09HAkCL6sETQ1rRxmpctdPMJhp06snrj/eku/tuTd60tgOY8FhXbmoaQljlbfMLTAI3Du/N7U2DPXltDo2h/fW9+OfgxoT7fcyQq3twp9XI0+DIIJ/ycRZmk7r0O8atKLujk2Zpy5AK8vu3UJ16dSHR28cxY7CJiTE6Vytnz0OtYRTjb1D5U3TZlBtNVegfZ+bT+6N8OhIAuhpOr2FWfuisMyRIx+re3jTMxEt9wn0ai7pqZchdZv4cqWF1N5a7N7Hw9YNRPOKuE940SxRDRoSxoDXcGvg9l+tcaN8oFreDviYjZk1VuLt5EPPuD+JV97YyVm7tBq2AMLNCD6/PqWqwLsPJg7PzWO/pUIVVmN+/herUq8Bdzr23xbm/R1wcPJ3rn+CiIyMT9Th2ibtuSdx1rz7HLi4Wxexf+AX/3hVJn9EDGZrgvc9F8ebF/GVJFlkJvk/AFuJipZ7OZtx8nV+ahrHgjlCfp0arDjuLZxXyfza10qv8lwJF286MCb+yXlVIvn8UT7e+uPOhHl2nEEIIIeraPtbuMBpLhbYc7M6y6RHOwgz2pOVjU6CwQZx0JMQlwb7LyQJdQXXqFNjLpu+ojhJyDzvYWmysv7gsobbWJFzYnMWn2LpoB+tVBVdoIn0TL+4pTsjIhKG+xi5x1y2Ju+7V59iFN2MO/nq14nnK/krXQlwYsvj54wXMOFH5fHJXaDz3PnQXt8SVn/ZyNqlzP+DtveXvHlWR4ngZ+biYGGsWKq9T3mq2puD8U/dmMvQHlU1nOZ27JIXz8U2Wat1+91zrNnwFedZ/XEi8z2ldDafT/XcxtlXVzvH6TEYmhBBCiErF0mP4XTzRO56WVtWzRgXAFBFD2x7XMeGpO6rdkRCivtKSYvnwLmPdQQ+v9RSl61TeuS2SWdXsSFxMytavDbkkOhLIyIShvsYucdctibvu1efYhRBCiEuBjEwIIYQQQgghAiKdCSGEEEIIIURApDMhhBBCCCGECIh0JoQQQgghhBABkc6EEEIIIYQQIiDSmRBCCCGEEEIERDoTQgghhBBCiIBIZ0IIIYQQQggREOlMCCGEEEIIIQIinQkhhBBCCCFqSLWF8t9n4vkh2+y/66KmuOxHdf+NgViwbAPJrZqR3Lqp/64LXn2NXeKuWxJ33avPsVdX9qpZjF/j8NoSSf+xgxkU6/LaVmonM1/dyHpV8WzJad+H2fck+qS60Ki7FzJ6QQ6J943iuTYl/rvPStGy2PLdKr7ZncOxorLPHcixxIVP3ZFF0uqycgZ4tF8DnkmuqKztLJ9RyB9sZddH0yMtpA6PIIHz0sSpJbl89K6LUYnhuAYE++88Bx3btmze3qKw1Aan3Fv3tQwL4FjifFFPhPHS/0XwmkljxfQs+oRq/kkuSjIyIYQQ4gJnY/uceUzdkuvTkRDiUqVuzuL2NQqfenUkxG9Pa2Ln1bdsPHFS5Ya/xbBPuzS+r6QzIYQQF4CY64cy9YURTH1hBP/oZfHf7ecKHnpppDt9V3poF/LV15pT0zeyKM1CSXQiDz/xoCefpr4wQkYlLlLalbGkPh5D6uMx7O1zrvodRr8Rce70wbwXfrFfDbazbDucQuGZfla2jTXyKfXxGBmVuABoTWz8+y8O2q42M+q7CP/dFyXpTAghhLiwZeRwRIHG3bvRLerSmossRHklHMpTOBgbzH3JZoKlJXfBCbrJzptdNX56K5Rviy7+Arr4P6EQQvxGtMwUls2bz7g3PmbMhBk89o9P+dNH37P4sN0/aa2zH9zAh9Nn8NRrMxgzYQZPvPkl/1lzjBzPMHwxv34+jTETlrLWay2Gr3RWvDed0f9ezTalsjRVYz+4mvf/O5MxE2Yw+p+f8vLifZw+x5SAyEir/yYA1Nz1vPHaDB6ZvIEDFcSl7vuOP782g4eXHPHfVUU7mfnqx9z/1QEULY+DqxfysrtM/zDpWxYcK/Z/A4qWx4GfFzHxP2Vl/9zsX9jpNa/fm+PUZubPmM1T/ygrn7eWH640T9T8NFZ61a3SPDzj9E5fFre/7FWzGDNhAfOyTD7bqxt3dai5drZ8l8P/fZBFu8nZtJuczZCZeXy+o+5Hl9T0XBbOyuJ3U4w4uryfw/NLCsl0lOXf6aUZtJucw7wM3zzyduirdNpNzmdpfs3yR80tYNm8TE88g77I55fsisu+lNOqEum/EYAi1n6aSbvJOcw6Ub7zrWh5zJ2aRatpBezSz/43KlO0PN2TN2p6LnM+z6Lv5GySpmTzxyWFZJSrty5sW7N4/aMsrnGX/aAv8tmYWfGok5qZz9KF2Qx7z6grpeVz3O5/XIPqKCTlu2xP3Uqaks2Ir2yk5nunt7N8RiZxn9pIx/c46g7jff/eHeSznQrqSq9peUw/Z511cNsDDtraFF78/uIfnahZ7RdCCFGJnXz63gbm7cknp8T44VI0F/aTJ1n02WI+OVn+R762ZK+axZ9m7WbTKShtKzkL7exbtYw/fvQLR3UFCCY+UgHyOZFV2U9DLhn5CoUNo2ihV9wIqArbT18y7vMDbMk1jqE6XZzZupbx3x/zpEmd+wFjJhgN69ELcgA48OU0z7YxE2Yw8v2NHFUUtKgu3NraQVDOEVafKR/73t3HsCnh9Lmmlf+ualG0DJZP/5J//pTDGXeZanmn+f7T71hS4P1301n/2ULe+DGTQ+41HormIi8thUnvzivXgFf3f8f4D7ez9HgRDvcMHWehnT3rVzAzrXw9Uc+sYuKk1cz2qluleThxQ65/8mqoetxqxndM+6Q5Ez9tUenrrz/u8zq2nWVfFfJAms637pgBthW4eHV1ARO3eiWtZcqOLIbO0RiXrXDYnd92p87/DhbRdWY+2wqNsoyLUAGdk5WeD8VkFCgUWxSaRAZ+PkRnF/HyZw6eOK164tmZ5WTIvHxPY7+0sWu8NN4wKbQ5bPfalu3V8QmhdwewovO/vUW+fwxQ9pYw26nQrU0IHZTA4wbQUrIYMdfFKzkKpwBVg+8OFjF8qffNJJwc+zabvmsVPilUyHdv3ZnlZPjsXCbt9UoKqJk5vD67hCePw6/uz19aPhN+dfomBlRbLtM+LmRgGp66pWrw8wkHHVaV//zVsjeTx+a6fOpKhsPFv1YXcPuSYspfRiijdyvmaZPO1p+COF7BRY6LSWVniBBCiBoKiW/CrYMH8NazxvqG958fyLiuwYCNlVsP+yevFWr6Sqb85EBXI+k19F4mjR/B1BeG8+4jV9ElWCfk9C4+3loIQHx0KFBMYaH7B/noCsa/NoOJO40Gh6LZsTsUimJiiPH5K9Vz+mQuJa3a86R7/cOUka1IVHQsm3fwgzOQn6VgOnZtQbhuY/320z57FG0na3aYKGycxF0JFd0Zq+qiUlOYnRFGi779mfj8SN4fP5A/JCkoWjbr9pSNNjk2/MiMoxp6Uif+/NRDnrJ/8cZoIlx5LPgxBe+m1t6dh7EpwXQbOpR33WtB/vvMLTx5bSRN/Rp7irafOZ+kcUBXCOt4jef4Hzx7Fy/c2oCWpsAbh9WNu7qCQ0y80j2cdSOjSH08hj1jray7RqerDq/sLiTP/w21QHXk8uE62KQojOgRwfZRsaQ+Hs2u+y28adUIdpTw/BqjAWqJ0rECNrvRgFUdOUydlMWQlaUNWid5DoXMMJUGgWc7CXkaMy1B/PMWY/3D3lHBvOeOZdE2/9RVo3cK4jmTzvq0Yvb5NGR1DuzW2KWYGN6ppusrdF7eobHTGsRng6KN9S13wEBFJ/VIMbvcf1fdm8u4NBO50Wbm32uk2zPWypq+OgMVjYlrbRz1itGW4mIGCg90i/SsB9k7KpQV3aBtkH9GF/HLghL+5VRo3yDIc/y9oyJY0xdeDfFPX3WKls/c5Qo/Kmae6RfujiWalIFm/hapkXawkPkVjPyU0k0lXHObhnm9iW1eHeiLUSDf2kIIIc7pCoaM/R13JcUTajF+0HRzJIldGtNCB3vR2a5pnT/HNh/kiAKtbr+DB1tZCVIBTFgadWHMkMtoqMOevYdxANYGkUAxpwqMH77MAyfJVmDrvoMAKJlZHFcUmsdE+/6Ragrt3I9/D+tGB/f6B6XJ9Tx4NcApdh82rn63Gzzas8j6g4HG30u8b5TP4uuPH7uG5u4REr11K7oHaehbUnymYCl79vMzCsldr6pRBwhAC47h5keH8peezYg26+hqJJ2uigXAXlTazM5jc0oBWnAijw7qTBurEYtujqRZ91sZ2qoE6/7jbPWKMTo8DChm567D5LinKZmDG9Gh/0CGXe57JVbZs5Mfi1W0dr14dUAHz/E1SwzNu9zG092jfNJXXfXi1uJvYdTvjzJu+JFKX3+9sY3X8cPoeX80D1xtITbMaHroqpnYbib6aToRTo1iv6kntWK7k385FTq2D2dclyAsFh1QMMWFM+BeE39EJ+VIidEAb6hys65zJN9dBns0pqsKy44Wu6fJODlkU7BFmWp0C9r8sCCWPBjFXa2N9Q+aJYz+fRR66jovnDQ6Nt4L0lMfV3nOpbOvZZjXNqOhOyje6DDrqpXrmmqEFZWwIq1sREnR8lh+3MS+xhZuiq5Z5xqga2IYy4ZF0rWhu160CGFAuE6wA89V+yP7dDYpJt68PZoOjdz1SjUT3yGWp9toWO0utmWXNUfDw8EKbDtUxEFbaf0OofE1MTzd3bfxrp6281WuSnqkhXcGWT3H1yxBxHeI4S/9Q3zSV4ey38Fsp8KtXaw8mmxxr01RUBtbeaC3Qk9dY/Xhs3WvXUQ1MurFyZw6qNu/IelMCCFELSmdB/+niWVTc0Z/cIgjdfi7kpdXAsRw5eXlr0JqzRNI1HUsOXmcVhSItdJCh1NnMoE89hywc8XlCUSlprFOVyC3iEygUYM4/0NVS+M2rQn329asidEoLw7wRjy62pYbugShFh9m3cHSxlMx27aeQVcb0b195fPeq6rE2oRuDXwLT2t7B1NfGMGbPUtnr5/kwHETavEBpr9urDsoe33BtENBKFoOh70aTwk33sSQBk7s29by8j8/5omPljBn60lPx8Jb5hljBKRDp+RyeVgz1Y+7ukrnwY+cWn7KTl2x52mAwo0tQ/13oYVbSArXCSvSyQe0OJXWGryfa3QmjhzRaN1EZUyug1UZKmquzhkFHqvhTQFOJQSR7Pc8Ar2FSk8NCLi9r9C8o0I/XeOzfcbII4Cy1ckUReG1y0Mp/41QfZ0uiyBS9e5IhXLdQ3GkPh5BF10HCjmSoQAunvk8w29aVjbX7zUBLg56TU/UukTyZXMXR884uPuTLG78OI9pqws5VtEyhTMwX1EYfHkozWs4Zcuf7TTsUuD7TTnl4k5arLBWUZiWU1FQZRrGBviFVs8E/q0ghBCiUuqebzzz4O0BNwjOl2CCznW3WUBLiKeprpOTl4/qSGPnsQQu79+ca7STbDtkgpIibEokiXG18ANZUvNMatDtchJ1FxtTjAXHqiOFDQeCKOnYnr7mWoi5QiWUVLNNo6uNuGHUo/xn5DXce0U0sRmnWbH4e57/1+e8s6+iK58mLDWYzlSx6sVd3TUT6ulsxs0x5sGvd9Vd56Ey1iqcDxDEZZE65nyNPArYeVylX8dQeodo/JTmhCKNfAUS4wO/+l0ZxVm2vilQWotwhkXpHD1S7F574SQlTSfDEsSdV/qnri06RdWoV4YgWt0Zz6/3WXg/GXqVOPnPjiL6f5DNH9eXXzMBEGU+/81ZpaTm3xmFNVyyUV+c/9wXQohLXjEbN53EpkBc9/783b1mYuoLI/hg9GW0qPaPa+BCQ1TgFJtTyzfW1aPpHFAUChvEuacLNaRFnEZxXgElaYdZ26AJHeLb0fmyYjamHnZfFbcSd96vthWzbU8GEEyjiMAzp3QhtjnlEBt1BXYeZBMRNV54XT1GHpZEJvP0i2Xl7vsayOAKppiEN+nATXfdzd+fG8mbQy+jtV7Mrv/97DNtK84aArjYnVb1R5WFZOYYI09uatFh1u4pu1ptCDzuqji53cUCXaFdk1B+dK+Z8J6yU1fMoSZAZ+H+8q081eZgr00hPVKhuQ4QRmKURkO7RvaZElY7LVzTKpjOLXWmHiii6AzMV1Ra1UbneqeL6arCgPCaNNOMhdjxDifr0kyojgJWnlLPy8LrqjPyEMxMeaz0WSDlX08mlb/CryWEc32/GP42Opa996k8bdb5bnOh752zrNBT1/n0SNFZF0N7iyvQOerVUVO0Qrakls+PsARjNHNET+8pZr4v161nG98xcfSAcYxauQBzAalJLRVCCFEhG3kFCmAiLiGOaIuOojnIPraZeYuO1uk0p1btmhGuw4HFX/PZwXyMi20u7Gk/MWnOIU4rJq7vlOROnUBcnIvgrAy+35VFRFIrmusWrkmOw7wrhSUZxZRERuKelhwwR04Ghe7Lrqojm0NL/8e0NAvF8ZdzQ5PAGqsGYyG2tegAK/YXs3F35nlZeF09CVzZxkJQ3m6mzN3C/qzCcyxaTmf1rP/xydaTpHvN8bI0SaRTtIZaXIx7CYuhdWPaoeP4eSkTl6dx0H37J8Vp49S2xbzzs/fdnEIIs+iEnD7EN4dtAOhndvLJ9B/5Jt1/2lf14q7umgl7odFYaxZjJj5EBVxox/NZutDJJ3U4zcmSpPCAprNldwFvbS7B4VAAHe1kHjO/dPE2Cg8mhXnWQERHQViRxu4UF9Mam2mv6DRuo/JgZjFzj6mAidjY8g3RainUyCow6qiiOcnfl8XL6xXyURh+Zc1GPYyF2BpPptpgu4u3VfN5WHhdPYktVaw4eWZuLrtOaOecynhwcRaTVhdywp0nAEQFc128DrjILS6rL3qLIG4xQ+SpQh5ZUsihLPf5oDnJ35fD68u8O40mIk06quZk6Uaj86JmF7D0y0KGVHAXONqq/BGdj9bn8tluB/lnOyEqoLjM7Fiv4uzhIqmCw19MFJf9aA3PAsOCZRtIbtWM5NZN/Xdd8Opr7BJ33ZK46159jj171SzGr6n81yenfR9m35Po/t9OZr66kfWVPt/BWHxc+rTncx27OL4Dfx/TzT3aYCN17jze3lvxV72pYx/eGJDomX+fs+ITxq3TgGCue3g4v2/sRM1fx5tv7yFVVbC16My7wzsGtJhZ3b3Qc5tXf7oayU2jBzMornzDv/R93nlQuWMsefd7FjZtSqeUk+TdM4JxV1Ser1VjlM/KBld45WvlVMceZk9ey3J7xS0I37JPZ8V7XzMn279xbyjp2I8pA1rgPSsn+6c5vLKqsMJpMGF9B3qt34DDi2bwj+0+SQBo3jiCoydV+o8dzKBYI8+rF3f1KDuyGLhKYVcFMQOkR1pIHR7hbsTbWT6jkD+c5dkW/a6K5L3eRp6pO7JIWl3JgQEIYtYTVvccfp2cFVnclKJ6blHqLTw2mIX3h3vm36tbM0laa8Qxomcs4zrpQD5zp5bwkkuh2BLEN6OtdDhHnahYLh+966p0zUi/q6y817ui9RjG+0Ylhlfpidc5y9LpfDCEcZEOXrSEc+yekBqvlyhank6n3WYe7deAZ5LPdU7aWftpIY/kVVyevmVvPLvjlkrukqRFB7N2WLjPgndlRxYjf8JY1+VnX8swnzxyrs+ix+ay29OW6hqrEpzpIvnGhj6fp3BtJrduVal4HFDhtSFxnkXv/tQUKzc+Ekb8awV8caPRmb9YVVyyQgghaiS29wD+dG0kDdy3MtTMJholJ/PwH3pxY53N3wcIp93gQbx4YxyXeU2ZUKLj6HHnPbzl1ZEAiI0yHrCkBTelo3uUQLNeQfdmxr+D4uMD6kgA0KQLg7vH0tKq4r7BFZrFQqPkTjz51KAKOxLV14z+14Sjpp5ia2hrbuxQ9z9zmqUtQ568gzGdo2h2zltTJnD9kB4Mamsl2uu2l0HxRvn4dyQAYnoPYeKwZLo2MmNxfzzNEkbTq3sy7lrfuzlddvstPJoU6kmnRDfkdw/ex0s9yjfWqhd39ehXRjGtm86Q0vNBhevizUy/O5TpkXV5PihE3xDLyl46w8OhkXtrvMXE2KvDWDGkrCMBQLRxVyUwc3Xr0saqlR7NjZhPRJjO2bmsXDC3Xa3yRLTO1e6/qanQNdbEO7dFVtKRqL7YzmZGFJXwVoaJ16+MqHFHovrC6DXMyg+djfKv+NGTZRL7hfNFa4Vbvc6H5u7y2fSAb0cCQL8ylhmDTUyM8c5HhbubW9h1ve/IjrmHlQVt4QZ3uniLiWf7RDCrn8tTF7yF9ozl+1sU/hSt07JaXyUWlkwNYXmEzvDr/acUXnxkZKIexy5x1y2Ju+7V59iFEEJcmkqWRtPxlWBa/dXO4pv9x0EuPtXqZwkhhBBCCCEqpp4I55nXLezp4+SD3xX4774oychEPY5d4q5bEnfdq8+xX+zOtW7DV1OGv3QzPbXz8nNTI/U1bnFhU09nMX6u8cyDqqjaWoPaV1/jvlCpmWG8OTaCP5s1VkzPoo/f80MuVjIyIYQQQgghRE2F6AQ1crFiWvYl05FARiYM9TV2ibtuSdx1rz7HLoQQQlwKZGRCCCGEEEIIERDpTAghhBBCCCECct6mOQkhhBBCCCEuLTIyIYQQQgghhAiIdCaEEEIIIYQQAZHOhBBCCCGEECIg0pkQQgghhBBCBEQ6E0IIIYQQQoiASGeinlC2RPL7STFku6r2yHshhBBCCCFq2/8DYHihrDjBNbgAAAAASUVORK5CYII=;" vertex="1" parent="1">
          <mxGeometry x="650" y="-357.75" width="437" height="135.49" as="geometry" />
        </mxCell>
        <mxCell id="PnWIzYzLt3JOAJieJ4XY-17" value="" style="endArrow=none;dashed=1;html=1;rounded=0;" edge="1" parent="1">
          <mxGeometry width="50" height="50" relative="1" as="geometry">
            <mxPoint x="109" y="-220" as="sourcePoint" />
            <mxPoint x="600" y="-222" as="targetPoint" />
          </mxGeometry>
        </mxCell>
        <mxCell id="PnWIzYzLt3JOAJieJ4XY-21" value="" style="edgeStyle=orthogonalEdgeStyle;rounded=0;orthogonalLoop=1;jettySize=auto;html=1;entryX=0.5;entryY=0;entryDx=0;entryDy=0;" edge="1" parent="1" source="PnWIzYzLt3JOAJieJ4XY-6" target="PnWIzYzLt3JOAJieJ4XY-9">
          <mxGeometry relative="1" as="geometry">
            <mxPoint x="354" y="-260" as="sourcePoint" />
            <mxPoint x="354" y="-180" as="targetPoint" />
            <Array as="points" />
          </mxGeometry>
        </mxCell>
        <mxCell id="PnWIzYzLt3JOAJieJ4XY-22" value="&lt;span style=&quot;font-size: 12px; text-wrap-mode: wrap; background-color: rgb(251, 251, 251);&quot;&gt;rpc通知nova-compute&lt;/span&gt;" style="edgeLabel;html=1;align=center;verticalAlign=middle;resizable=0;points=[];" vertex="1" connectable="0" parent="PnWIzYzLt3JOAJieJ4XY-21">
          <mxGeometry x="-0.4583" relative="1" as="geometry">
            <mxPoint y="16" as="offset" />
          </mxGeometry>
        </mxCell>
        <mxCell id="PnWIzYzLt3JOAJieJ4XY-26" value="" style="edgeStyle=orthogonalEdgeStyle;rounded=0;orthogonalLoop=1;jettySize=auto;html=1;" edge="1" parent="1" source="PnWIzYzLt3JOAJieJ4XY-23" target="PnWIzYzLt3JOAJieJ4XY-25">
          <mxGeometry relative="1" as="geometry" />
        </mxCell>
        <mxCell id="PnWIzYzLt3JOAJieJ4XY-23" value="发送通知，开始rescue" style="rounded=1;whiteSpace=wrap;html=1;" vertex="1" parent="1">
          <mxGeometry x="294" y="-90" width="120" height="60" as="geometry" />
        </mxCell>
        <mxCell id="PnWIzYzLt3JOAJieJ4XY-30" value="" style="edgeStyle=orthogonalEdgeStyle;rounded=0;orthogonalLoop=1;jettySize=auto;html=1;" edge="1" parent="1" source="PnWIzYzLt3JOAJieJ4XY-25" target="PnWIzYzLt3JOAJieJ4XY-29">
          <mxGeometry relative="1" as="geometry" />
        </mxCell>
        <mxCell id="PnWIzYzLt3JOAJieJ4XY-25" value="关机" style="rounded=1;whiteSpace=wrap;html=1;" vertex="1" parent="1">
          <mxGeometry x="294" width="120" height="60" as="geometry" />
        </mxCell>
        <mxCell id="PnWIzYzLt3JOAJieJ4XY-27" value="" style="shape=image;verticalLabelPosition=bottom;labelBackgroundColor=default;verticalAlign=top;aspect=fixed;imageAspect=0;image=data:image/png,iVBORw0KGgoAAAANSUhEUgAAAsoAAADBCAYAAADWzpaqAAAAAXNSR0IArs4c6QAAAARnQU1BAACxjwv8YQUAAAAJcEhZcwAADsMAAA7DAcdvqGQAAJrFSURBVHhe7N13eBTV3sDx78yWJJtegNB7CaH3Lr0o0gRBEcECimBv2K6vV73Xfu2ogCAiRapSpPem9JrQew3p2WSzZeb9YzbJtoQk1MD5PM8+D+zMTs6eNr85c+as5Mg8o+Ji3sq/ialagZjq5V3fLhFKatpFum+ukpruu0MqP3/t4BOd5LnBp84NQvi+vYzlTDpLN9j5Iw22OLTPKrJE93Ad97c00aOqzvOj193J+Qn0PK/3fNunhBAj8cOCKIVb93sLqTckDy2rE2gUV7g8AQPTxwbTRL1d8uT6kA5O5ZVzLflXlzoEy3fWd7t+itPui14fbxwHGQfSmb5bYV0q7FC172HSS/SM1NG/UxDNIwv33VyV7D6l6CTlImvmTCOt/ev0Kevw3OxGvhTIqD5BTAiB3h3svDo2lXbhds/drgtJBMq3nkj3zVVS0y0IgiAIws0le74hCIIgCIIgCIIIlAVBEARBEATBJxEoC4IgCIIgCIIPXnOUBUEQBEEQBEEQI8qCIAiCIAiC4JMIlAVBEARBEATBBxEoC4IgCIIgCIIPIlAWBEEQBEEQBB9EoCwIgiAIgiAIPohAuYSTranM/imRWuPTWHJJFGdJl7UpkY7fJTNwSTbZnhsF4SaTzwfy/LsR7M8SfUtJlbxpFs99MIUxi45j9twoCMJV3ZLeT96XRJ3vkt1en8UZPHfz7VgKP/2WRI/xeZ+N/NVMAkX/HfU7wiEH79hkZMXBosM2z60+qJj3JPHhlGQ6uuS/btHtF5bl1JNC140SL5MtR+AisP+EjQPSXVqnhduCfN7EOy8GMuOUTJLnRqGESGD3ngysEjj2HGO3LPoUQSiqWxIoF5d8MomXlil8kSJxSvHcemdI3pTEiz+lMueKznOTb7V1vG9QUGQdvWtdPaCUdyZx30aJX81aQCYUTZHLp0hMtK4J0UC9qgZi1Vu1xLmZTdOTGDjjLr4AvctJDiNz3wzkA53CnPFJdAi43Tvcs2yYPIOxP2/jzC2+wJTTDzBz4jSGLTruuekWKEWjhkEYVdA1rE4j5Vb1KbdP+QhCUd2SQFmpH0H8mHDix4RzuENhG67K8V0Olqgy/ZsEsndk3jEShwVSisIe5/aWetnBX7bCfxfFGMqgUZEcHh3CvWWudjLLZOVeuIjEK52D2TNay7/4MeE4evt57iz4UNTyKaqAtpGsHRPOnHv9uHUlYufQFVhj93xfuDtIHJ0axJAjEuPeyCwBQTJACsfPWjAX5qbajWZJ4PhFO7bbIS1AeNvBfP32CL7rXY1Az403zW1UPoJQRLckUC6eLI6nymQb9TzSxg+j8cYFK3cuGyfTJE5E+PFgjB6/ElT6giDcHHKKP5O+N2AfYOed+pmemwVBEO4qBf6EtZyYzrINdqacV9mhSpj0Et0q+vFcRxPlTZ4fc2DencpXO2F+lkQ6UC9Cz+vdg2gemf+tFnlfErXWSzzZuTSvxBR0uZnJ6ilZDNL5Ez8s6JaMIFtWJ9AoLoAZzxiJWmvmw0Mqax1avgxpFMhrLT2nPqhkH0vll60K01MkLgJRRuhX28Sodv6EyNp30I6r9/isu4QQo9v39v6MxAeDIxkY5XB5z1MqP3/tYGS1wHxGkFXOLUyky2kdw9tH8EYDzzy2sOlXM0+kGfhsaDi9wwr6W/lxkHEgnem7FeamaVNoTHqJ7mUNjOgURJ3gvL+ZVzdK8awxgUlrVSZbJFJlif6V/Xi1p4koZx7mfiYhlXkrHIxPzTt2t4p+vNbVRKTLxVX+9c67nnnntTfP8ikarVw+0eW1kyOVTfmUkbbv9sah/FAngxnLHYx31q16EXr+1TuEBi55CCApWRxdb2HqYZVZNglFhhZhekZ3DKRt2ZyrJe17P2Mu+Oqpc4MQvm+fN+1ETs1kxxYrU08r/GXT0t8wSEefJgEMre/aHrTjd4sKQm1vY/mKbD5NkDmlQHmTjle6h9CrvMvuTrI1i/2rLUw4rfKXM+1too2M6+peVwDk1AzWrbHxg0t/9XBMgFtbKw6t/A0+2lf+7Uk5l8af6+y59TDKCP1rmBh+j7+POpvGsk0Opl9U2eLIKR8dw1oF0qOq5xQflexjKUxaD79n+po+5d4PSIqVU1szmLSf3LLPL/9yHJscSd2JOj6bncSz5Qq+rSDZE9i1fCOL4lI4a5FQZR2hVWvz6P2tqBfoPhKtJO5n/sL9rLtgwaqAYjQSXbc5Y3vUorTepW3GLWDUPIWuowfQ4/Rivlt1mZMWCUWvo0zDe3i5e2XCZBVIYM33fzIr2TOP3Jk6DuCLtiFu73mmRR8QTsNuHRlePxSjcx9JucjqCYuYdUVPlfuHMq5BXn2WLQeY9O3fbLWF0W3UIAZG7uGX97ex5SpzgKs9OJLXahZ0nrte9nulJ6VuB2b2r+a2l0bLxx/LduL3riorFv7DH6eysSoghZWh16Be9Cnt+Rkzl3b+zbTNZzmSqpWzIao0rbq0Z2iNYOc+xSsfOf0cf2/4h2XOOgVgiIqkWZsOPORSPsVLN4CD9N1r+XHrWU5fUbFK2v7de99D/8omtz0lJY1j/6zj901XOHmV+i3cufI9K8qJKfxnpo1nz8EOVausmXaVP05Y+HCHZ+dp5+xfyXTcJDHVGSQD7E+yM2xmKt8c9ti9kORLSbz1bc6Df9k8Y5YplWal/XfuDwPe3Ie97Hz/i5luB2GtIy9fft5u5rM4105SJWVNEu2WqnzhDGQArlhh4r5Mms3I4IwzX28k9wcnFT7RSdQ8lenxMGWKc86tRMWGEp1VlbePZnmtuiBfymRJqkRiOSPdihUkg7wvlWZrtTzJmWeeaVdZcMZKlzkZHPWRJ5d2JdJjKXxt0eqWrGj1cNgKq9t+0r4kHp6lMC7Z/dh/nLDQ7Jd09txBT+7/cTSNp2Y7eNelbu1PstNpQYbHvGIL234zc98BLVACkBXYnmSnz8qsa5yDnMnK+Vk8dEwLYnPsyXDw/voMPtrttjMAlS5kMmqWlbGXtCAZ4Fymg2eWZLDb5RgAsjmVCZOzGHCM3OPLCmw9byV2ncV930spfDHTykiP/kprazd3rrV8OJFH5zvc6uEVK0w4mMmUQ54XXKlMnGHn2XOwxdmfaOXj4Pkl6cw46x5kSPuSeeIv+NpnkOwpk22z0um+S3Ir+63nrfSZlsqSBF8BjB8b5+uwxzjoUb7gNi5bDvDzlwv5YVdqbkAjKQ7Sjh3kg+VH3fZ1xC3g1fHbWXFOC0wBZKuVy7s38dbXy9hi9WybaeyaNYtXFydw0nls2e4gYcdq/r0l1WPfopGOruC9H93TYs9KZsef8xm96DQ5vYoqR9NlSCx1UDmxeAlLMnLSaObgwu38nS1TqnsPBkYWnE8lRcix7bz103pmn9CCTQA15RKLpq5gi829fE4tnM27f53ODZIBbFcus2HWVjZd5WKhYAms+nUpk1zqFIDtSiJb/pzPF3u9LzKKkm4wEz97Gq8uPsPRRC1Iztl/2bRNHmlPYMu0BXyyKjG3DubU72++nsOcJF/tR7gT5TuinLUhkcZ7ZR5qEcK4pjr8ZJCtFs7tyeJ3RzDPt8rr8OXDiTy8XOafcD3zuwQRGy0hKXYS4tL4Yh38EuDH1seDqOjj4aT8R/a0QPmN2TD3KpP/fX32RnAdWWxYIYDP7/Wnos7OxdXJ3HNIz5FqJhy9tJGlnLTP1ul5v7uJflX1+MkOlHNmflxk5yu7xJDWYfxfE/fvdnJ+Aj3P+xq9yl/+I155+Vsw11Go/EeNU1Ym0OqQgZd6RTKqWuHS5knel8Sok0aebWqiRrSs1avkDBYtzOaldB0v9YpiVDXtQsw17XVLG/lvlwBqR0iop1J4a7HKPNXA+KdC6aRXkK2pTJjs4FO7zIjWgbxUz4jRqOBIzGTZYgsvpctUqRXI0m7aeET+9c57RNlVccqnaPIfpXTd/olOQpF1vN89kMHVdcjJqUz43cGndr1bucmJybwxQ+WjMgFc7htApBEkxU7q6SwW7ZHp1tf7O+b8jVfD/XzmQZ5MNs20crqmiR4xeiJMMpJiJ3F7Gs/9IzE70p+EhwLQxoryRqwVWWJ0y0CeaWQgwJ7J4ulZvGiWGdOtNM/WyikLC9t/zeCRNB11Sxt4v30gsdESstXG5SMZ/HQhgDe7+nvsq+fxZiZGN/Yj2KgiJ5tZv8rCk5fkfO6QFE7+7ct3WZ34M4FeZwy81TWUYbWdQZ45kyNbs9lcoTTDarvWt1R+nwL+LQPoVN1IsBFkazan1pkZcFgioEYQ63vkDASYWTrRwnM2Hc+3N/FkXSP+2Ek7lsZ/V8CcUH82Dc17XsO+JYnWOyXKl/Pnf538qRomIVuzOb/NzCu7JJaVD+Bsf3+3ufByoonnegXzzdPZOB5PcdniKYmtk+cx5bweqUodHu/RjOZReiS7mfNHtzP1bBVe71oZANl6gJ+//IetNn+q9u7Bs7GRmPQqSvJxlsxew6IEHdnNejG5Rxlt/7gFjJqn/W2lbB2eH9SS2GCF7J2LeXNJEonRDfh4ZFPKuJ1PtBHUtaXr8e+nW/g81wBIylF+/2I9K21htHrgHh6pEYlBBvVyHPMXbGZ5QgitRg1hRKm8cnbELeC1uSkkRjfg/ZFNKb93Aa/+kUx6bAf+19973q+csJYPfjzJ3tj8RnBvNi1v/qp3Tz7pyRv5VWUjte/tybP1I/Czn2PpxKXMS9YRM2Qkz1fPqbeHmP7BZlaF1mL0U61pZpQBB9aLh1m66grRj3SghVf+F658IIFVv63nXGwbesWUoZSfjKRYubJ7Mf9Zksrlyo35elhDwp37Fi3dYP17Js+ttOAIiKJT79YMqhGJQfad9px91VqNeKVnQ2oGS0j2NM5sX83/VqZwoXZrpgyq7TLCLdypPC+3cgUGQjCw56SFE2ats1eM/pRtHu4WJAOcPqKyXdLxxX1hxEZr+6qynqjYCJ6vqRCc6WBPcr5/Kl9KmQg+HJvz0J4f3wcqJIQY2TAm70G++DHhNyVIdtW0hompff2pYNC+Z9nmBkYoKricQy/sVZgrSTzeOoTB1XPmA+uQy4cwpgd0VlXeP3nj18p1fXAyfozMaw6VI5VNbvkXPybMJQDwp30sBONgxSHXOwcZbD0ucyLCyJBiBsk40/PD/UHEltOCZAAlPIjOFRRAJS3bO6hvVs3EjEGB1I6QAQmpcjjP11QAO/uPO6/q99r51C7RsG4g45oYnHPYJXSRgfR+QMcLqBw8bePIVS66Sopso54fBoQxuLr2/ZXwUHpUUAAFi2uxBUtUlKBSip0N57ThFlXWE1IlmIf7XutDsCbaDgnjoaZGIkxaYaqynogWOjorKkF2hWyPkVxFlni1WygvNjHgJ4NiNNHNGUxmu1Qr+VIm81NlEkKMfDUwOLdfUYwGomLDXYJkkFMtrEyRKVPNxGstjQQ7p9go4YF06KPjBUXl7XPuI9A3UrgJQGXZMQuJziErJdBE9S7hHkEyQCgPjgilT4wWJAMoRj8qN4Duqsomm+vtXTvnMyVOhfkxrJ4RP1nL7+CaoTxaSkFOUTiTm93Z7D6qcMVo4MN+JqqG5eSfH9FtQ3i1lIPwi3bvJQjP61iuh/bRBbdxOWEvq8/pyY6K5c2HW9M8SjsnqPpAyta5JzdIBmD/IbbaJIytuvF6wwhMzmkWcng1+jzahGaoyIdPEueRFqlKY955rDWxwRKgw69JXVoZFCSHI3fUt6ik40fZapEJ7dqDx2ppQTKAVDqGgb2qEa6aiTua5vYZXUw/3mlrxP/SXn5YuYmf/0wiMTqWd/pV9wqSSzJVDqTRkIG81DACgwyKsTwdm2rfMNttlkEgYSEK+ozzbD2c7iwLHcboGPoMbe8jSC6KUnQZ+gCPNipLKecJQpWNRDapSQNVRZ9pJcOjnhQ+3Qls2mEGQug4vC8P55a/r7SnsfNgBopfNZ4c2Jiawc64Rh9ChVa9eLiqjeCj59jt2X6EO1K+0avSJITfKzo4c9lKv6lJdJmcxoT1WZz17OfJ4vQVCXDwym9XPG7pJ3PPYR3g4MTlfP9UCSPRv6nJbRRGCZUo7dE3ZGWogJ6m1b2/t1JFRzMFwswO0m7iLeHCUhsZeE2nMudgZu5SPnJ8NhOsMv8XG+gcISwuG0n/JHut41zQHOBGVYK8VoAoW8o9uMpMUwCJLpUD3HcElEAjtQJVTBY1d1pQSXe6rJHOHqucRAV4n6AUYxijO0Anm41xS1Jp8mMK7y7O4MBF732LQ05MZ8WCZB77wXuKjy+JQQb61XBvE8Ygt/9qLmt3kgbVCKCidJW0nnMwV5a4dNzs1f/UmqDypSwRmOS4adMvwjubmBSisP2EhbYTkhg4I425O6yk59zn9aCcS2PB9CSGfp+Xh7XmSD7upMkEG6FySja/x9nJVrS7AxkHUvkqQSbTXyJndihYOJQq42e18YDLcbVXOoOv6JAVhfOeAxg2OOb5Z325ksJpCUo3qHvV8klMtwA6YqpHe25C8a9A9XAFQ1oaSR5/t2qLZh7HDiUqn3nVhZV+IRGzBGnLZ/P0h1PcXqOmniJZguOJiZ4fI/yezgyOspO49TDb5FB692911e9d0lgjqtC7mntP6x+Sd0GapwK9h9SmupTB/j/mM/bjX/n3zK2sPW8u9gWMKzn5MCvnzGXcJ5Ndymd7vvO/C5/uS5xOlLGUqULXKPe+09sFjp/TIWcfZ9J/XNMxhac/nMGEkwYkJYVTnu1HuCMVUMoGqvaJYseDRn6MgXY2O5/vs9D1p2Re2OI6ZKViubP6i+tK7x233fZUOYRuNRwEZ9rYcE4HqJw5orLTz0Cf+p57F4WdE3+m0mYb176Os+c0eaecUTkhj1o/gilPBrC8scTjQQrrTtp4YG4KTWdkXtM8eflSMuNmac8x5Myvvd5C9QV0UTkcec9F3A5UOZC2wyLY3UfH15UlolLtvLXVTNNJyXwb576vdDBvPnPO3Or8BTO4lUp1ReWz1ek0HJ9M7fHpNFsrsUaVea5NIDVdRvPcR9NuDIOxsPM09QR6Xu3eAlblanmcP5uzjktKNseTsjw331WU0u14/bUHeLdvDdpGG7hyIp6Zk2fzzFerfcw3Lzw5YSMfjd/EnEPppHg8s3C9OPx0GK866m3jBq4CKpQwV63RSqlA7ukcznujIjj8oMzzepWlO7NYkZ7zURPVQhVAz/inIj1u6ee98uYe3h30Rgmws/Wgd2uTTzrYLoM5XH+Nt75vnIjGeh5SFH7Yl4VsTWXhaZkWNf2JvYZRFNmawbJTMoqs472e7us4747JJ/L1yc7BEyogUd45wqQP0AL6BUe9b7HLZiuHzRIJIRIVPZJ/NMVj8ssxCyszb0wHfSspxgAqtQlj7NAI1o/0Z1ZpBXNSNt9uL355XtjrYJ4qUadcAKseC/Wa4nNNgqGtqvLracvVpyeVhgdUldp1g7z6nZxX2lDTNbY1lQtJrt2lSuZ2O6vzGeUCCf+KIXTvHcYPT4ezp6fKQFXh840ZLtMd7Ozep7Jdgq51A9k0Mi+9hweqPOB1Ms9k4x6IN8KDgdoP0+BcZeSje0N4JcZ1XwNVQlQy/Y0szJ2+5vkK8V65przCY3bYcPEqAXBQKOEqnDh66qo/ixzoLwPZbIv3vjSWLWc5liyTHRVGJc+vewNEltZWNahy/3B+eGuEz9fs3pU8PmUmbu4y5iWbaPhwB7r4ZXH0j3Wsu4aA8E6gyiGUrdeO4cOH8M3rAxjXzA99xmkmrDrjuWuhnd15hOOqhFqrBa+/+qhLuTSj9TX/WEoYpYJVTGcvsM3rIT9PZagUqWALieH5tx/zqiPaawCDPNuPcEfKt7acWJzEN+uzOJ/hUhFC/WgTpQIOUl3mklarLBOMnVdmp3LgvHJTRjKuRrYc4Lf//cxT/53O+ztu/g+wVqouEavC5E2pzDqm3SYFB9lHkvliGayWZL6p4z3DTQuwVaZtMPuY5nLzKJHBDI5WOHM6m392K0yUDYxueY3DtekqZySw6SXKRuU9IHphWzJfHMv/xGzOsJDuvKcnWy2cWZnG05d1JIQY6FpBq5/GWhIPKSq74jL4304bVquWj8qFNH753cGXSDxSyyVY8lOJVWH20Uzi07WHTxP3JDF6GcwrYGTvdimfwpIPJvLiwgy3dqnqDdSoDrEqpFt8dfTaLf5SaTYm7bTm254zs7S8rBCuJ8pfBhwo59JZscDO1HymXhSWWslATz2EXMziiSVZnEzSEiEpdtKPpPCflXkXREoZP9r7q8TFm/lqq5WkzHwSXEzaRRgs3JdGolV7IO7MmhRGbZXZ7vU1M9k4J4UZO1zTIREQ7Ud7k4qfFZfA34bZIgES1SL1uQ9app1MZ94KWO4x9UK+ZGFxukTnGoG8PiCIhc7AetbwEPpV9ezKTTSpoGCyWHl7QSYnr/gqZ29KGTuty6iwWcdhr6kfedTyFWnirxB8dAvvLDrAkRTtQldSrKQc28DHK0/l7utfpzLVVLBuXc4Xe5LItGvHVS/vZ+qkXWxHolSTugU84FUY/piMKn5XjjJ9dyJuU7tdVa9MM1SO//Unkw8nkpXPdBhXyev+4MvDKtYmHRhdtRqD+5Uj2HKOyVP/9n1Hxt+ISVUJjd/NtBOZhZiOYCZugXZb/5klx6964XGryQlb+P6XDaw9n5xXlnIg5WOjqaRCpsXXpW3hyiczS8ut4NKlqaDX+hTrxThWzjnAjgLqY+FUILa6jKRcZObEFaw9n5abDiX5OKt+W88/uX+jFPVrGjGkxTF+9i6OJmUVohw18uWNfPLRZEZ9+gdzEvM/rwklR76rXmhP9/ueN6qE+bk9XQ2ZbPo1iyfSPDtrjfsas1dfr9VzrVZNwasReEpeN503NmpVOzsq9ipP2hZO0Z5+t3Fyfho9z/v+nvWqmvjNx6+v5awg4nkCds9D73V3PXmv5kA+6cyfHJ9I/5UyByQ4WdmEpRCfKdjVy9413QWt2KHIOv77QBgPlM7pcbXl+LodlH3ehg+M8GPBkMDceYWSks7vP9l4x2PKgCLrGBxo53vJ94oPhSufornaOs2+yt5XGfqqn1fLwy8HhnOvyxP+GpWzixPpetKzDbq3TWlfEgPWSRzwfXif7d5X+81vBRJpXxKPbYDNPoIRz3WmpYOJPLZW8rkv+baHwtGWylSY4jHH2c9fppfq4NNo17IouI5Xr2pinku7v1rZu35POTWFL6Yp/OBjrrUiSwwob2BUt2CqOX9JT7amMmuKnXfyGT3zzEONxPGJEcRM1vPO5GTerpV/eOCIW8Tb86+Q7KPKe67Z69ofe1LKNuCdx5rmts2cVS+81xzWVjmYqmvgsz8/tXAK/93r9hb4WKc3edMs3l2Tlbs0mLsQuo4exMAIZ/s5s4Z3fjnF2fAYXn2mFXWcacz5W0pdXytf5K0I4sn7OwEcZfbH61lllwEdDYc+xugqRbnD5q2g/MbrnJh/vvoqi5xVPU77zD8/YoYM5nkfz+YUpnzkuAW8ODcF5/oBXq4l3aANoP06/m82ZHqnD8oz7J3utHWOXMvWQ8z8bhOrfe7rXcdz5KyWAWCu5LpKh1BS+a4BQLXOgcyoLtHLkFf5Khp1jG5qYvtDnk/Lm2g3NJjljVUGG1SXB0punciWDekcpKDKRqo1q+7Vqd54Bqr0D2FtI/c8KW/S8U6HoHx/olipFcGP7VWGudxavVWUOv6M9FcAyefod9GZ6NrfyBfhKpWdNS/KqGNMfX+2d9ZGeN1U8OPHGBjsl5cXJr1Ev4pG/nwk1CVIBpAI6xTB2nbueRflrLNrBucFyQCqHMzgvnpeDlEIBhQZWpXTjvtEsGfgmOd2Kp/CUGODWNMCt/S65qF3kAwgUbFXIPOq49b+Pan1Q5nQQqvfOPOwTZSeSf0CmBSSz5BREaj1I5gySMdH4SpNnWWnyFraD9zj/rCOWjfSa9/rRYkM440u8KjzYUlFluhb1Z/Vw4x0d/mhDI2JrvcZ+KY8tNblbWsYpLX7xR7tPqBjKIvrQEfnvtr3MzBniIH3XT4PoISG8lAtLV+jjO7HlxVtLfL2M9NzH8BVjKEMHmG6ajm6U6lxv4XH7PDuwiC8JzLl0cX05sOnmtGtvD8m5zWVotcRHdOIt7vXcNs3/J6H+aRvRWpESuT87o8+IJw63brwyYi8IPlaVLmvD083DqWCf8HHCm87mI+GxtAsWo8x3zOg80dFZp3gkhTIPQPa5gbJAFXua0cXPwX54N98d8QzII2gzUPdGFI7mLBC5XsNHrg3kkAV7cH3S9e2TvSNppRqz5iB1d3yT9HrKF2xBo88M8RnkEwhy0eJuZ/XekZQxbmPKusIq1iDwU/0ZOhVfvymMBT/WB559n6vdOjLluX+R9rmBskAirE2g33sezV+zTsyIFzrVwPOJ94xKy3dzfIdURYE2ZzChGkKr5l8j64KgnDzSAcTGbpaJqxeMN92dB+tzFtHW/Zxx6uoJI5NDqfuRANjvk3ni8biZ6xvNEnZy5QPd7BFlrzW/hVKnpQ1Uxm3WcFSxtea30JJ4/vST7jLOVDOpTFhusKndpn/a+l5B0EQhJvtxCGF7RLINsVtHrZstZFw2sEOGyiynuqR1zqar1JzaCZflVP56rUgfr50M3/59O5jz77I7oX72CJLOAKq0dH5g0tCyZMzR/+3HdqFaoXGtUWQfAe4S0eUrz7H15XvOdN3Iu/5lZ0bBPN9e++5diIPfStobr+na5nXLBRHya6zOb+052sOvkZiSOsg/q9J4erf1cjnA3l2aCDfllVYMymJDs65z8L1Ez/7J748rD0krf1wRl9GV73Gh6aFW8Jz7rZUpTFvPtzoukwrEm4tMaIs+JQzl9p3kCwIws2mbx3Kmo4SL4W5z8M26SUGlNHz65DQ6xYkAyjlzHzzm5mxNRXK+omT/Y2iGI1ExzTi2ecGiyD5DmCIiqR1n/58NbShCJLvEHfpiLIgCIIgCIIgFEyMKAuCIAiCIAiCDyJQFgRBEARBEAQfvKZezFv5NzFVKxBTvbzr2yVCSU67INypHNf807OCcHvT5ftT5r6JNiHcyYraHm53YkRZEARBEARBEHwQgbIgCIIgCIIg+CACZUEQBEEQBEHwQQTKgiAIgiAIguCDCJQFQRAEQRAEwQcRKAuCIAi3JenQYt766BdGT9nFWfXOepJeEIpKsqYxd2ISMT+m8dclEb7dLCKnbyMnl/9B/dmLiVpxBitg2bKc+rMXU3/2NvZI4iQhFI+oV0JJFb/vPCkqyBdO8k/K9T9dydmnWT93Hm9+OoUx//3F+ZrPvGSd566CcMvpDzn4l01GVhQWH7F7br5mkpJN3LJUXp6QTOz4lNzX53EGz13vKte/5xGKz1kaqXo9RsAUbALA7B9MpPuewi2S/PdaXp2/gT8v3doTqZx8kjmLltJh3QXPTd7umnp1lk1TZvD8lO2cFRcAd4Q69csRJoFStgotwhTPzddEUs6yaNJKZh1OJ9V+Z9aX5M3JvDwhlblXbm1/JVwf9to6/m1QUGSZ+2rqPTdfIxvx8zIYeFxl6R3aHopLBMq3kejAAM+3cgWoYoH620FqaipL7Q7Pt28+Swp7Mh1sKUTscPfUqxSOn8vGbPV8Xyip1Nr38eG44Ywf0ZgK0vWtq/pDO1icqkNXoQHPvTyM794Y7nz1Z0D4bdDGr4OUywpLr//Ao3CLqMYQHngygrinQuhVphCdfxEYLmXw62WZdJOBmQ+FcGB0WO7r5Rib5+53FREo34bGBoVq/wg00Rpw6EQxCddO1CtByJOQkAnoiO3QnNpG0RaEu9xlmC9JDI0NpH6YaA+uxE9Y30bkfRuJjU+la5VO/K+5CfnCbt7acI6PSjXB1qms274nl//B/anlmPZgC2KO7mby/nNMtqqkyQE8XbERT7eIwOiyv+Qwc2bHHqacS2KWXQJ0tA2rzCstYqkR6uPK9Owh/tx3hgkZ2ZwEogwBDCgTy8MtoonUeY/sSLYU4jbtZVJymvO2ja/jJ7N2wUYe19Vk2/113G77y/s3EhuXylP1+zG2juvVq0Lm3l18e+IS86wqZqBBYBlead6cxqW801E0WSTtOsjE03nHbugfwcDaDelXS5uegHNOb/OzBV9Rm/2ru30nyWHmwt54fjlziRXZKpecedglshbPtKpIhCEv7TnlnFG1E182shK3YTf/TTazU4Fypmj+27oFTSIcwHF+mXWQz67y86CeeViUenUjuP5cry79BGuW72LhsXQyHaAYAqjVui2Pt65AqJyzXyaH5szh6yMqhpb38WXnqNzPS8pF1k5azO9XAqk28AFerpnCuvEL+T2l4FvLAff057M2Ic7/7efXD7ezNLYD0/tEcWLTWqZsTSLBLiGHlKFLv870K+/aekBJOsjaNfGsPJ5Gql1ClXWYypSmS+d29KqUV1eKKmX9DN7a5E+Xpwd6jGLmpfG3ftVc3gfrxZ0sWnaYDRezsSqgDwigWsNWPHRPZUrn5qGmqOlWkvYzZ8EetiTYsfroFqoNfJKXa+bULQfpe9cyaeN5jqRqO+vLVuTBfp1oG1ZwHS1YgleZZkfG8n9PNaeC1x0Qbd+fynZkZheJlYu38OcpG1YFpLAy9HygJ71Le3zEKf+8dyfZE9i9YhPz96eQkJuH5ejv8j2L+pO9OW1CUqyc/NvMlP3wu11CkaFNGSOvdgmkTnDed5X2JTNsg8TaQCNrHg2keu7oukrK2iR6xukoU9HE772NsOYKTeILvi2fEGLk4NBAotCOk73mCk3iDfx7UASD1WRmrHDwQ6rEeRl6Vvbn7e4BRLrULV1qJju22vj1tJJ7m75+kI6+jQN4qF7Bf7sghn3J1Noo8XjHUh6jmFmsmZrFYJ2/W7oB9Ilmlm608ssF2KlKmPQSXSr68VwHE+VM7pVYUqyc35nJlIOw0gwXgVIGuKeyP893DHDrlwEkm4W4ZVl8dh62OLzL+EglE9b78voKfUIa81Y5GJ8qcVqBUgaZ4a1MPHYNeUJu+bgeQ+LfgyJ4IMq73mr7BjDtaSOR6818fEhlrUPLlwcbmni1he/5xvnnvTvPOouz7B9qF0jfqlqAXdT2cLsTgXIJlRMof14lg09OZnLJY/uAml14r5G/83/J7FiylRFmH2c+AvmiQxe6lclrcPLhv3l0zxV2uO2n8QzCAOS0k/y8cj+f++hI4qNcg7GiBsp2zq9ZzYArNswu+2oMPNeoOyNrer5feOfXLKbHFc93AUoz7cEWNHSelIsTKBf0GVtYA/Z2q5h7IZMTuGaVr0rTS8f5j0c+ZhvKs7BPY2rLx4oVKN9qOUGB/soOvv51Hwcs3um3lGnAe080yQ2EJOU4c75cx+rsABo8/AhPVdbuH2vBjRVrk25M6FHOZ1Dli69AeVndWJ5M2svsy+4nMVUOp8+Y/vQMymkT2v5bfea7iVYjHmJY2eLd384/WPMdKBuOLeXFWZcw+0iKexBLkdOtv7yej38+zvECVpfI+xtWTi/5nY/3eJ+owY86Dz7Is9WLOyrlXaZXC5RnZgVRWsrkikfdUvzKM/y57rTSKz6P60tKTPvcPJezDzD5u3/4J9vXd/FzXqwZ0MkS8qHJ/Oefdz13cuNfZz8vNA9xtoksts/KYniS97EVWeaLAeH0KpWTvypnlyTR45SOKtUDWdxdC3YMF5J5/Q+YaTDyx+NBxEqqj6DKW36B8nv1JJYdcLDZow64/s2coHWs2TvdAMPahDGuoee7hZN/sOY7UNYnpfCfWSq/4F1nO9UP4dt27mksKG/SogM42t8PP+f/JcXMqt+yeTbD9/fEM1A+ksTYVRJrfLSfalVNzOlpzD12UXmn+2qBsoH2gSobvE6cEo93DOPlGC3/TixIpPeFgtuDa125Wp50qh/Et+30d1yg7PvbCiXEZV4+mUn50Gos6HIf+wbdx646oTQFfrp0jnTnXo7tOxljVogNq81i5377+3VkZdVgmmJm7L6TuE7rPH76Ijsw8E7DHuwbpO1/oFdr/igXRGmvGpPGtg17+dwhUS+kCr+37+U8fhfW1ivPRwavDxSafHgHb16xkWUqn3fcAT1YW68U/VQbH8cdvIaHtk6z/rJKtqEiM+7TvuO+Qb3Y17oenwa7X3H7t+6emw8LQ+1AIB926JP73r5B93HcI/BXZSODo+uy5J5uufvsbVeDsToVQ8opNqV6d07Lzp/gfTWI1+p2YOeA3uzv15yv/RT8bBfZelIHVGP44N5aebQrTz9VuxBxTce+QffdVkFyniQ2L9rNAYs/1br14D+vjuC7N4bz9TOdGFJdxv/SXn7bn3chp8rVGPxIdapJFnbNX8EOu4z+8nrGb7RiKRPLu91zLoZLcc/ox51zS5vSSlHJjozljTe14+e88oLkPKHxB/n9iomK93TlP6+O4PvX+/N0TQlJSWbLYfczjH9kOXo90JtPX9GO+/2r/XmtqR+Qyfq9p932vZHi95/GLPnRbMjD/M/53b56qQdjWoRQ1kdTKHy6rexac5jjqn9ufnz3xiP877H6NPZTcQRU4vFXH8sNxA3HVvPtbgeWMlV4bORQ7divP8R7/aOpJlnYt3w7x4rdNl3L9F4eDPMOBjzJ2VkkWP2ode/9/O/1EXz/Slf6hjmQs8+x7ZR3WyscK3EL/+afbBm1VnNecc5j/v6VPs48zObI4n+IK+b3tG+1MDZJpnZZPxY/rM0FPfhkAKsaqTR3KDyxKZPs3L0lKvb055sghZPHMvn2iISkmFm+QmWupOOT+4OJdY4y+3WKyp1buqiswxlURbrNOb081OQ2KqtReXe/wv5gA1MHhHJgdBiH74f+ksqR01b2u3xPo7/Mv1qa2Dhc2+/gU0FsbKbSVIV/x2eR6iNwvREyDjr4BYkhzUPY+VS4lpYnAljZHGp5jA4DqAYdA2v4s2RQsDMvQtnXT8dYvUrIRRsb0vPqirQnmzczZOqUNjJ3qJZvcY8amVFKASRGdw3PDZIlJZ25ayRWSTpe7mRypiWUff30/F+wwvETWcy/4DtALwzXMt1ZpzAX5VqQ3LB8AMuf1MpnTW0HoPLG6bxaVVSWdVk8myGjhhqY55zHfPDJwNyyX3XAwkqXPLxTFD+KEW4DOh6o1pZfusdQPUJ7R1+/Ej0VlQCrzRn8mtl9yUyqrjzvdalJJed+qiGQMs3a8EqQA2PyZbfOPszfH7Cx4vxFkmza+0pQBNXa3sODtTxGky8cZ4FZh9m/Op91q0dMtFalVIM/kTGNeLldGbf9i+LsucvsIJRP2zTNO65OT2RMC56NhoDsy8RdLm4V9ifCqOJnu8LfJ3KCIhkqVKZnz0a5o8nFFdCyI2+3r0rF0nm35aSytekR5ADspFvcdgcgy688s7t1ZlhsMAadimooTasyftotbuvNOfHcKLr0w/x9ToetUVtebhZNqF7LX11oJTr0r0dTRWX3ybNun7GX7sCLvSMIyTzNxEWbmTn7GKdM5Rj5SIvr8mCX4hdOt8cfYlyb8oTqVVQ5hCb1tcsds8X10rEeg57uTu9akZicJ19VH0L1JuWooEJmlo/CvEFCAgOAbA4cPJm7UoPeL5q6XfrzcA3PC6SipDuVpCQZxVCOe9tWcJaPDmN0E/o20qHLSuFUel4dPBZ/DrMUTp8HO9MsSgsAVNlIVJ0ePNQEDCnn2H0DlnPLjyqbaPjgQJ5vGIFRVlEN5enUNBDAZQqJawA+nA/bGoEQujyd9953bwzPHU2WbAfYdEjGFhbDcwNiqeqcx6wawqncvQ9PVLGhyzrD9vNaYKDUfoxxw04X+Hqhec4Fm5U9xxSSDAbe72uiivPxAdXgR3TrYF4p5SD0kp0DLv2yKgfSdYCel3UKX67PYNGybMaadTzZIYQBpX3dLSy6ZtVMLHsomKZltL9rq+DPfSYVgw2XwZQA2j4YxuAmRsJN2n6qrCe8uY5OikqQXcWzJt4opkCJYGD3KQs53bhq9KNsszCea+kdsPm3C+e9bv5UjsrZJiGXDaZnKQVwkOoSQ2alKKQDvZqEUMdZbEqgiaatJDqrCvGX8i7g9MdszLRL9GwczON1jPjJqvPYQTzcXqKtqrD+1M3KFU3T6iYm9/GjvEErn7JNdQxXVHCJs6v2y7uAOtxO6yMe71gqn4uqDNYdk1FkPeP7B1PbOY9ZNRgIbx7GZ7UcyIqd7cevT128ndy8nky4AfxpUsFzga9KDBnc22WEM5EjGTJ6xzkGzl3kXD8357WMhzJ0QDqXXQLO8NbNmOCvsDVhD/csWMTQJVtYuCeRDGfQ7CYxgwUS9ClXhfIe8yOvTRqn0wFSeXnlnx7pXkyXSwBmThb7ZFyani0qM1jK4suDa6k79y/+b/l+tp0s/tW2K8mRxvGtm/lg/l+0ckn3/an5jyqcCi5DbIh7JxPQUhvNvj1HiQtPPp9IvCxh2L3aZb1a7fXMZ3vZIUuYLl3hssfonFyvK0/UkpDjDrEmLYCa93WklfH6dMS2oHI0L+3+92y17/M5Am29uJN5v8zk1U/y0v3UhBOc9dEkbqTSnbsxqLSdrL2b+b9Pp/D8lL/4ffeFfJc3K3y6/QgIUJFt51m07QKZdglwYDv7D7P3OAATQSE57TuJE+cBkln+zc9e5fnhDglI4/yV4rbNorOGV+W+au7zyk3BOVPPikeXms4lSUKtVoE6XhdmJqqVDwSyuZzhlZmFYOFQqozBZuPBH9zXrI0dn8FDV3TIioMLye55qASG8ERraJNt47WTMjUqBjA2xm2Xa9KgUiAhbv24P60fjeDA6ECauAwe6BPNrPwjmSd/ck27wme64uRF8SmNg5lR0cG5y1YemJZM11/SmbDBwrl8uktJyebouhTem5hMK5c89zX9QBegvffXzjROZGnvyWYzazerrJYkKgTnfSb9kspBCZbvSPUoyxRqLZHYJElMTM0nUTeERN8mAW5TPRyhMtf2WI/COYvEqTAdjQI8DyRRvoxWV8+mX/0OUElz83oy4Raxu9y+KxxVF0mr++9ne8u6fBkVTIQliTcPb6X1gmVMjPN92ydU593RXBsHlusTD+VLKd+Ad/p3ZEWdSrxlMrAj9RSPb1tJswU72J/PHKzCSWbL4nX0PZPMLLviY371XUjxXW8Kw6rmdLzZJCVkeGy98aRDi3n7532sOp9N5i0+B6hyNB2feIJPhzdjQGwY4QmXWPfXct74fDrfHnE/ERct3SG07Vmd0mo251Ys49VPpzDmv9N44dc4Dlgkwu5pQXddToN0QD6B+Z1Ib3APwPMjH5rMR79WKvD15ba03P2zi9u/qSrOuI0jaXYSfMyJvZEMl5IZN9vK8+clnw+43VwGqvaOZPtAA9/HQHurnS/3W+g+MYWXtnr2OVlsnmam70H43SblTk3Mj6GFkS8CFOIvW+k9RQt6Y6baGJUoo4YaeaRB3r6SzTNwvHPZ/WT8vabt3NmuJRoQSoRwKvupZBuq8seD2vxW71dHuuU+NJLHr1JVunTqwDcD7mNHk3L0U218HrefQ66jfs6lxmYlXHSb51yQQIvZbW6x5Ehj79m8E4gmnComBYjkx973+0iz9hrp9vBS0am6QKLr12dor64sGtCRZWWM6G0XeW3XZc9dC00+cYKfs2WyDZFMaps3v3lf7hznu49aKpwKKigttRFbX69JjzemtMeUl5T1f/DDUZmoHj0YXtZOyrq1TE+83hdlBbGyY+cFzBJEtezG/znn+n73xnB+HFmVCtflfJHGOY8HujJ2HWVfAXNfTeVi6dKnL//36gg+e6gK1dVsDizcwt7czxQ13Vbi/z7FJZ2J0mX15KyWpgsKp8n9/Xi3TbjLvqWILuUAoun72mNe5Zjzerb6tbXNW031MxKkqjgOHfcx3zqT4+fMQAhVo4oT8RqoEqKS6W/kj2e0ubXerxDu85ifbbiQzFubJfZE+rGqiUpIqpWPN97cfD63T2G+KlG7bAArnHOUtZfMKw6vilUsx1LdzybqcQurMj3LII+9VCD3dAzj3ZHhHBooM1avsmyX+3xZwykLkzMkso16JvR3XydYm8vt4ZCV3zJl2oVItHau9GTSS9xf1Z+NgwLdpn8FOadyDGuTX1mGYe1RuAuu25dEiAGqX7Kxy+YZOqqcu6S1g6qRJf17evP8tsIdJ5xGUUb8bCd4d+URzly+WjibzJalG5izJ5Fkc15H4F+mHO2NCnqHDdeZjWql0vTQqRhS9jJm7QlOJ2qNRXLYyTiyl883uq7HYSTYoAIJrNmljQzKiedZvWwTD6V7d7DVyoQRSCKvrdlN/DkrtkKOXshpJ5kxbxH1Zy/n492+xw3kCwcZv3QP206mY3NOKVF1AZSvEEU3FVbYfZ98jAYZMDN971HO+1i9AQCLhb2AXRdMaWenIWckcXzrZr5Py3/qRZH4GwgF6lw5xPxjRb1ncHWy5QC//e9nRn08mx+OXK3OXJ09qhoNQxxI21bw9baLXCnEcJoj7k/+s9FKZsXGvNikLK37x1KHVNb/upStVl9dVwAmo4pf4lFm7E7EquRTPkWSQXqGBOgILxVOqEFFUqyknN3F74tO+5jCUDSB/tr3iN+5hwS7hGRP4+SGefz7r1QfK1sksGHmn/y6+4Jb/hnKVqV+qIKcbSVvFkBR032YzftVrDViGTuwD++9oD249vWzfXiiXqjbUpMAdWtGAReZ/+t6dlzOvk55fXtxBNeiSbQDQ0ocX8/bzwnnZGfJdpG9f85n0kkDWWWr0zlce79oc5QDaFJBwWSx8q8/Mjl1xUeg5kE2p/PjIpgrGRjfI4jolgF8F+Jg9X4zn8d57q3RBsNVftuYme90hKIyW7S+unyEjkh/GVBQzmew8g8706516oW/Sl0V5hzLJD5dQlLsJO1N5tnlMN/HyPnxJUl8s8HChYy8/HOE+tEmUvWac0ymyl5JIs1fIjpSa3eyOZOj61L47qJ3f3L8kMLfBj3Degby1RDt4b9tI0P5qKe/1zJy9toyz6Lyy9ZUpsdbSb/2LvM2FETLCgqyYuf5uekcSslpD9mcXpfKK4d12AwGetbxrsvX+3xys4nl4UoobXm4UD7s0IU+Lku7+SKbzzB72R7+L59A09cSbs96XTFq6pRqzm8dS7udOOX9m3kyLpktLu/lcD82OLavou0Ji9d0hGaBJgzmTBq4LW2WzNaFGxlp8Z0WzyXZcrguzZbfPjlLsi3wmSX5Lz2X39J5rn9HNp/g578O8LmPjl0T6FZuxVvXOI0di9cyItN7dPV6LA8nH13KizMvYpZA8avGmFfvKfYDjrlrxh5azJvzr5CSz2FclzeTs3cx8Ys9bJfL0v+lXnQzaJ2y7Z9ZvLDKgqVMLO891tzrob7Ti3/h471ub0E+y8OtK1UvnyXH3OUsSZcf1+XEikqXupUvv48n3mOVAHtQONWlRPZUuMfl2AUvb2Zv0Jlv7stbdrBo6T7FH5+vZrmPCxBV1hFWrgr39rmHdqE5fU0Cmyb9yXSPpfVy5L+c29UZ4v5g1IIUz7ddlGfoW91oo2gX3evGL+RXXQOvv5dzHO9l8zT5L82Xp6Al8xR9ON0e78+ASEeRl8NyKCqSNY05U+38K5++1n2NXht7Z6fx0BWd2/JrOcujTZZ1fNg/zOuhPsORJB5aIbPDI3m+l4fT+1iWzZu0L5mBGyQO5vOVPY9dFJKSzpyJdv7lca5SZJkHAx2Ml/zcjl3Q8mZqqJH1D+ftK1nTmDTF4XMZU437kmsJSxPpeML3scuadDzRzMRDsXnbLZsTuW+Pjotue+bIfzm3q0tj8reOAud/u5ab65rY7n9PO85TVQPd1n7Okf/SfHlkczoTp9v53MfUK0WWGNshlDEx3usoX8/zya3gu4UKdxQlsCID72/H7FLB9HSuNpC/cDq3bsBX4UG0cukjGvqH8a+6HZntESQDKPXaMLFDDB8G+dHEWaMcssyAyNrENXG/aNE1a8PcckF0crajKEMIr9XtyC+NwynjlbRwWt/bmb8qhzNYL6M9w351ptha/J9OBQw8VbG8V5AMoJRtwLj6FXnRpKOK8z2HLNM1pAJTO/bwGSQDKLVa8n2daB7xk8hvPQ8lsCqPt6zJi6a8fSr4hfFurTasr5T/z0kXTQjN27fkx7BAt3K6XpQa7RleUzvpytnJnEi99q5CrX0f749qSpdyfpgKSLOkXGTN1J3sQKLKvV1yg2QAQ4tuDC9rx//SAcZvSXL7HEDlXn0Y1SiUcv5elanYwtvdxwstQijlbDuKXkd0nRhGjG5HZ/3VR8YL4ghtxehBVakZ7ByV1Oso3bANH4xuQ0uvH/YpRfvBrXigVnDuqiEAxshIWt7fzy1IpsjprkyvzmEYVVAMRkJcHtaRFAepZ48x/YclrHPk1INStHtsEK90jqRK4LXXjduVvXQHXnuqmVud1fKxEWOf6ceAyOIEPhrVGMLA4SbmVJOu0i+rpKxNY9QVHWnRAbzoskaxPSKMlxpDqKLw9soMznoE9Laa4fzQTuWRQIh221J8av1Qfmqu8mBOvZKhTZSeCX39meDrx6uKQJWDGXK/nheDFYKdx25V1sj8h0MZEeR97BqdAvjNI/8qGCWeahLA1iHuwbpqDOGpe/W8EKrm5kVZk45/tQxkY0Pv/I9ubeBZWdXS4OeefxcyHXywPp3/7svLb/82ESzpLvFCqEqlO7RJKIHBPPmwkR/LqbnTUXLK/9eBYYzJ58HSG3E+uZnEiLIgCD7J+/5g1J/JqHIlnnizCy2KOQLg+st8wu1Jf2UTH088wtHa7fiob02XX0kEyXaOZROX8UeKLt/R2bud5wja1Yg2cbvLYsvULIZbjUwbHEwL119JVOxcWptKp0M6r1/mEzS+2sP1Op/cCiUrrBcE4SZwYL14gKnrEwGwNapdojo1oeiuHDzNcVVCtltJtuZN15DsWaScOUF8pnwND64JQsliuGRhsXPCv9nsIDt3Dr6CPTGb/c45zaNCfU89ElyV/POJGFEWBMHFfn55fxtbnCMC1oiqPPNEJ5pdw9rFd8vo2aE5E/j6SOFGl65lDu+NUNBPY+fwa9qNj7qX85p6VZCrzZN25zr3uGTxNYJWkLuhTXj/7HJBDPz6TJDbWs23Un5zpV3pgvTMHBJMXR+/AJgfw6VkXp8L871WUfGtoPnCt7O89nD9zye3ghhRFgTBiy4onDrduvDFUx1LXKcmFJ2tek/+b0R9upTzc5v/rOh1lKpQgd5DB/FFEYNkQSipVDmYBwf7afOfDSrBLtvqB+l4vkkAG4cWLUi+m5X084kYURYE4Ya6G0bPhLubGFEWhDxFbQ+3OzGiLAiCIAiCIAg+iEBZEARBEARBEHwQgbIgCIIgCIIg+CDmKAuCIAiCIAiCD2JEWRAEQRAEQRB8EIGyIAiCIAiCIPggAmVBEARBEARB8EEEyoIgCIIgCILggwiUBUEQBEEQBMEHESgLdz350CLe+M8URv28kzPqnfWLQsKtI1tTmf1TIrXGp7HkUsnoaqVdITz6TTjJDtEOBEEQEIGycDuTE9bynw+mMGT+cc9N19XBvedJVkG+cJK/k69/k5Atp1g7Zy7jPpnM0x9Ocb7mMSdJ57mrcBPIl5J469skdIuyPTddX4ccvGOTkRUHiw7bPLdeM9lsZsOCZB77IYk63yU7XynMuVLceiVxIVEmZbqRNj+FYvHcLAiCcBe6/lGBcNu6vGkOH3y+QARoHuo2KEe4BErZKrQMVzw3XxNJOcvCiSuZeSidFNudOUpn3Z/Euz8l8W2cwXPT3a22jvcNCoqso3et65s3kpLB4lkWRp6DLddt9FclumsqE8dZkX71Y9CSYM8dBEEQ7joiUL6LJJ1P4qzl+gaCdwKldm/+++YIfnq8CRUlt9/fuWbSoe0sTNUhV2zAi68+yg9vjXC+BjAwwuG5e4mkXHYwyyaJEUgPijGUQaMiOTw6hHvLXN92Jx2w8q8smWoRfix5PJT4MeHOVxgDo66lXqmU7pvBpE4Oln8YwKRij04LgiDcGUSgLAg3UOLlTEBH/Q4tqG0UzU24PjITHKQj0a9lCNUCrne9stH2uSwes0uM+kVMwRAE4e4mfsL6NpG8bjpvbCzFo2+2ouyGVUzemsxlm4RiNFGzYyeeb14Ko8dnlMT9zF+4n3UXLFgV0AeE07BbR4bXD83dVzuu1eOT7rKjYvn30y2ofHo1r/9yiuxOA/iibYjnbgDIcQsYNS+FqJ5D+KCpPwCSksaxf9bx+6YrnLRot4ENUaXp3LMj/Sub3D6vpcefrqMHMUDdw+/zt7P5ImTrdIQ3aMWLvWpRRtaqpJywlg9+PMne2A7M7F8t9xiOuAW8NjeFNFMUDzzal57FGkFLYM33fzIrOW/ELCcfKqreo8rFKZ+8z2nft6ARZMmewK7lG5m3P4XLNglV1hFYpiwD+nehXXjxb61bVifQKC6AGc8YiVpr5sNDKmsdEia9xJBGgbzW0ntKgJyawbo1Nn44r7JD1fZ9OCaAUe38Cckpm31J1Fp/tXQZmD42mGbZyXz/o8KYqoE4evt57gTOecNvzIYNNYNZ30NLk6RYObU1g0n7YZZz2krDIB0PdQiiX1X34FD7ngY+GBzJg2oSM5Y7GJ8icV6Geyv783ZPE1E5aXf+rY+quKdH2pfE0HUSm/z0TOoTSudijgJradG7vCPxweBInyO9xSkfPL6vr+PmkK1Z7F9t4euT2nEVGVqE6Xm+exDNIwsqPx07Pg2nzQKZz2Yn8Ww5u+cOgiAId4XrPRQhXJOLLP7hTz7eoAVLALI1k2PLl/LlEfeTtnR0Be/9uJ0V57QgGcCelcyOP+czetFpCg6N8xHmRxlV5UxyiueWXJY0C6CjfGQQAJJykdUTfueTVYm5QTKA7cpllk37nXGbkl0+ncd6cDFv/bidtZfAKoGkOEjZvYk3lp313NVNXpBchiFPFDdILq7ClE8Ca76flPvQnnaRksbK8XnvPf2h+wOKsuUAP3+5kB92peYeV1IcZF44y7TvZ/LJkbzSlA9N5qNfKxX4+nJbWu7+Gjvf/2Km20FY65zPmmlX+Xm7mc/i3IMl+VIKX8y0MvIc7HCuAJJpV5m4L5NmM8wkUFBw5Zti1BFpgMBUR/6fT1WJR6J1RE6QbGbVtHS675Jyg2SAPRkOxi1J5ZkNvgM35WASI2Y7eDdF4iIgK7D0hIVhKwpuEa5B8tSBxQ+Si6cw5ZPJ6imJuQ/taYG4ytuzrrg8yJfs9oCibE5lwuQsBhzLO66swPYkO8NmpvJZXO6uPjho3iWb6qrE3N0BnhsFQRDuGiJQvq04SEyyYazdgrdfe4wf33iY91sZAQfbDuUFkJJylN8XnOGiFELLQffzzRvavNfxI1vSvZQDw56/mZ6gjZSG3/Nw7rzYF2pZgRC6jn7CZa7sCCY/1ZyKqooSHElpCYzmLGegnc2O3ybwxHd/c1xynsAzrUAgUWHa6FzShtXMuqLHUiaGZ8c+wg9vjeDH1wfxXq9QAlVIXr+JxZme1SyN9esukhxZkWFPaZ8Z/0RVqkkq+gPH2OP8W54ccYt4e34KqcGVeHzsfXQJvZYguRSdnsnJh/sYHF6YYxWufIomm4MLt/J3toxaqwWvO+cx//RqX8Y18wOyObJwG3H55EnhqGwwQ8MKAawcFc6h0cGsq20HVF4/6Xpj3cI/y+38YJd5vFkg20ZGED8mnMMPG5lYRkFOyWbiXm1Ppb62LX5MOLtjtKD1yc6lXebKhhM/JogmqgroKR+gEmZRSXF+jUsrrlBrfDpbbM66kQkHJKgQqgXKWWszeSZdRgkz8MdD2hzcwyOD2NxcpZkKK/dnsSLds16p/Gufwv5gA9MGhmmfuR8GSCrxp7M5kE8eSvuSeGwD7AswsOCRUNpf4wOd/p1LeeVNwQpbPkVh5/hyO5/aJeqUC2DVYzl5GMCKWirBqHy3MYMj+eQJAPXsDM9W2RBnENMvBEG4a3meaYRbLKBJZ/47sC4VDCqqbKRMiyrUUVR0trwTrnT8KFstMqFde/BYrUgMzlKUSscwsFc1wlUzcUc9RxULoxRlSzkwpqRxSZKQlCPsO6nHkHKOnYnaH7l4xQIEUy5CAc6yZZcFVY7m4eGtiQ3Vbjer+kDKNOnPy811SMoV9h31DkIDGnfmo5FdaRulfUaKrk/zSAdydjYZPs7d9qNL+ff8K1wKr8rTo7vS2nhtwUxxXb18XAPwEfy3ndHnxUnOVBLZepCN8TK2sBheHBhLVec8ZsUYTpUefRhZxYYu6zTbzmsXPkrtxxg37HSBrxeae0+baVrDxNS+/lQwgCrrKdvcwAhFBZeikVMtrEyRKVPNxGstjQQbtYshJTyQDn10vKCovH2uOCFTAGXDFUwWlXQAMjlwTkJW7Gw6qn3fzCQFkCgboQAZrD0qo8h6fhoQQu2InDwxENEinM9rO5AVOzuOeU+RaVbNxMqhITQro1UipZI/vQNV/KzgazE4KT6RpzfA34EGZj4cQsOAW1Ovrl4+JjqPiPQIwCU+GBzldnGSM5VEtmaw9KxEusnIZ/0CKG/KyUN/KnYLZmKUAz+rne1n8n9YTzEqRJcHLkgkFhRQC4Ig3MFEoHxbCaFty6oEuryjBIcQ7vJ/gPQLiZglSFs+2+12/tMfTmHU1FMkS3A8MdHjU4URQdkIBb8rKZyWQDp+ll0h0TQqnczmuGQgjZQMmeyoMCqpACkkpEtkVihLc4N3gFGhkra81OV0LTxyVbZmdcKcc0Y1EXR66kl+eKsbbRX3AMh0cRcf/36B8/6VGPlEJ5rdoiC5sOVTJKmpXJYk1GoVqOO14kYg1SoEAtlc9HX1UGgS/ZuacJ0drIRKlPb8c+cczJUlLh03u93Or/NdMrUmqHwpSwQmFTB9ogBlg9BGORNk5FQr/6QbeKaswtvHzABcyZIAPdVKKYCD8xaJU2F6mngFrhJlo7Vu63S692htoypBufOoNQG0GR7pMrqdp1RiJi+ullhqMDL9wVBivP7WzVLI8imKZIUzElQvZ6SGV70yULuUCqicSy+oLFXKVPH8rCAIwt1FBMolkFUp6OR2bcqUDgIyScmQOHvsAuk1GjCwipHEQydIJpusLIms0pFuD7wpRn+34PF6y4yOYUBdCV3WaRZtuIAWWt1ZDEbfD7l5Kt4c5UJySM4R3+vPVEobuUxKk+CIg3ejDDxRBepcsHFAlbBbVRJCJCq6xGV2P8kteLzeEiIDeLaCQpTVxoSt2T5HnEu6cF9PmBZBlu9HDARBEO4aIlAugSJLaytJVLl/uNvtfNfX7N6VPD9WKNqxM0lMTeTQMYU6NapQuk4Fyp0/yebMK5xOlImKyhlD9cdkVAk6foLNdu+qdPa0FnZFl4703FRE/sT0G8QLtSQSt/7F+/k8IFgi+RsxqSr2+GO588DzmDl+1gyEUC3yJox2loYHVJXadYM85hrnvdKGmihFMUYZS8MDqkJSmp3jZxSeqGAkuJ6Opy02Np2wcjxVJiVU5zy2TLARql+ysTNnDnMulQsXtbyoFnWtYbRE1T6hzC6nsPJgBi/m84BgieQvE6zC9pNWznjVKxuHEiRAokqp/OuVbNVx+KAEVRXK+1gJRhAE4W7geRYSSoLqlWmGyvG//mTy4USyrJ4nQt8C/GUgjRWr9nE2v1+JiwynjJpN6pF4NqeUo0VVB0rFmrQPSmTDuoskAxVCw5w716BxjIKkXGT61M0cSNUCDcmexon1c/l8mwPFrxqdalyPACSQmAd6MDjKTsraP/JdTaOkUYLr0DTagSElji9nH+CEcwkT2XqRPX8sYMJJA1llq9PFubRccecoF4ZSxo/2/ipx8Wa+2molKTP/IMqVPkAbLf5pZzKHUn0HVGopmeoKHEvIYNVlPe2q+6EYg2hd2sHMA1mcyJboHZwzXzaINuUVZMXO2DlpHErKyZNszqxJ4eVDOrKNBnrV8Z77XnQGqvb15/tghdV70/NdTaOkUUL9aR+mEpxp5ZUFWZxzlqVszSTuz1SevKLjRISR7gWtGnNUz0qjRPuqd0aeCIIgFIcIlEsgxdiYBzqa8Lcl8/fshbz46WSPucrzfP5MddWYCgSqIB3+hw8+yfvMYz9uyx11UqPCqaaqHNhwiIPVq9FGrwAViK2ukLLzFPGyntCQvLVda3VvTUs/BflCPN98O42nP5zCUx/P4+MN6WTojMT2bUVzrzmSxaPK0XQZ3o3epRykrP2D17cUP1iW4xa45NdiZiXr8LtygA8/yMmXFWyS87mYuK4iuKdvTapJKtZD//Dxp1O1ueafLmX8fhuKPpz7+za5tnnQhRZIrzbQTlUYv8NMm8mpXnOVP/PxM9XGWjIjUJFTbPSdluKyfwY7c+qVbKBKoMqGwzbe0xtpXt4B6ImtJHP+tENbnSEo59gSFTsbeFWvYk6y0XeGlo5aEzLpdhD+0Um83C6I2OtWrwLp+oA/XziD5Re2XEtgmMrPXycVuIybrzy8/vxp31VigKSy52wWXZxlWWtCNv3P6EiVdczvHET+l1QSRzcbWS+rPNk+03OjIAjCXUMEyiVUeNvBfDQ0hmbRegr7g29KjZ68268iNSIlnAsaeFHlCEoFaxur1qic+yMaOUE2hFCpdN5Io+IfyxNjuzCkdjBhBu1zqqwjrGINhj39EM/XvMZJkh4U/8r0ebQVLf0UUlcv5f0dSZ67lDhK6XsYN7o53cr7Y3Je3yh6HdExjXhubH8GRhYw6nedqXUjmTJIx0fhKk0LGYgqkWGM6ynzUphK5Xzroh+RQdrxqlQwUtN5K99YV9ZWd0CiemTej3QogaGMfMSPCeWhtU7bV5GhTZSe3x4MZWxM7q7XhRIYSO8H9LyqV1m6M4P3ttk8dylxlLIRfDTYvSwVWaJfRSN/PhJa4M9qy5dMfDJBj32QjYHBN6/+CYIg3G7EL/MJgiAILgxseSuUdv/ITJuRyEMFTc8QBEG4w+U7/iMIgiDcbSQu/xHEE2t09Hw1SwTJgiDc9cSIslDiJa+b7vyp6MIoz7B3unut1SwInuRLSbwxG+Z6rRrh25OdS/NKTEmesiGRvTmEQS/7c+TRbHaNTsHfcxdBEIS7jBhRFgRBEAAV/wAV/aPZbB6VKoJkQRAEMaIsCIIgCIIgCL6JEWVBEARBEARB8EEEyoIgCIIgCILgg9fUC0EQBEEQBEEQxIiyIAiCIAiCIPgkAmVBEARBEARB8EEEyoIgCIIgCILggwiUBUEQBEEQBMEHESgLgiAIgiAIgg8iUL7LpK5+n52D+rD1l8Mke24UCiVrUyIdv0tm4JJssj03CiWKbE1l9k+J1BqfxpJLojsUhBsnk02/JlJrfArfxnluu3WkXSE8+k04yY7C/VS9cPcRZ4a7yhWSVv8EnMW4aDfnJd8dg7z3Z3YOauL22rZf77nbXSqTLUfgIrD/hI0D+eShK9lsZsOCZB77IYk63yU7XynMuaLz3PUWy2T1lEQifzWTwNW/1x3hkIN3bDKy4mDRYZvnVkEQrhP5koUlqRKyovL8sdtkiOFgMMNeDmBWgsSVu6TLE4pOBMqA+cA09o0dWuKCQTl9L4fff47Nvxz23JSPKCI6jwIqYO3diHKqWELbuj+Jd39K4ts4g+emfJhoXROigXpVDcReJQ8lJYPFsyyMPAdbxIhFkRW9fIqoto73DQqKrKN3rRv0NwoheVMSL/6UehtePAmCb0Vtm0oZf+4NVVFkia+q+3luvulks4mPRwfwWws7+/8vmZpywX25cPcSgTLgOLMb26Xb6F5QYVnOYtm7AYoQgIV2focms/+k1fBahHtudFIaPE6T2TtpMnsnzd4Z67n5jqJcdjDLJmHx3FCAgLaRrB0Tzpx7/bhady8dsPKvLJlqEX4seTyU+DHhzlcYA6McnrsLHopTPkWhGEMZNCqSw6NDuLeM4rn5pkm97OAvmzhRCyVH0dumibbDIjk8OoyxMZ7bbjYDm/5j4k0jTHgxTQTJQoFEoCwIN1BmgoN0JPq1DKFagGhugiAIt5p80J9/rdbRdHQWj5cRU66Egl31J6wzjq/h9PT5ZMWtR7LKqBGPoD79BPUbh7qNpkmODM5vmMuV6YuwJR8DaqLW6oL85KPUq+pPzs2ZixMrcvr0NCqOMZD87w+wXA7G+vS3tGh9gSNvv4f5jB7rwx8T278Kwc75stvf34Ljv5OpaZ7JuV/nkn3qEKqpNWq35yn/cG3K5l4NXuHE241JkKdR7v2OVHC5La4d51sc7+6leT177v8LNg6/OYPdbq97fk/VGIva+gnCH+tM9cDij0ilLX2Fo5NCUH54j2aRriONezgy8FES7p1Dm8dr5v4/XSr4Fm3O99R4f8bSa5bzeAXzzDffsknYtIjL8+eQfepQXtkPfZR6dfPKvqjkfUnUWi/zweAwep1N4pN/YJZNQpEl+tYI4J0u/oR4jATICanMW+FgfKrEKQVMeoluFf14rauJSKO2r3bcq43CG5g+NpgmuWWfys9fO/hEl/e5I5VNOHoXPKZsWZ1AozgDHwyO9DmCLMcn0n+lzPryAZzt7+81Qu3YmEjsHpkezcL4quXV0uybnJDGsk0Opl9U2eKQUGRoEaZjWKtAelR1rUeZrJ6SxSCdP4cHy1xeauGDsyo7VInyJh3PdgqmXxX3NEiKlVNbM5i0XysbgIZBOh7qEES/qq4XBnnHjh8WRClc2qazPJ7sXJpXYmzFLJ+i0crFdaqVlG8ZafsGMOMZI1FrzXx4SGWtQ8KklxjSKJDXWnrXcOVcGn+us+fWwygj9K9hYvg9/kQ566x3GrwlhBjd8ktSrJzfYebnA7DCrM2VjzJCp8r+vNAxr45TzHSDSvaxVH7ZqjA3LSftOh5rFcAT9T33d2DencpXO2F+lkQ6UC9Cz+vdg2geebXyK4jW1kZWC0S5V+L0ury0R5h0vOajHsqpGaxbY+OH81p9NeklHo4JYFQ77z6CQpaPq5zj/5zbhiT6V3bvV1zT7dkv5NcPeLYfRYY20UbGdQ2iTrB3Ooqi8O0+x9XLvjht09dnctq6L555wlX6lG5RQajtbSxfkc2nCTKnFChv0vFK9xB6lXfZPZeBLW+F0u4fmYV/XeFeffHP28LdocAhruRlb3P49Zex7NmIZNV2lZKmIf/nK/Yl5jU0yXGW4//ux4XvvnIGyQBHkA7/gPrag+xcnoBrk9Cd20/St4OxXL4IHMEwfQHxX7+I+cwJ4AjG6Us4ZnZN2g70097j+Af/cQZiIGVuQf5jCCdnnnA79o11hdNfvuD2PSXrAeR1L5Ey6j/sdsmTu0nCb6M48+WHuWWTW/bv/snhQjzsVjCVZYuS6bhJyu00ZUVl4eFMxm1yD9ylfUk8PEthXLLWyQNk2lX+OGGh2S/p7MkqsLpfJ9oDcTkP7WmBkMrbs664PMiXjG6R9jCLUsefkf4KkedtbLZ7pi+TdUdBkfUMaVLcupXKxBl2nnWZIy0rsD3JwfNL0plx1vu4gVYHX0/Nov8Z2KFqnzmX6eC1vzJYmezS7hUzq6al031XXtkA7MlwMG5JKs9syO/CqiSy8/0vZrodhLXOfMy0q/y83cxncR5B2+FEHp3vcKuHV6ww4WAmUw4VHBhfTdbaVDr9A786g2Scx559xEL9hVk+VmEpfLpBJWVNEu2WqnyR4pp2B5+uN3vMn7Zz9i+tXU51BskA+5PsDJuZyjeFfWyiIIqdjb+lu6U9yUc9lC+l8MVMKyPP5dXXTLvKxH2ZNJvh/WBqUctHvpDEuN+04+e1Ia1feefva6njmWyb5d5+ZAW2nrfSZ1oqSxK822bhFbXdF6Xsb5zi9CmVLmQyapaVsZe0IBlnf/XMkgx2uxwjh5yuZ8UyGXra6SyCZKEQPM/MueTDv3Jq4hJUYw/UlxZSceYumszeSZ2J84jqUx3X7iR1xZckH0zCHvsxYRP/pv7snTSduZXKL4xE5iz6X37ngEvgK6VNwnL8XQxTdhPdJQEpbTxZ+7qhfreHyg82A5ZiPeWeNPXAXBytv8g9fuwXH2I0OvCbv5K47Hy/Rr5c5+HWeKIzOEdhc97TXg+6jSZnbphEwtad2Dt/S8TE3TSZvZOmM9dTYcwodNbfyfp9T+4J48ZpSM05e7T5w99/gB4VS69ZHune6TH6m/eZJrMnE6x6j5oVXzwpi3eilH+fwGlaHWkyeycxX04lqG2A587FssEMSoSBPx4JI35MCPtaK8SqMO10du5JULamMnEzbJckRrQOYu/ICOLHhHFgiJEvghX8rDZe36jNplPqR+TOFd4do+XTk51Lu8wfDid+TJDHaGUojz+X8zmZ1xzXNtqTJ5BudQDsLNjhXi7y6SzmZEhUr+ZPa0PxO/SgEB2fdA5k20jtux0eaWJFLZVgVMYf8J5haLI4mGGTefaeQPaOjODwSBPzyynIip1vduftn7U2k2fSZZQwA388pM2/PjwyiM3NVZqpsHJ/FivSi9E2i1U+RePfuZTX3yiYygYzNKwQwMpR4RwaHcy62nZA5fWT7nl4LF5huyTxVtew3L9xeIQfi+tAGZfscE3D0nJ256h2lNv3TBwW6Db6rhp0DKrpz9LBIc59wjg4QMfzepWQizbWe+V34dMtH05i7AGZVFni+VaBbMttQ37MrAQml+yWD6cy7piO1DA9cx/Qvueh0cFs7KgyQFL4aJOZM9d4kVzzjJXHMnQ80kBLy6HRgbn1cMXRnLZi4Z/ldn6wyzzeLCfN4Rx+2MjEMgpySjYT97oft7DlAyAp6cz6A+apEs2q+vPXUO0zh0cGsKYF1DYUvw7at1gYnSRTp5zrcU2sbaTSwuFg+EazjwufwitKuy9s2Renbbp+5nCHgvOrOH2KnxVWO2Seah3EntHhHB7px/8CtT5/wwnvCx9O6plplOhZ34a/5zZB8MGzV811fv23KDTF8fqHNG1dnlI6rYKbQqtQadhQGuVODzjLlSVzUI3P4P96D6qFGjAAqs5IZNvRVBjSDsk6iewD7kFA9vDB1A9UCKoyGADbwCdpUNqBITgEOIvkERfY+86nxksdc4/vV7EX0QNaAH9iOZbv17iOMkjc+C1qyDuEPNWWKqFaAlVdEKU7PkZUhwSMGw9y+hpPDiVPEHK5FKSEjaQfTMnt2APK16PWC/dfdVWIwqhb2p8FQ4KpHSoBOgxNjAzRqxgUl2PvtfOpXaJh3UDGNTFgNKqAhC4ykN4P6HgBlYOnbRy54eVjovOISI+TiXcA5Hpr1tBCS98Px7NIcznShUMqqyU9Y1peS3ceyoMjQukTYyTYqL2jGP2o3AC6qyqbbN4BeLZRz5cDIhhTz4jRqKIY/Yi9T8cLisqa8zbnxUkGa4/KKLKenwaEUDtCa4OK0UBEi3A+r+1AVuzsOHbt5X+7aFrDxNS+/lQwgCrrKdvcwAhFBY/rznAT2p2QYxYSrVp9UwJNVO8SzrDa13b/K6B9BO93D6BKVM4In4RcNoRepR2Ag9Rs7/pduHSrHD+gBZBPdQhjdFMjwbltyESj+8O4t1TeB04fUdku6fjivjBio7W/qcp6omIjeL6mQnCmgz3J19YvZxv1fNUnjLfba2lRZSOxtSEYSLdoaZFTLaxMkSlTzcRrLXPSDEp4IB36aHX27XPuQWFRykc6YOMTh0SFCgFMujeAqmHO/Y3+lG0ezvOtfARihZLN7qMKV4wGPuxncjmuH9FtQ3i1lIPwi/ZCLT/pW1HafdHK/sYpXp+iyBKvdgvlxSYG/GRQjCa61dbyLdtHslNP6zgmQaOy3oMEguBLPj3ZFbJOnkc1diOw4dVuuSTiOB+KvUFTygd4n3RL12wEgCMlw+Xdfhibhrn9X9+hTIFzWaVG1b1WaShdvaHPoPrGOItlXxhS2vtkDm7ssc5way6vL4VkPY41qbgdW0lVgeqvTMFPtwj5P53YP3wMu75dRtxpX7eBi6dNvRAqSq6do45If/fOMjNNASS6VPYexVYCjdQKVDFZ1Jsw4l90ijGU+yspVE2ysui8duKVlDTWH5NJLGekW5iP3r4IlHNpLJiexNDv89ZxrjVHYm4+J+E0f5nmZTxORkYDtUyuFycOzlskToXpaeLV7iXKRmtdy+n0wozWlgQS/Zua3OaQK6ESpX1cB4R3NjEpRGH7CQttJyQxcEYac3dYSXcGZddCUrI4tjaZd39KornLVJ6eznrjrbDpzuJ4qhakdKp3tXRmcfqKBDh45Tf3KUV1vkvmnsM6wMGJy/mcXgopzV+mWXn3tCh1I9k2Jpzv2zvPS+cczJUlLh03e6Wj1gSVL2WJwCSH2/SLopSP9jAu9I0J9np+4NpYOJQq42e18YBLu9Re6Qy+okNWFM5fw8VG4dt9Ucr+Ripen5IYZKBfDfd8Mga5/deNZL+V31EoiQpuhf7a6G1hqEFGnBeuN43NcjNPwtngnKcteIjuQv3JW6jwxkcE1AtA2fI6WS+3Zd/YWcTdlHnBeXJGT0oWiYoNJTqrCn8c1kY5pMM2Ztpl/lM/6JpO0NLBvPmYOfM3i0fF6iNet/tJ15S+O5EqB9J2WAS7++j4urJEVKqdt7aaaTop+Rp/kSyTTb9mct8B7SGnG3HRZ9NTiPJUsXgF2reIo+j5UPTykfDTX/8vnO0ZC15HxWn3hSv7G0/0KcLtJp8oJhhDGZDStpF2Np9dcvkhhVgxbN7OKR9zhS8f2Q1UwFDOczz4WmVzacdsoBNSuHsnpjt2iVSX/0uODE5v2OTyTnGUR18nCaX8x4TMyZuL6/4aR+Pwa+n9tqNccu/U0rZuwnyVFS5uB6ouiNJNulP31c9oNnUjFYb0Rr70MSnzj3vuekPoA3SAyoKj3rfTZLOVw2aJhBCJitf/fHddKJUCGRqq8s8RCwckOwf3qWwNNNCzpo/otNDs7N6nsl2CrnUD2eScqxg/JpzDA1UeKMK0GPl0Nn9aJVICdYSgAjLBRqh+ycZOm2e7V7lwUWsH1aLcT3mRGSpnXKq4pGSxK77w6Sg5JPwrhtC9dxg/PB3Onp4qA1WFzzdmFPt2unzSwqR0iWyjnkkDXNfkzpnjfC2MRAao+Fnt7D3jWZ6eTFQLVQA945/Km2bk+Xq21rVNMymU0vCAqlK7bpDX3895pQ01uc3z1hSufEwhMqCy6lSW26cLEpjqPoItm82s9jqPGqgSopLpb2Th2Lw5vO6vEHoX625SUdt9Ucr+Ripen1JUIRW1trL7wrVMaRPuJp610cmPiEZjgaXw4Vfs2n+JNOeTszbLOc79Os1lhYc6BHeqj2T9CvMXSzmeasPmDE4vLvuMszM3ooY8RnDd4jR4F4lJpDifYHXYEjk/+3Murs3CHtOH6Ao5wak/+kCQrCswb0wlG7CnHOLoly9wee0ut8O5MgaWAkCd8xfHU/PJEqIIbdkX+dw3JP64iVNX7NdtagG5aTgLq//hnCLl5t/xzyeSb+jtH4JRVfFbNZedRy3XNT2FJSes4sCnC4k7nZJbR1RdECHNmqJHRbX4PlnKlgP89r+feeq/03l/R5Ln5iIz1pJ4SFHZFZfB/3basFolQEW5kMYvvzv4EolHanmfMLUAG37amcyhVM8TyM3kT/tYiLLaWb7LwtrLMs82DqSi10mtKGyYLRIgUS1ST6QRJMVO2sl05q2A5fkEbIFWlQu5tzcdKOfSmLBMYrUk83FMgHO0J4g25bUHq8bOSeNQklZLZWs2Z9ak8PIhHdlGA73q5LR7HSE6VXsQa5tWJ+TkDFb8nsXgAm7R3z7lU1iZbJyTwowdVpIyc1quREC0H+1NKn5WfLZTvVGrr9M2mDnru8lApspeSSLNXyI6Sssz2ZzJsbXJfH3hWi+m9cRWkglG5c2/UpgdZ3W2Ie1vxP2Z4rYKQ7XKMsHYeWV2KgfOKzd0dLQgShk/2vurxMWb+Wqra57np4jlU1XHCFT2HDTz4RoL55yfka02Evck8dVW1wsULdArl2JlyUmHS/9j4SWvhyxNNKmgYLJYeXtBJievXOP50U1R233Ryj73U9e9bRa1TymmmnbeylZZus9QhB9LEe5m+a6jLDnOcvKjZ0jcfdZzE9DPbb1f2byX+FceIONKsOeOqMZOKG98SvN6WkdxcWJFzi8bmft5z/WDtf+vLtR6x6rxQfjfWzQtnddwMjd8TPzXs9z2gwooTVqi3zkXm4/1gOWUTRx4ZjRZNs95fu7rKMtZ8cS/8hIZl3MWZnJX2LWJfckvDUqZR/DTfU96w798HDuDM/+9n4SdruPnGtd1j3PyND/2mP+5rDutrUWdfEi7ePDFMnIdbbprZS0nLGH3M29h91iCSdMG+3tf06Ku50kCktdN542NVgCyo2L599MtvIJCz/V18/hak1db3qjbQdnnrdjACD8WDAn0mOsMcmIK/5mpMMUr/e5rgV5tzVvP9W5z5Ld+qi+SksbvP9l5xyGhyAZmPR1MY4/0FtXV0u2+FrSWr8+4Lc2Yp2YlE3Puz/s1QtmcyoRpDj71MedPkSWe6+j+C1z2LUm03ul9q7xZhIxfooOYLmW81lYtbPkUjfea2J5c61z+Zehr3dyC87B6VRPzfPyio3w4kYeXy2z3SJJrvZKtqUyY7Du/Ne5rQRct3drSXBt/s/BEmq+0e64zncmmX7Py2Tf/9lA4WvpeDfcr1DGkg4k8tlZicz5TDNz7j6KWj0ryhiT675Vzl+Nz1blBSN58aVTOLk6k60nvoHJguMqcZNktD2VrKrOm2HnHa/RUU5h12vNTtHZf1LLXFK5tFpzfeORh0foUX+cBTf7nDgADa8aF0XODxKSliTwSXHC/LAj51l5VV4Eq46ZTdszzGMrk1MwKOKo8Dm8+T32XH8VQAhtQ57PlhHcfjBRSTvu8MRa15XuYvvoyN0i+XtSQjtDjW8J+etMtSAYwtX+BskOHog/QgkQ14hGUN3+l8ZONkfPpcJWwtlT+4Cv8G7ZDNeY/IqEE1KH211Mp9eAj6MKre26+JkpYW6q8+wH+FasCoJpao/SdStmvhxMU7GsMCiCIys/97JbvN5tS6l4q/Otjt7xTTa1RW75HwPjxPoNkgMiWDekcpKDKRqo1q+4VJBedRFinCNa2UxkWCNHOd6OMOkY3NbFmsHeQDKBEhjGup8xLYSqVfSf1plHlELrV0Opz2SrGaw6SAQI6hrK4DnR0rlqjyBL9KhqYM8TA+8738hhp2ETHGxEqrV22NQzS8U6HIBa6BMkASmAoIx/xY0J5cvdXZGgTpee3B0O9fqZW3zqYebWhk/N7RRl1vNohiOmdHbnl5el2Kp/CMdH1PgPfuOQJLnm42EeQDKDUiuDH9u5115NiDGVkLz0vham5+5Q36Xi3VRBbGnmWZdGpciDthgazvLHKYINKzrBHeZOOdzoEegRKJp/73gpq3UimDNLxUbhK06u2maKWj0R4+wiW9ZTc6qBJLzGopj/vt3T/0ZqKvQKYWY7c/cqbdHx0byj/qe+ym5NiDGXwCBPzqkOva1hmzpeitfuilr3mRrTNovYpxWOj8+BsOigSX68weW4UBC/5jijfLgr3y3CCcCewET83jX4XdT5HcARBEITrQft1vo5rZcbPSxY/Yy0U6DpdBwqCcC1kcyZ75qYx7KJM9aoB3C+CZEEQhBvERtvnsnjaCCNfDGX9TV6dSShZxIjyDaDNw85/jq8r9/nBwt3Gcy6hEmZk1cNBPqeJnJyfUMB6ue6ubY5oyeGZfwW7lnnNQnGI8rl2ot3fONKuEO5/JoDF99iJ/08SNWWRb4I3cRklCLeBnDmPWwb5DpIFQRCE60ttnMbC77MYXNNBlOh2hXzc9iPKgiAIgiAIgnAriBFlQRAEQRAEQfBBBMqCIAiCIAiC4IMIlAVBEARBEATBB69Aed7Kv4k7ds7zbUEQBEEQBEG4q3gFyoIgCIIgCIIgiEBZEARBEARBEHwSgbIgCIIgCIIg+CACZUEQBEEQBEHwQQTKgiAIgiAIguCDCJSFWySBDRMm8tR/p/PVEavnRkEQhLtG8qZZPPfBFMYsOo7Zc6MgCLeU109Yz1v5NzFVKxBTvbzr24JwXckJa/ngx5OcliClbgdm9q/muYtwV8tk9ZQsnjHnXcsnhBiJHxZEKdy6LC+SksWB5RYmnFb5yyblvv9k59K8EmNz27cwLKsTaBRn4IPBkQyMcnhuFoRrlMCa7/9kVrIOKM+wd7rTVim4jgvXTracYvWi7Sw9nkZKbj8RQtfRgxgYIdq5kEeMKN9gcvoBZk6cxrBFxz033XSXN83hg88XMCdJ57npplNKxdK+jB1VNtK6XgXPzTdN1uGlfPTlVL46YvDcJJRINuLmmhlwDLcg+U4ip6Yx67ckGi3J9twklEilaNQwCKMKuobVaSSC5BtOUs6ycOJKZh5KdwmSBcE3ESjfaJYEjl+0Yyv6QNZ1l3Q+ibMWxfPtW6QU7Uc+yY9vPMzzNY2eG28ay4UkTpoVRMhxuzHReUQk8WPCiR/jx/eBhau38qV0fr0kk24yMPvhUOfntVdxRpNvSxY7e5NhX+GyRCgBwtsO5uu3R/Bd72oEem4Urjvp0HYWpuqQKzbgxVcf5Ye3RjhfA8RosuBFBMqCINw5LsNcSeKRekHUDxfdmyAI3hIvZwI66ndoQW2j6CeEgt2xc5QzT/zN9NVH2HvZjlUBfUA4Dbt1ZHj9UFzHLyUljWP/rOP3TVc4adFuwRiiStO5Z0f6Vza57AnJ66bzxsZSPPpmK8puWMXkrclctkkoRhM1O3bi+ealnMfezy/vb2OLXPAtnWoPjuS1mnmjXJ5pUWUdoVVr8+j9rajnMqLmiFvAa3NTSAmP4dVnWlFHyitCLY1WlLod+F//alid/y9IdlQs/366BRXVG3/LT45bwKh5KW7veeZDDm1fha6jB9Dj9GK+W3WZkxYJRa+jTMN7eLl7ZcJk9zTLyYdZvmofS46mk+kAxWgkum5DHutWj6pGbV9fafDmPVdQSTzI6jVxrHTOaVNlHYFlStOlS3vuc6srWvnv6fwAn9U5ze/zt7P5Ilgl0JetweODO9DExwipnH6M1ct2586ZU/Q6ouu1YmyPWpTWu39PJXE/8xfuZ90FS4H1+8azkfRPBj/sV5mfJZEONAzS8UArEw/W1nvujJyawbo1Nn44r7JDlTDpJR6OCWBUO39CPMoyjzZfeZDO/6pzlOV9SdRaLxV7PrIveXOUw+h1NokPtsJ8h4RJr2NYywBebOQ5bUcl+1gqv2xVmJ4icRGIMkK/2iaf31NSsji63sLUwyqzbBKKDC3C9IzuGEjbsjkn8VR+/trBJ7qC+5Tr+b0LptXxv+rdw6y+URzfuDq3P5RDytC1f2cGVPBz+0RO/f4zt22aqN26DU+0qejVjsHMpZ1/M23zWY6kam3FEFWaVl3aM7RGsMe+msL1+Xnp9nwuQus7/b3mqBa2Xy467/OE7+c1tDnMP5btxLT6x/l4zhlOq37UHTiQF0P/4fMpR4h3+FG+5338q3Fo7qcK31/l7L+f3+fvZnOCln+e3PtpB+m71/LTxnO55aMvW5Eh/TvTLrzgOlqwG12vNPmVtSD4ckdeSiWvm85L0+PYfjGvwduzktnx5yr+dJmfKykXWT3hdz5ZlZgbJAPYrlxm2bTfGbcpOfe9PBdZ/MOffLwhhcvOuU2yNZNjy5fy5REfvUuhJbBl2gK3tEiKg7RjB/nm6zlu84p1Mf14riEYUuL4ZOnZ3Pfly+uYsCkbR0A1xvSrfofcwktj16xZvLo4ITdfZLuDhB2r+feWVLc95dQtfPH9JuYc0jpMANlq5fLubXyzzX3fotvPr9//zRyXOW2S4iDzwgUWTlvM1AveQWHq7qW89+N21l7SgmQA+4WjfDPtb85I7icT+fI6PvpmvducOdnu4PLuTXz0t3vapaMreO/H7aw4pwXJ5Nbv+YxedJqCL4uuJ5Wzi1Npsw2mOoNkgD0ZDv610sJOz+94KYUvZloZeQ52qNq2TLvKxH2ZNJthJoHinWBPzk+gznfJ1PkumVrrtWNMXH0597063yUT+Wvxj5/j7+VJdNwkMd+Rk3YHP24y89Nx1zn/Kilrkmi3VOULZ5AMcMWK83tmcMb53TUWtv1m5r4DMCun3BXYnmSnz8qsa07zjSYpV1g96Xe3/lBJu8SyX5eyJCPv9CIn7OCbH7X6ndc2MzmybiUv/LzDqz2cWjibd/86nRuE4eyXN8zayiYfAxCF7fOLrvD98o0WcHkv38w/wxmHhKRY2blhJT9MPcIhm/b/s6v2sCc3H4vWX8mX1/HZj9tYe8l3kOwum1OLZ/Dq4jNu5WO/cIZp38/kq2NXPcBVXf96lcCa7yfx9IdTePrDKc7BozRWjs977+kPpzBk/q1/lki4/dxxI8ry0aW8OPMiGbpAGvRqx9B65QjTqyjJp9mxcT/n295PX+cVZM7oq6VMDK8OakpsqB7Jbubi3uV8siSVDF0UfZ7vw30mreHn7A9grN2C1/rGUlGXzeU1c3hnq5XEhp2Z3buSe3qcqzvsjfU1UpDH+vdMnltpQa3ViFd6NqRmsIRkT+PM9tX8b2UKF2q3Zsqg2rkjI1qQv4hZVwKJGTKYF6peZtkPi5mbGk63UYMYGOl9lRw/+ye+PBx121xF54zsFjyirI38KmXr8PyglsQGK2TvXMybS5JIjG7AxyObUsY5Em7e8Bsvr7dRofsgXm8aiEEG2ZrMqf1bmGdty/Ot8kZbcuSUaX5pyLOfWePP4d+lKd2rlCLAqCLZ0zixajEfbc/G2qQbP/fKaTN5I0WKPpwOD3bjwaomdKm7+fXHXWy1hdJlzCAGhWllIClH+f2L9azKljE1bM7oe+pSM1jymfacfVfawmj1wD08UiMSgwzq5TjmL9jM8oQQWo0awohSN6N8U/ntWwdvBBhZ+LCJhgEy4EA5l8lfG6DsQyE0yb1LYWH7rxk8kqbn8WYmRjf2I9ioIiebWb/KwpOXZIa3j+CNBr5GgAoeUT45P4Ge570vVFwVdsUMX7QRZe34dcoF8G1vfyrq7Fxcncw9h/QcqWbC0Usb5ZIvJfHGbJit0/N+dxP9qurxkx0o58z8uMjOV3aJIa3D+L8mzqA4MZk3Zqh8VCaAy30DiDSCpNhJPZ3Foj0y3fp6pznnb3xUJRBHb/fRtZsnr46rspHKHTrwTMuKhMup7Jk7n+8Pq0T1HMIHTf2BJLZOnseU84FU796JkY3LEqZXcaSeZuNfa5lxTKFK3+GMq5cT1Bxi+gebWRVai9FPtaaZUatX1ouHWbrqCtGPdKCFy92vovT5RR1RLmq/XHz5p8t1VQxbWE1efboGp8cvYl6qDkdAOR4f2x6/mdP46UykS79SlP4qm30zfuG748FU6tieZ1pWJExvx3pxD1Om7WGbXJmnnu1KM4N2HszJ78Toqozp15bmUXokxcrlw2uYPO88h0Lr8tbYVlQr1h3KG1WvXFcWyZ/vEX3hbnfHjSgf3HUas6SjZr++jGmkNRwAObwSze+/16XDPMuWXRZUOZqHh7cmNlQ7Ear6QMo06c/LzXVIyhX2HfUOOAKadOa/A+tSwaCiykbKtKhCHUVFZ7N77lpIaew8mIHiV40nBzamZrB2wlD1IVRo1YuHq9oIPnqO3S6jLqocTZfhLWllsLD/j5XMW7Kaeckmqg/s7TNILsmkKo1557HWxAZLgA6/JnVpZVCQHA630dPg4AAAzh0+wKEsrWorxnAqNrnXZ5BcNPUYPLoHfWtFEeCcwqHqQ6jWpCyVVMi0eD8O6AiIYsATA3ikqgkjoAttRKeYnOA4bz/p0H5WZcsoddrxfu/Y3PL3lXbp+FG2WmRCu/bgsVpakAwglY5hYK9qhKtm4o6m5e5/Y+mJ9Ffxt9rZeCynzumQywdz35BglyAZ5FQLK1NkylQz8VpLI8HOPFTCA+nQR8cLisrb5yy5+xdFlf6lch/YO9xBO+6TnUu7PciXOCzQK+AsqnpVTczq708FA6iynrLNDYxQVHBpbhf2KsyVJB5vHcLg6nr8ZJx5EsKYHtBZVXn/ZHbew6PBEhUlqJRiZ8M5rVKosp6QKsE83Pfa03yjKX7hdH/yYd5sW4EwvYoqh9CoQQQAmRatdcrp8Ww9q8PauC2vNo/O7ZN1oZXoNKA+zRSVHSfPuBw1kLAQBX3GebYeTne2cR3G6Bj6DG3vFiRTpD6/qIreL99YOmp3b00dXRkqldG+U/WunWhtDMAUoH3nvH6lKP1VGleSdSjG8tzXrqIz/3QYo5vQv7EeXVYKJ9PzvuOJuLOYpXD6DulM8yjneVM2UqpODx5pCoaUc+xIvrbQ4vrXq1J0euaJ3If2/tvO6FwKLu+9H94aIYJkwadrq823nQQuJOhQ5fJ0qHu1kZYUEtIlMiuUpbnzStlVhUraPLjL6Tk3lHOE0LZlVbdpDUpwCOEu/y+6Cxw/p0POPs6k/0x2uxX09IczmHDSgKSkcMqj81H86zPs/nBCMs+zbI8VpW5LxtzCFSRulKotmlHRZR42hBIV7B1AKI168HwsqCcP8u2XPzP6u4X8uPEoZ6/T8j/WizuZO2UmL32UVz6jftLWgvYlvWpdenqsuxsS4j03UHuwBGIbxVx1ukz6hUTMEqQtn+1RT6YwauopkiU4npjo+bEbJJB775N5WFH4Zl0Gtcan8OacdDaf9nHBeM7BXFni0nGz25SIOt8lU2uCypeyRGCS4zaeaiAxpIUJ115FCZUo7VENszJUQE/T6t5dq1JFRzMFwswO0pzfUzGGMboDdLLZGLcklSY/pvDu4gwOXPSu37cjW3A5WpR2LzOl9v388NYIvmgbor1xPpF4WcK4a7V3nf10D9tlicCLV7iUG3BWoPeQ2lSXMtj/x3zGfvwr/565lbXnzT6mFRWlzy+q4vXLN040bWu7joiWp32j/Pv7wvdXfgQEqMjWcyz85wKZdglwYDu7ld932QETISE59TGJ4+cBkln2lfu0hac/nMK/t0tAGucTry1Pbky9EoTiubbafJtSDXq3E1pBFKP/VYOTG8+GrZjnRcme1wlYExNJcpv/eLcJJKbfCL5/ugODWkVQ2XKFXes28sEnk3l9i6/55oUnH1rEGxP3suKcJXcu3PWlw6i7eiWwKrdX+Splw3lvdBCr28m8FaawI8HO4wvTaTgpgz3OUX0AHHlzmO8Geu3mRqGo9SOY8mQAyxtLPB6ksO6kjQfmptB0RqbHfOYSSil6g1FKt+P11x7g3b41aBtt4MqJeGZOns0zX61mi9X7tFWUPr/wit8v32pF669CaNOrGmXUbM4uX8pLH0/m6Q9/5dlf4tmXLRHWsSXd9TmDSQ5wztG/5YpRrwShOLx7nBIthJBQBTn7EnvOFzwXCfwxGVWCjp9gs907G86e1k7r0aUjPTfdAGWoFKlgC4nh+bcfc7sV5Lq+Y86c1hzy5XV8tjCJy5Ub81Y3f/wvHeDLjUlu+9yN5MhqdOnSh3EvP8b3T9eniZ9K6ur1LM70LufCyWbb9guYJYhs1ZV/v5pXRj+NqkKlazyZRgb7Aw7ijuU8+pW/yNLaiHSV+4f7qCPay3Oe/I2mykbKNQxl+EMRLH8qkBW1VIwWG8+ud7m9WxoeUFVq1w1ymxLh+kobarrtpxpcjd4oAXa2HvT+HvJJB9tlMIfrvb6nYgygUpswxg6NYP1If2aVVjAnZfPtdu/jlDhRYVRSQW3V26uu5rymPNkk91mDHKocQtl67Rg+fAjfvD6Acc380GecZsIq12kaRenz8/gnpriNNMqWU2w6lOW2T3H75VuvqP1VNoe3nuaiLpAyZfXkrJamCwqnaZ/+/Lut6/3SUpQt5QCiGfD64z7yQ3s9X72g5z2uk2LWK0EoquJGDrcpP+rXCAbMbJixgOmHE523kcCefZE9C5fwR+5TyjVoHKMgKReZPnUzB1K128WSPY0T6+fy+TYHil81OtXwcRu5KPyNmFSV0PjdTDuR6ePWIUAp6tc0YkiLY/zsXRxNyspnvzyy5QCTph7jmBTBQ/0bU7FFd0aUs2Nev5RPjvj+dIC/DKSxYtW+Qk1HkC9v5JOPJjPq0z+Yk1j4k9CtcmThTL7eeJSTlrxOWh9cjaYVVcBBlsvKJjkC/bUmcHDdRg6k59ehmknLkAAdkaUiCTOqSIqV5LM7mbPwjI9bmUVUvSx1ULFuXcFHq49xwvnYuWQ3c3HPYr7a6rLqRfXKNEPl+F9/MvlwIlk5y2lclZm4BdptyWeWHMfsubkY5EvJfDsjjc2nbVid6VBlHRVqQndVZZMtb0qTUsaP9v4qcfFmvtpqJSnTe7rTrZBbxz+ex88nfLeboqhUXSJWhcmbUpl1zE62AuAg+0gyXyyD1ZLMN3Xy7mHJBxN5cWEGB84rzn1B1RuoUR1iVUi3+AjC/GWCVah+JptZuXPDC3L9y74olFI1aBTigH+W8+U/F0nI+aL5kBO28P0vG1h7Pjm3/1blQMrHRvuYX1uUPp/cARL/SydZdErLCfXyfqZOWsWiBM8+ruj98u2hqP3VETbtU7HWiOXZB/vy/kvaD3B893xfRvpYbrJuzSjgInOmrmf7ZQsuzfymKmq9Kr5b236EW++OW/VCUi6yetIiZl329RS8+++4y5YDTPr2b/7O9r5eUGUjdQcOdPvVOF9PRWsKemI558lc7/S4rrQgWw8x87tNrM5n1NP9aVwzO36bzoSTBqrcP5RxDbR1XOXULXzxbTxxcqjPlS9ynlY2e3SU+a2jnPPEN4C5UmO+HtbwGudiX/3JY1PHAblz0PJfFUM7zlRdA7d0a6t6eHbrGkuZBrw/sqnXd8zJs3ivubHu6yi7rnjii3v55F8f8qtDyRtm8e66rNxl5Fy55glA8qZZvLvG976edTzPUWZ/vJ5VdhnQ0XDoY4yucm0XgTmrL8z1OQdQYky3MJ6t5fLOwUQeWyuxOZ/pBK5rAOesh5w/A9PHuj8wiMvnCruesGudye+J97x1lCMZ6DbnXFvbeGQ119UnbJycn0bP877bcb2qJn671y93mkBB31ORdXw5MJx7vVYwyVlBxLsd+f7e17/sc+r42tL1fPYdnuRDi3h97hWS89nNrS90rhTkHdAB+BEzZDDPu8wBL0qfD3Bq4RT+u9dtJwAqlg3izAXZ/RxRpH65aK7Wp+T1y5ed/Wal3D5Jq7dVPf6ft6LR1Y7tnu5T/PHpKv7yNaVF1hFevir39e1A+9CcQDSBDRP+4Def+Z3/+aRwbly9cpVfP+zbjWg/Qkni3TJKOFWOpvMTD/Jal0iqBLp0pmGRtO7ThT4ujULxj+WJsV0YUjuYMIPW0lRZR1jFGgx7+qHr9NPKEbR5qJvb3/BFMdZm8LP383TjUCr4578fQPK6P5hw0kB6jdY86wySAZTQ1jzTNQBJSWPR/K1e8xuVGj15t19FakRKOB+ELpBf844MCNfyK+B8Ikd8BkS3j7o97+MJj/zTBYVTp1sXvnzcO0jGmWdjhtWlWXTeLUdfItr35qWWIZR2lqGi1xEdE8Pjz7SjS+78veILbz+Yj4bGuKVDMZoo37Qt41q6r9gR3tZ736urwQP3RhKoAjg4cela15UGpUwob3SSeSlMpXJOmmWJrpF6fh0S6hYkA6h1I5kySMdH4SpN3R7OvHXq3lOX2gYVRR9C90YVPDcXg4Eq/UNY20hlsEEl56cxypt0vNMhiDkuQTKAGhvEmhYwLBCine+Z9BL9Khr585FQH0EygD8tBgQwoTy0LsS89htR9kWl1O7Nh081o1t5f0ze8b0bpVR7xgys7t4W9DpKV6zBI88McQuSKWKfD1Dlvp48WSsg99hSWBl6PPIg77T2DvyK0i/fTorWX1WmZ5cwjKr2A02hLt9TUhyknDnKtO+XsDZ3imIpOvjI71uhKPWq+G59+xFurTtuRFm4vlLWTGXcZgVLGfc1i4WSR1L2MuXDHWyRJWKGjLw58wiF24IoeyE/csJGPppwhKO12/NJ/5puv2YnW8+xdOJS5iXr8h2dvRuI9nN3u7WXg8JtS1KspBzbwG87tNGYCo1riyC5BLNnX2T3wn1skSUcAdXoWE3cOrxbiLIXCpJ48DTHVQnZbiXFmjddQ7KbSTpznANmGQihWqTnSPTdQbQfQYwoC1485whKVRrz5sONPNYyFkoK13m4qhxIoyF9GV31ekwrEm53ouxvjoKej/B0bXN4r7/8nl1x5d+sG5/0KO/1YF9BrjZP2p37MyG3C9F+BMSIslAQQ1Qkrfv056uhDUWQXMIpRiPRMY149rnBoqO/y4iyFwqi1OjJvx9vQLfy/m7P0Wjzwitw/yMP8mURg+Q7iWg/ghhRFgRBEARBEAQfxIiyIAiCIAiCIPggAmVBEARBEARB8EEEyoIgCIIgCILggwiUBUEQBEEQBMEHESgLgiAIgiAIgg8iUBYEQRAEQRAEH0SgLAiCIAiCIAg+iEBZEARBEARBEHwQgbKQLzkrnsNj7mXH8C/Yc1nnuVm4xW5s+Vzh1Id92DH0ZbbtVzw33sZKarqFO4PEpSXhjJgXgsVzkyAIJdJdHSjLcQt4+sMpfHLE4LnpjpayZw4H3nyanYOa5L42/3zEczc4spmMyxeRMqdh3p3iubVY5L0/u/3dnYOasG2/3nO3q9jDkYEN+edf6zgrSZ4b7x7FKJ/Clr2c8A+pu88gWddg++eY5+bbVklLd9rSV9g56N9sT7zeFzrCraEn45LEP58FMGhJsOdGQRBKoLs6UL4bZW/7nuMf/IfsI/94bvJWsw1BpaNRTY8Q2CjMc+tdRAvMdw5qwpbx+0n32Hq9gp0rqz9lz6gvCn+cIpZPUcpeKdWC0EYVUY2dMLSo7rn5pjEfmMa+sUMLfTF169OdV1fyXn3YPvb/2DlnH+eUu/fCTk5IZcH0JB77IYk63yVTa3wK4/7MYH+imrfPpSTe+lbbXtBLtyjb7dgAcmIy732jfbbUfAvee4C8z/vYtcanMHZmOttc0pHfvr5ez2xwuHzKRvXH0pkzxMbyDwN4a5/JZZsgCCWRCJTvKlc4/8d/gZ6o726h1sxdNJm9kyazd9Lm8ZqeO6ME1KHWd0to+stLNCztejIoPqXB47l/s9k7Yz033/b8Vk8n/kIhA9kish//Gkdyhufb+Spa+RSt7CGKym/9SdPfPqd5vVvXTTjO7MZ2Kc7z7QLcHul2dxb50p8wazgXxs4kLut2SdfNk/lPEg/PUhiXLLHFoV0syIrKgjM2Bs40s/M63BmyxSnMkA08X1Eh8ryNzfbC5bOsqKxMtDP093TmXi7cZwpmI3aMmZ/KwkfvmVhbyHQIgnB7Ei34rnIOe3wEtmaDqFLPjyCd+wiKUDBHtaEYQ/7Aseo4Ns+Ntz1R9jeTpdes3AuRpjO3UvvLCQRWLYWc8DHJMw6VwPpTfJKSysx/4B+dxLP3BLJ3ZATxY8I5NDqYf+7T815I3lxypUwEH47VtsePCefwQJUHVJUjlU2578WPCcfR28/tb0Am647CkbIGnqkFsaqdv/fnX8c7NwjJ+xsPG/g2UkVWHAz9Jyt3H6V+Xjrix4RzuIN2PNfPxo8J5/v23hfOqi6bEW9Z6HxOx2t/BnpuFgShBJEcmWfcepN5K/8mpmoFYqqXd327hEhgzfd/8nNwM759MJxdC7fx59F0Mh0ghZWhW9/ODKiQ18HKcQsYNS/l/9u78+goqrSBw7+q7nQ20gRIWMIOAkIggQCBKI6IIqIoiHyguLGIguAyjAKKM6MwirvAICKCICA7KuLCIiIIAgphGfY1YQuQkITs6XRXfX900umlshDAAeZ9zulzoLuqcvveqltv3XrrNo36DmGEeS3zvj1CfJaKZg6mdvtYXupSH+8uTruwj5/X7eenYxmkFyjoqongGtW5887buK++720229l4Vqw8xPqkPGwamAODaNy6A/07N6CG6tmRK1oGR39fz+JNKSTkObdduWEznri/Iy2Dr8SDSbs43OcJku9dWsIoolPGypc4MvNnt3d6oU17g3bVSh61TI1fStL8ZeQnHgSaoEX3JXhoX5qHlbyOuvtzto2fguOfu2nf0u79sUtq/FKSlv7kShnQrS1QMvZhb/4REeM7U0cvrkf9wiGOfPU1WRvno+eY0K2d0e94lPDe7akfVNE6dNZbWovJ1IxdSvKCmzF/8hzRhSd4Z31Zfeoo69g6TsxfQN6ubQDoVXuiPjSEenfWplphoOpb1768v6fvOmW3T3nbvqhN3JXVPoojhRNfzSF1zWYcaUfRLZHocYOpMrALjb3229T/rObs8u/I3b8BxaaiWzujxPWh8iOdXMsalcHXGPyX9iOysE6M1imt3IojizO/LiNl/ncUpB0FmqA3vRP1qSdo2TAA96cWnPUdS8Ci+6i65nPOLV6FI+MMurUbPDGSlreHU9yrlFzP6tkf2PncWPKaT3S1p/u+0yhxDmc+XoAt4wy6tS/6M4OIjq3uURbFkcX5Las4//2a4uOhak+Urr2p0TuK2t59iiOL0z99xYVlKygoapvmvQga1JMWEb7pLFpmAokLF5HuOn66ofZ7zmOfvVTquVReWQLTKvtz4PFKhFP+7RSt+3aDYIPguFjRcvYOVXm37UVmTnUwJCKInN4Bbm3jTKdoukGhS5TVI8BVk1L56zKYXUoZS1q3ZP58PcBKn9MKK35M4V5zRfsfIcR/0w05omxJP8InU9ay8KAzSAbQ08+xau5Kfsjy/crZvy5mzJfHiC/8TLVnk7R5HRO2Z3stuYe5U7ey9GAm6QXOW4WK5iAnKYkV875nTpLniUc9spJXZuxmzWlnkAxgz83h4OZ1fHHU+ySVzOZ53/Du2gsk5BVvO+PoPv49eSlLU9069YOzeHtuvVJfE//IcC7r8fDcQDIVEwE/9vPKobyc/Np8zi95noQJbxUGyQCHUXe9Se6wYfy+73JODvkkzR7q3LZbXq2Ssc9jqSJq+iYOPNeHzNWL0HOc30fJ+AV1+RBOb7zovXiFWG7rhb9tBjm/nvf+yEPaqtc4NPpvriAZQEldjv5ZD46O/4UTf0Ku6tVve1Czd3NwRBzJi+fhSHM+PKfY9qKuH8m5RUX7Q+Gyuz8nYdwY8nZtRLE5jzUl4xdYNYLU11dx9E+oEwDFcYpj43qR9PGkwiAZ4DDKoWnoo/oSvzrZYMR3DbZXXuLMjFk4Ms4AoGSsQpnyKrvLO7uGzYaGAqq/V8d7EfOnw0mY8AE217YXo743jp1HPPuJi2te5+TENz2Ph9TlsOhJTn6yhzSPpbM48e79nJ0x0fU9Fdte1F1vkjVtk8+DsGryJg6M6kaax/GzqnCf3eyzfHnp4SYaA+EZBcyM963ZKyFnr4NlipnbmpjQVStdajtoklT+9AvyIR0oUCv2HY3l0/VBO+YchU37/7ceGBfiRlLOXuT64peRyXFbJVr2vJ8PRw/k09G9ebapgqKlsXyrb4BzLukiGTWb89zzTzJt7ONM6l6VYB1O7TjIOa+TQ0BYBN3/rwcfvTyQaWMH8Ono3oxp5w9k88vORI9lD+1JJFvxJ7Z/fyaPHcC0sQOY8tI9PNfBSm3Fc8TCtnUts09q6E1b87fnn3Rt+7U7Q6nkyOCrtfuweaxx9Vjved912/imwV28P/agHlrMmcUbsUeOI2TK77QqvNVc9x+vYrH8ijJrLccreIJVDyzm3Pe/o9V4noBJvxNZWKZmX0ymku47eprxx4/kFphxjNjiysGNnr+B2i++RICf7whRRdhDbyOsWzMsX/3M/nzjw0dN/oGTM75Ht/SFCb+5ytJ84hSCw7Iw7/2As1udk0e513VEt+TC0eFdrvdilsQTO+52j1HzS2mfS3VpOeRZJE5+gayUEBxxb3u1/xsEVPEODiw4un1AyKRNrjqJ+mwB1hbVMCUsJvWYMzhzL0PR93P8c7dHncQs6esaTfZep6xyX1wzkbR9qdgj3yF0xlZXmeu/OASVU5i/WMzebO+23Y527DQFXWcQvmAHbRduocETdwHbKdh+0mtZT4rDxoXEzeyf8gka4OgSQ4Rb2WEd2o6N2Lt4b/s3CjZ5ztyhm+vheHg61T4pPh5a/Nu5X1l+WU+iW7nVC1u5GJ+OLe5jIuY767vtwi3Uf/9jgup6t00WiTNeIy+lK/qIFdR1tc9XhHVug3nvWyRt8z3mykNXKzP4drhF0Zi9OZNbZmWwYLuNTFvF+gVfOfx2QiXZaqJDqAYoNLrJRAh2Vu4o6yLGgXY6gy/W6WxSFIY1DTQcTa4oa5SNXg5YeNji/ZEQ4jrhfTa4IWj+Vbj36YcZ0bIaQWYd3Wyldc8o2mk6+cdP+AS/Wq0oxg/uSGSIApjwj2lBRz8NxeHwCk5b0m9YN3o2DSPQ4uxMdbOVRjG1qKdDTp7nc9ahwUFAPnv2JpJud/5Ns39NIu/qzaM3ud8SziB+XxaafyOe6tOGJiHOZXWzlTodu9O/YQEhR06zs7DcWrOBjHn8RKmvF9tbncu6BRAxS2YRojs88iedr3+Ucdu+ZOf+WIHG4/iNfIAmNcz4AbrJQnirPtTsHYspYTvpqRU7IZ7ZOAWNe9DHDqZFhNl1CzU4KASjLQaG1nL+Y/tvnCsclTf5VaLGrf2JucNZH5fPn4juD+OXMYH0wmDX2/kNX2OnLvYXRhNzU4ArHziw9i3c/Oq7mDmJFn/EZ/aMK+1qt72avIG0+HTszT+ixovdvNr/fmIebOCxvBb1GO2fuoMmEYGuOjGHNqN6XDSwnT9n4tlTpPywFN3yLAGju9Gosp+rzNVuHUadhzuh2GaSv9e7Tupgf3AyTZ+Ooa5ZRzdZCOv8AEG6Bg7fS1j3kfvtD3ck8aXhZB9PxhE3g9qdvFMI6mDrsZAmw8reduW7nqf9Q+2oH1Z8PATUvIXKbXOBFOyF+z0AQVYsfnbMR7aTdCqXgqLvWT+OlkNu8bj4UjN3kr09DVvPl4m6vTbhrvZpQINBQwnST1Cwp/QLgtLoraoy+1ELn9WGkDwHb2zJpu3MVF78IZfTOUZHc/mpJ3JZmqXQr0FAcZDbTGUwOhOP5OK8t+bp590ZhbNWZNDiGwdv5qi0bBjEuPaXVxYfYRqRdp2E8953EIUQ14sbMlAuCIkgJsxzJEGz1KJeFaPgF266rQN1PUZ4KxMWYjyqYDsbz7LZCxn59myGvul8PT09gRMG/Wv4nV3pV91Ozq5N/OOdWYz4/AcW7UxyBc3Fkjh22oSaf4yZb81ybdf5WsBnCX4oWjqJaddac6WQe3AzMBd9cGuvW/oxnFi43TkqllSRcqeQm3AG3dKaoIiyRoWcTO2fotZ9sZg2j+TigB788fIUdq4+yEmf+r48Wu3uVP1LMH4Lv+ewQbqAPW0lcA/+kb4pDXrdhgTqGuq5FC5WcKT9mpF0FjsK2u0x1PPKjTWWT/KmZT7zOJeVo31lXcBxpjL2qLbUDvTdr6o3aQ2AI9179pF2qN0aU8XtHS0kBFM5Rh91SyRa9CjM/1xH1EijumqHuUfzcm1bcWRxZtUc/jPiUY86PLMq3HtRtMD21BvzV8wXZ6CPuoXdg19h57x1HD5n900tSTxIjqJiWf4g//E6jrc98Qw5ior5eBJnLmOf1SpX4rZeVVgzOIh1sTDArLPyeB6dvsxk12XMBJJ6SONnRaVT4+ILEM1SibgwjYapdrZmlr3tR2KtLL3X3yOf+UrQQnRqel9zCSGuK2X3IDcMO/bLDJjUg9+5co6Lcp9Lo6s1uWPIU3wwsD0PtQylaso51n2/itHvfcmkw+7hegEFvufEEl1KjvLV5vCNNa6sAOeIX/n4U2vANKKnLiT0sbsJuLge7bNHSH6kL1vWGuWdVpQ/9bo+gzl5Fuk7StoRLKj/I4NIakB5wot8kmY/45Nf+9+iV7JwNW+Ge8x68eVc2r32MFEtK19mIJZC4hu9nDnH5ZwyLyBqEG3m/ESt4eMJbHgBbfnfyBwRS/yEzZ558gYXfFeLZvGnVvsqjB1cia8jNPxtBXRYWzzbxKXJZkuCCuiM+zrZbX7jTPqlmAA7Px3w7aSKZq441N+PD0M0Fvyeyfvlq9JLotoUrrnxDSHEJfmfOYTVs4fYmqViC7VSwyM/sLzy+WNbEtkKVOt4F+MKc5SnjR3A9KcbUK+UTQZHRNK1Zy/GjRrIh/0b0FjPZ+/yLexyjc7UoF41jQJrc154rXi7nq/e/F9oSUHZf0sYgQ0AnsU8b6fXLf2i17fEtjCeeaB0AZiDQcm4QJ777WQgb/d2shXf0doipvCmNOo5glbTlxA99d8Eh+3AMm2JQd5pxWk3d6dysx1oq7eS5TXKZgqMA74lf4/v91ZOHidXUbE3iKjgfngNCa2KCmg7D3s9ROZLzd3Nxe92+uRtx1yFPOvS+aNYbfj9to1Egxzz84d3AnXwi3Af3702qCc2kro/FS38BY+c/RhXfrsx3RRGrc730eK16bRduJrqndvgFz+cs5vdUsVq1cSMTl7/1QbHsPMV+3pHr9zqy6OrFiI7Ktyn6wSn2Uk2TKgqnXoij2+9+gdvJaVfAGhVKtGjm8JDusbHG7PYWfiQ9hVzWiXeT+H2Or59gRDi+uB7prgBqDYbyVk5hSkWDrJPbWXmggTOKSaiY5pUcCQpm4wsBTBRLbwaoRYdRbORdiqepStOGqReJLNh/nLm7EwiOb94RMMS0YjWoRpqfj5ZrnXCadXEgl/Gfj5ZsoMjqbk+6SHuLiVH+WoLjx4DTCX3w285fCaXrMIfE7h8lQhu2ROYSt7n2zitKSiOLM6uep8D46fgO0YESV++zo7VBzmVU1A8ehwaTXB0W9/8TTdpvy7i+X/NZuinm9hWOBtD2cKo13MMfvErSD3quUfVaHs/KqdQJ08k/kieq04yDq9k71ujsdMOS6fmPiPlzgD7G7TFf1zxdJGrQa99M5XCMrH88gqHv9hOwkVnvSsOG6mHVxH/dULxwjkZ2BUFAmphqR5EJZOOoyCLc5uWkfid8SwmAJZgZ0qBvvRHjl0sb9uU5mZC7miFYptE9ocrOeYqs3PfOrVwI7p1ICEtrrWLUiDjAhqghUUQVN0Pf6Ag7zSnVs3h/AbfwF7dM5f4Geu8jksrIbFtUQF7dnGgrIVHEVw/Bf+lE9i+/jRnSzhWjJR1/Kj7Uvn76lwSUhwUd4UOHMk5bNik872iEFndUqGH6IrSLkZ2D/eY29j5CmSmVaNhagEb0ku+sNZqVGFYQ+fI9oRNV+6+E0D+QT++MUFc/dJ6dCHEteyGnEd5UZpxp6i1+AsfPdjINTey+zzKo5q4d5DO7cwxRTFuaCx1C0dR0tbP55WNJXd46S3+wsIHGxX+r/SyFER34ZMe9VxBu2o7yMKPN/Fzju+JBp9tV1TJc7wWcy6TWcqIref8tCkkvjmICztPeS3l5DkHcArHX2tD2kHffMoieUPWc8vdIYBzure9zw4jt8Azh6EgZhTWtJfJDJjnMb/w2Rl1DXM1AeyRU4l4I87jASanPXwx/g82F04L5bsv4DGPsvvfUxynODI6jouJ4V5zGedzdsZQzqza5bUdCh/cep9mTzb1yEkFUA/NJX7sRz4XAZ51eKntU6Q8bX9p7QOQt/tzDrwzGc0gQMrrvsjtb5W9baNyl7QPeM6jXPa2Pfar7N0ceOkhslKKv0cR3XIH2ivvefyqX0nzZBvXqdF7JbuUbau5uzkwvB9ZmYFuy7nznE/baG7pIrqlL6bJY2nt9jcL9sxj74T3DduSEtqnPMdP0fzDJcm3+PHNY1aiDXLGS59HOYuV0/MZpvjz3VMhRHrNJASQ93Myrfeb6dYulEkdlBLnQlaz05k6W+ND1Y/pAyrT2agsJaxbMj/WjQnlriM6mxdfINYnN10IcT0w7hFvMH5h1Yh74EGmuAXJFVH1th6M7GCleuFUY5rZRM3mzRn0bCfu9JlMPpzb+8XRp1kIoW5TkxWVxT1IBtAszej33P0MbVOZOgHXU4caRoMx86k1/AX8ajT3/vCyaKG30uy9iQTVbwaAbu2GMuQ7bhrVlQCD2wLV+22hWr/HMFVpXPhOHbQaj6GPWEHjvxsFyQAteaBzEBYVCGtCl/rlH0nUTXWo1WOI99uAPzWfmkYdjzqpg6PBIHh1Lm0MgmQArenjNHjtVfybxHp/dM0KiBpEq4kzCI69DyXIWXd6UBx0m0KNfs52cwqj/uifCIntgm5xHit61cdQhiyg/usjS+yItNBbqf+vSQREd3Ktd7m04Chufn81Ve7uh2KNgMIH7vQObxA0aeI19NPXnrTAKG4aP5OA6HaF7zj3KfWvK6k3/GGvpUGP7EvdF8d67E+6tTN0m0Lo9Fc9gmQAv5aP+bRl2co+fvTISqyLVRgRqtPWLZhtE6AyvFUA254MMQySy6Im2FhiU6hXx2IYJAMERZp4SNeZdqzk9AsALTiUAc0dqJqddzZ4zl5UUcqOQN5ar9L6cZsEyUJcx27IEWXvkWAhhBDiz6I4/JndrzKDLBpbvkilvd+lXwgIIa4N1+bQiRBCCHFd8mPvx8E8nQSj/p4lQbIQ1zkJlIUQQogrwo+TiyrRZ6Efd4/NZULzP+VXdIQQV5EEykIIIcQVYcc/ANq+msuKe6/2b28KIf4MN1iOshBCCCGEEFeGjCgLIYQQQghhQAJlIYQQQgghDEigLIQQQgghhAGfHGUhhBBCCCGEjCgLIYQQQghhSAJlIYQQQgghDEigLIQQQgghhAEJlIUQQgghhDAggbIQQgghhBAGJFAWQgghhBDCgATKQgghhBBCGJBAWQghhBBCCAMSKAshhBBCCGFAAmUhhBBCCCEMSKAshBBCCCGEAQmUhRBCCCGEMCCBshBCCCGEEAYkUBZCCCGEEMKABMpCCCGEEEIYkEBZCCGEEEIIA/8P1ZGtvjGnXT0AAAAASUVORK5CYII=;" vertex="1" parent="1">
          <mxGeometry x="430" y="-90" width="264" height="71.36" as="geometry" />
        </mxCell>
        <mxCell id="PnWIzYzLt3JOAJieJ4XY-28" value="" style="shape=image;verticalLabelPosition=bottom;labelBackgroundColor=default;verticalAlign=top;aspect=fixed;imageAspect=0;image=data:image/png,iVBORw0KGgoAAAANSUhEUgAAAs0AAAC3CAYAAADpaWMPAAAAAXNSR0IArs4c6QAAAARnQU1BAACxjwv8YQUAAAAJcEhZcwAADsMAAA7DAcdvqGQAAGC3SURBVHhe7d13lBRV+vDxb1WnmZ4cyDkzDDkJIkEQTIiCAcyoiy5iWHcNuOrPd1fdNey6ZjGCGSSIElREMoKSc86ZyaF7unu6q94/unum00SG/HzO6XOgq7rm9r23qp669dRtxWM/pCOEEEIIIYQokxr6hhBCCCGEECKYBM1CCCGEEEJUQIJmIYQQQgghKiBBsxBCCCGEEBWQoFkIIYQQQogKSNAshBBCCCFEBSRoFkIIIYQQogISNAshhBBCCFEBCZqFEEIIIYSogATNQgghhBBCVECCZiGEEEIIISogQbMQQgghhBAVkKBZCCGEEEKICkjQLIQQQgghRAVqOGg+wu8/PMsrPyzmiKKELhRCCCGEEOK8VMNBcxaHcz7D7ZGAWQghhBBCXDhqOGgWQgghhBDiwqN47If00DerJpPF07uwwl7+6HJU2838pUe8738bmf7ZtWxquIB/XF6PvasmMnf3XAq0LWjRz9Kp931c28AAwO6FtzDtcCFJPWbzQNvQGL+Q32emsbDgMbpe/wRD4j1BS53rv+f/zc0hv2M/Xh3anJigpUIIIYQQQlROaBR6RinaUZb9MJIpO1+jQNsCgFr0IpsWTWBevjdobt32DuL1TZzYvxVHyOfVzGVszAdX7SH0CwmYIYPffsskRwfPhk384tueEEIIIYQQVVUDQXMq/W88xPg7DzL+ztm00nQ8sV9y513+97yv0lHmUpbjd7LU1oaktkt4YNQhnr59K9fWHQTaK+zYbwdAqzeQbvFgzpjHkpDA9+iOuWQp19GyXWeigpYA1KJTj3iSFDB06sDgsKBaCCGEEEKIyqmBoLn6dNNTdLriTR7o0ZQkk46uxtKpaT8APE6nb61YLmn5DPAGO/cVBXz6CFsPfYc74S4GNY4cECf3uJl//30070pqhhBCCCGEOAVnNWjWLB3oWFcLfq/VPWEj00q7y+lg0MnftZhdvqns1D2LWefqQK3WPamjn2JathBCCCGEEOU4q0FzZelqG7o1GY5atIBNJ7xF3nlwJi7zGHq0kVxlIYQQQghxep0XQTNA/fTh1NW/ZOuOvSjFq1h1ZAWmZn3pqsgosxBCCCGEOL1qOGi2EGUCQ+Fk5mzKwxGceXFKtMRL6VyrIYYjK/lj2zoOKM/Ro1Pt0NWCONd/z9P/msS42XuxhS4UQgghhBCikmo4aG5Dev2BwGyy17Xnja8a8/IX3tcbq/JDV64iC11bP4zZ9Ti/bngRR93L6R9VXlQuU84JIYQQQoiaUcNBMzTr9y7XNHmMOGO30EWnTGvRn85RAINp3SItdHEImXJOCCGEEELUjBr4RcAzR7Vv4tvvr2FH1FeMHtGfBjJrhhBCCCGEOANqfKT5dHGcWMG3s/7Kbvd1NOp8mQTMQgghhBDijDnHR5ozWTy9Cyvs3rmZoT1RbT/nLz1SQ9YTQgghhBDi9DlPRprbY4h+ktY9v2GcBMxCCCGEEOIMO8dHmoUQQgghhDj7zpORZiGEEEIIIc4eCZqFEEIIIYSogATNQgghhBBCVOCUg+YZ839n254joW8LIYQQQghxwTjloFkIIYQQQogLnQTNQgghhBBCVECCZiGEEEIIISogQbMQQgghhBAVkKBZCCGEEEKICkjQLMRFQnXlMfXDLFq/n8/cE7Lrn0mKx8yCZ1N4d3906KISqmsH3/7vU+5/5XumZRlCFwshRCUpnJibxOgZ8ThCF4lTcso/oz1j/u+kNWtIWosGoYsEeXz6lodXDUrJO7uaWPEMtQStFYlqs7H4FxefHtdZ4fF/XuHFkSnclOoJWVuc23RsG3J4Y53CLzY47nu3rL5wutpe3ZRN6yXe7Q3sGM97fSUwOxMUj5nf/hXHZUsMjH+9kJc62ENXAUDdNpP7Z+QCYB0wgtf7xIeuIi4wOYu/5ullroB34rli7M3clFz9/fz8lsHC937gc0NH/vnnnjTSTyk8OW22T/2QN3amnsNtZWLPxDiu+8hEi2ftzLqmIHQFUU0y3HQOUrRC5kxxMOYIAUGTOF+pa7O5dpnCFwEBc1lOa9u3MfCCSUNTDQxtbQpdesa4Nmfz/IfZvLPt7JXhzFE4OS2GAT+VHzAD0CKNgVYNzZjEpW2TQpeeMSeXT+PF/85kWrZcVIkL0WGWTvyGhz5dxSGlho+x54xiWtxTwLRRxcx7KZpnNllDVxDVJEHzaZXAvY8ks31cEtvHqTzpqdxVs7LFxf8VqTRPtjD33gTf55PYPi7xlEYaxdlgZ/5GOI7C4wPj2DDW35ZJEUeZT2fba+YEbr4/hZ1j47mmjha6+IzRTnqYUqxcFLcN1R2x3PeGmeZ3uHiuvIAZ0MxtuOWxe/nwqeu5KeXU2vpUZB/N5rDj7PWPi0lS/9uY8MxoJjwzmn9fZg5dLE6LXPYedmArDn3/QlNM+jgbH9aDl/9hZZFbwr2aILV4DrJneChA4YZL4mkeLU10fitmf77CvmQLt6QZsVTQnNL2FxITv06MYk6szuv35BMVulgIIU4j3eBk9DMOBh4x8OQPMaGLRTVITjOgZhXw81I3k47qrNEVrEaFwY0sPDLASgNraPV4sK3P48218F2RQgHQPtnIU0Ni6ZFS3q0eb37zmOYxEUcYAzkWZNB5m+mUc1iry/v3o3j7LisdNubx/haYUuytl9vSYni4n4nQb6Bm5DHjFw/v5ykc0CipwyevsJJi9tbhiV8y6b/TWO732v9dBlcdjeLtuxIYHOcd7VLzClm8sJgJAe1zW1o0918WRbwa2D6ldaxdo3BwsY2Xdugs8igkWw08eXkcNzQtr43Kp2guDqws5JPN3voA6BRr4NZ+sdzQrKwAt/Ltzmlqe+82jQHvlJ0f7V03mm8eNJO6qLT+rEaFUZ1jePKS8JSKyuw/gfnUZTPx9UNxdC3JY/RQuKWAr9drTM8v7VdD6pkYfXksbeNK2967fZUXRyZy9eFsXv3D20aaqnB9y2ieGxTaVwB0nHvy+Gxl6fZTzQbu6RXNfR1Cv2fV93t1RxyDRlvJHl/EmuvzQxeXqEpeq3fdWtz1917UW/orE1fmcLJYQTNbaTXgch7tUYvQ8UrX8bXM+mkni485cGlgjLbSovMl3DagKXV8dRJehnDO1PSQPFMPedt/Y+ryA2w86calgWY2U79FO266sivtY0pHq7352hpXjB3BlQfn8O6vJ9nvUNCMBup06s/fhjQhMax9wL7vd75esKtk+8boJDoNHsDdHRJCvqeHgvWL+HDZEXblef+usV4jRg0fyGVJkdvndFIL9rDg5/X8tDef3GLv96zbvhcPXdma2sbw70lJG0SV2fYAipbPnj8W8+3yTPY7FHTVQEKzNtx1Xa+g+vave3z9ar744xAHM3Vcirft67TrwgNXBJejOv2qamycWPs7X/52uKR9TKm16TWoL7e3jAtYrzSn+YU/NSNr7nw+2eztt9Sqzy0jrmZgwHHL/xxA81vG8GSrwKHj0Nzokyx87wem5JSfchTpWQItazPfzdrM8uMO7B7QVQNm1UOxO3w/VdwZrJu3jBmbczlZ7G2fmDr1GDF8UEk/VA8t5KnPDuC8PPxv+fm/V+pVo3ixW9Qpto+F70bHc9MRhVk/ZnKNUe4inYqyzvQXDTUrl39NLubhI7BG93Zqu1vn+30OXlrjDlnbzeEfcxiwXOFz34kTYHO2mzsn5/H2zpDVK83OgklZtH03h7bv5vgCHJ1np2SWvNf23RwMs52hHzyNPPzyfT4D1islAaLdrfPxpkL+b1XwQV/ZlM1tUzTG53gDD/+63+9z0P2zAjYUebtZSqwK6BzLLqvbOcksVHCaFerH+4KtE7m8PtnFmJD2+XiTne7f2MggwglRc7PsqwIGb4VFvrzgbLuHJ38sZH4FB82yKJqNX78sYMi60voA2FDoYfzcPB5cWtpX1E3ZAe2m8apBodUBe1Bbtn03l2mZhnO07d2895ktqP7sbp1PV9v4z7bg+q7a/lM16qY8ui/SeT03uF/NPORi0LRCdvv+Ximdn2d7909/G6mazqyddsYvDy2LTu7CbC77KXj7mS4Pry2x+drGr3r7/a7fzCxRde7pWn5aRtUdZ86EH3hlqffEDKC67OyZ9xNv7Ao+Iaq7f+LpjzfyyxFf4AG4i+zsWLGQz/YEXkhVnbptFk9N38Pq496AFkB1uTi+bT3/m7SC7WHtk8+6KVN4Yk4G+x2+crs9ZKxZwD9X5IWs6w3k/vr1tqDtu4tyWPPDr/wQlG/t5MCcb3hizqGSgAzAfewQX743mTf3nNkgQT25mJffXsLkHQXk+tvH7eHk+uW8/Hv496y8DFZ8OZNXf80qqT9F85C/ZytvvzUtLAc9e+lsnv/xILuzvAEzvrY/smY5j03fji1obarUr6rqwKypPP/jwaD2Kc48ydIpK1muhvYTUF0H+fLtWby/sbTfknGUbz5fyIawfnX6eLbN5pkPVvPLEW/AjK/Oi0MPJ4Dq2MKnb8xiwrq8kvpTNA/2Y4f58r3JvLrLd1GaaKGOrnMox/vQbySOfAdgoEFKbMC71W0fJ4OHuzHaFZZfFM+RnF5lRS8XDdtWD5NQuLVnfEm+6c4x0SzsCW1MwcGhujOP8XsM5CUamX5jItvHJbFjbBzLBuiMUDReXm67gB4s0PkhD7o3i+LXexLYPi6eTX10uuvwzUY7u3zfU3Xl8fFvsFpRGN07lo1jktk+LpEto8y8HqdhcRXz1DJv9qo5QScOsNm9RxzVlcuEt7MZuch/BHKT71LIsqrU1gEc/DHPzQS3yr3dY1g1xpsfvvM2Mx/X0VBznXy80V/eUq0Oubin0MAdHb2f2TE2hu/qa6iam192Rx7BqUjRIjsPFqhoiSa+v9Wba7xzTCy/9fDWyfzNRfxScG7uTlEDa5XkRq9Pi3C0D6Oz1AadGkYz/35vH1/cxg3oPLU/OBO5svuP1sGf219ahj8NrB2Qs53E9nGxAaPMXgMam5g+PKF027eZeD1OI85ezIJ94RdAS22gJZv4/o5Eb5/trZGuw5cHnUEXWOrObB7aopKnKjzay9+3EtkyysLkxhB4g6l6+72Zg5tU3FadHo3L73NVz2v1kJVdjLlNT5598h4+ePo2XuhlBjys2nE4aM2dmw9gUyz0vO023vL9jXcev4qHL4mngVL6JQPL8JfWLt9o930l7014ZjQTH+gRMpuBkZS0NP40ZhRvP+1d592H+jG0lgdT7k4WHghvn6zsIrR6bXn4kbuZ8MydvHl1MjE6ZG/bzYmAOlR3/8SLS13oagwdrr2Sl5+6hwnPjOa9BwdyX8coAk/96u6FvLXOjaNOM+574A4mPDPaWyc31qO54mDjT6vYG9Y+p4ei7WbK53vYqytYO/Xgb4/czYRnRvPhE9fzzNW1aWKIPMpcGa7ff2XSIQ29deeS7X7w1AieHZRIrCefGb9uJehegWqmQbfuPD52ZEnbvz+mA10tOnG7t7PIHnq8qny/qpodLN+gUxzfij89cZevP93JW/ddwjVNowg5zQJgyi9gvy2KZkOH8fbTo/nwicGMSPJgKNrLor3VudirxeUP+vtzd3prOs7UdJ551tuv/K/AkV9F28GMH06SrZhpPXQYr/v64IdP3MKY5qEJ0U62zlrJ704VvXVPnvJ9zw+fuJ7x3S2Ak12zVrFNUdDiUqitgNlW5GsvJ2u++oj73v29pJ/a7S4ghtTEwMqpfvvEd3Rxgwcm76rM8UWUJ3SvuejExEAcsGG/g302b4fVzFHU65HEo72Cd86Du3RWKwZevzaR9LredXXVSGp6Mo+20oize9iQU50qtTJwdEpIUKHw4sjUoKCiMrf3a47CDd1j+fKaaBpYVcCAqXM8T9TyYHV42OH/nhvdvOZW6NQuhvFdTZjNOqBgSIlh6I0G/oLO1oPF3iC7jsoQXedggS9w26Hxiaow/5A/oHGz36ZgSzBQCx01z8H8XJU6za08eYmZOF+ah5YUQ79hBv6i6Tx7JPxxMqfZyJvDEnm2r/czumomvY23nQsc5QcwkRWyaLeKphr5cEQ8bZK9310zm0jumcR/23hQNTdr9vjKFxAg+h8A3dXEGhIg+h/sOxfbHrq1tPL59VE0NHn7eL0eJkZrOoRUX1X2n6rSOiQz4bpY0uurJbngWlIsAxtqgE6+MzwQalc7ipmj4miToHj7bFczo4w6Ji3w5KOzd4vGakXhgX6JjO3m71sKhhQrna9L5JpapV+0evu9ys5VCnTSaBiypCZEdx3Iv29qR0OTt3/X6dmUtpqOIWQILDHGCjjZvOUAuW5v2Y2WuqRfMYLbW1bmAqpsWtpQXhpxCd1rR2HyfX1DQnP6tIn2pksE3JHxU5p24bl7epMe520fS9d29DJpKB5PUMC3dd1BbIqBVjdcz7jO9Uj0pRKoSY3pcd01XB9wS3zftsPYlCSuHzWQHqnePqerZmq1vZI7uoEp9whrwtrn9FB2bOZXp4rW9jJeGJpOqzj/PpFEo67X8GivhNCPVFI+a7cWolma86ebupRsVzfG07DX1dzWrJi43UdYH3BxkNT3Jp67qj0tk6NLbt0rtbvRr0kx4KHIN1odqLL9qmpiSIzXMBYeZeXOAl87GzDXTWPY7X3pGWFaOV01k3bLjTzVKRmTCpq5AQO6eXNyneUNqtYgZcc2fnWrmHsN4a+dkrH6+qBmthITkmKjuraybLtKcWIaj92UTjOz/xyRRNMrhzGmaTGGooOsOmoAalGvlgdzbj4nFAVF28Wm/UZMuUdYm+X93PFMBxBH/eTgL1vt9knVSHfr7D95asdkIUEzWtd4vm3k4dBJFzd8ns2gifl8tKSIw6EXkhRxMFMBPDz+VfCt87bv5tB/pwHwsO/khVOl3VuEPrpkpEktHdBw+PZRe74GKAxqEv6jDVqMmdYxOlaHTgGgpai00OCDPO+HDx7UaFFf5c95LhZnqqh5OicVeCDBt2Mf8TBdVTix1xZW360/0nlDVYjJ9oSlaORHqXRvEPye1i6FVeOSqjk3sYejDoUDiUa6RocesRXq1fW2ecnFwHlPYXg3a1Deupag+Eb/g1V+/6mOYrL/yOGlSTkMCGj74PzsYJe2j6dRwAgqGEiJCi14EXvzvBdBl7cPDxyCVX+/VwpD36kp8fS5pBmBj/VocfFEmqSu1qDBjKztxr5hOf/3ykQe+nQuU9YfKwmgT42NE2sX8J8Jn/HIi5P480veV3m50c16dg9pnwRSA3LTvTI4lmFAVxvQr11FF4vZ7D0KkMPPb35SUgb/65+rFSCfo75g5HTLOulNxUnvnBbUPqfuGHuPGFCde/nkXxNDvuc3fLTfhKLlciDg4kDRstmxZDYvv/F50Ppv7CxrtLHy/apqGjJ0VBtaKIVs/v47HnrlC/45eSWLjtqCR8YDuJJbMaJ1cNtHxYeej04vf1u2bFwvdFG4vDxOKgp684a0DerfADE0bxgDODleqADJ1EvWsGTmclABZe9h1sXXpXPtHH7blgPkk1uo4kxNpHHQpqrfPlqcTt3qjBeJMGfmSHJOM9FsWCprbjHzQRpcVuzmv5scXPFhDn9ZERgE6ThC94WLkLOMuYPjyjoOBzHRNF7HWKCRTyGbj6gM7BRN3yiNpXvc4NAoUKB5qu/g6CnNHz0XuC1K2AOQorL7T1W52fdDHpeuolLzW1dHsZFKtOf5vd/ral0uH/Mn/ntPD25sn0hy5gkWzvmZp177ijf9OZbV4mT3TG+eamDObE3STcZKtI8HyjgmnT0GzKeQhhFZMcVV2mQGCz6awf+WZrLfFnqhf+ZptS/jqSdv5PnrW9KnronMfduZPHEqD765gBWuczkMqVpbmswV91iAOrVjATu5hQqH9xyjoGVHbmpqJmvHPnJwUlSkUFQ7pcZ+3EV1KZyhmy0XPKlGH61WDP0HJvGP+5PZeYvKo0adn9YG5qlaaZ6gAUbef6D0dnro6+HWNTLEdo6yse6A97Zqii/XyhhtAHRm7g5Pk1BtLnbaFDLiFRrplNRhHbtGzslilrjN9GhmoUsTnQl7HThOwnRFpVmK7yBfG27Uddq0iw2rZ/8r/3YrtaiZA0vZVOLM0OJEMWuLQ3cZnWPHveVtnlq5A+aFqOL9p2pUVyE/H1DRVAP/uCp4fuvK5WWXx0xKtI7F5WbjoYrKV939XqNxXx02qJSfbXhmxNRPZ/D1N/DPJ+/h9dua0kJ3suX7lWyoZq6v6trKok06uhrPZbfdWJLTPKHSednliSc+QUN1nmDD0YruDHlvdUNdRjx1b1B+auDr0Rah7XN6pMRFAR627anpy7w6NE7RKI5P49GQPNzS1whuTvQOJ6qHNjMvw4gnug4jx4wqyWmeUJKzfubpajz12l/G3XeP4u2nRjC+uwVj4UE++vVQ6KpVlpUZ/FBd8cHNrMqtaN8uX0yUCnjIyw/uO6pjCysOhNztijJj1XXc2/dEyJ+3sfewDYinue/cllLbCtjJystixx6Nti2bUrttQ+of3c9v9kwOZqmkplZmDLmSjqisNSn0b3iqx05xar3qArBvTjZvLyniaGHAvYsEC5em6t4dJiBvsnkTlTjcPD41jy1HtTOWW1U+G9tmem+7PfrNeg7V4JPFRVnFuHxDSGqOjWUzHDznVKnf2MylvmlrzK0VbtV01m0r5H9r/evraMfy+exbD2+gcEfr0sA2MQGsDo1tWz18VM9IO0WnXiuVO7KcTD2sAgaSk73ranUs9I3S2bbdxpsrXWTbz1aFx3JpA++DhA9Ny2dHtrccqsvJoYW5/G2HAafZxNVtL777X1XZf/y8F1rw4docduSVccFToHNIgWKjQr1UAxYVVJeDY6tyeH1PRYFURYykN1aJQ+fvP+YydZurtJ/b7Gz7IZe5GaV/o3r7vYtWXTSMdoVVB0+1vNWVwZKvv+fz9cfICCi0uX5zOidqqE4nheHNQ3SUCuTzy6+bOBwhLxmAAhvZioJuiqNuaiwmFVRXDofWLmDiulOd6cVCh5ZxgI2l38zk651Z2H3pJG7ncTbMmsv3ATNFtGuVChxn2udLWH3SQXGl2scb/Hz1v0+5/5WpTDilUfcALerRFh3Xyl94ecEe9vmmflDcNo5vmMObK6s7e0YtOrQyY8rfxvtT17E72/8QWRnsheQo4I5JpmmSN6fZ7TzO5iWzmb7nzM6goGas4L3PlrLoaE5JO+pqDA3S69JYB7vjFPqLKYoYHU5uXM9mm4qiucjaMIcXvzzA3jLPhVFYzTqWzN18vT6rzP4S1aQ2dXTYM/8nfs3xHs/se5by9jt/8LszOHTS4trSra4HU+423pi6paTdVddxNnw/k4/2myiq14JB/lz8lCTq6E7ydm3nt9z69GzmQWvUir6xWSxdfJwcoGFCYtDfOBXOHSZmGqB3k3J7jaiEi36eZu+8wJFzJLVEC8tvjwkYybSz/Isi7suPfK2REW9m+52xJeuHz48bLHR9v6rM1atmLOLFD/ZzUKHc+V2rorxyO80mZt4RT6eS3F7v1F2Dt6oRUyliki3MHBVTkseors+i9XJv/Y3uk8z4zjpQwNQJxTznUXCaTcy+P450320pZWsW9yxS+K2MA+CfBtbm8TT/SIB3TuQnkiwR6/VUqLY8PvrSw2sRckE1VeGRAYk8lBa6hHNgnmbv33/VEF5uv8A6LPvvR/4eVdt/vLzT1GlMCpsuMHCeZjsLJhXxoC3yvkZIuf3zQAf3B0q2c7MhKqhPKJqNZV85ytiXQ+exrtp+76dujWPQfVYW/NmB5+6ygqXNfPbCKlZEmHbLL3AO2rLn8vVu58f2/Zk8vLnvPe9ctWXNTVvcaSDvD20cNr+ruvsnHpt8HN9znSWC52kuf9uElLvy8+n62+c4Cz6ZzZSIDy6FHucyWPrR93wVcd3QcpcK/J6apTnjnuhPpxq4HZ6zdArPLy6KmLISPA9w1dpede1g8rvLWRA264VXbrt+JW2vurbw6Rt/sLKsi56QOqxav6qa4HNUKAtpo0byaAv/d4rcHyijDynabr59fQm/hgaxxiSaJmSxS+kQth2AA7Mm8e8IMy8Ft082KyfOYFLI8U0zJtG7uZ3fd1qC6ks9uZiXP94bMVjXjEkM+dOIkl/6VLSNTHppDStUhYKWvZk4sg1m4MCsj/n3RiNgoNPt9zC2qXdk+NTax8TC8YlcsVtnxbdZ9IwwH7qovMh730Wk+cAYvmmhcHXAvDeNzAbGdrOy+tbQE76Vy26PY14XnZEm7/RpZ5tWqwfDO5ow62Bp3pxLksq4bD5FqWa4uVUUq++OCwiYARQSL09m0WU6d8ZA3ZL1vXW4cGRpwAxAokIfXQeMdGvhP7jE0buRd5tHYw1BBzi9XQqTbjbwcpJOt7AHLM4cLSaBMXdY+KgB9PbluGkqXJpq5KtbEsoImC98Vdt/vLSURMZfpfLXRJ0mZR6BrFwx3MzrSaXrpJoNjOsQxeqBOunhm60SXY2JuC83sBp4rl9MyAVD9fZ7rZ2Tv/XQ4EsLPzrK/KKnUS36j+zNTW3iSAxoH1NqCr2HDY8YMANoLa/i+Rsa0TJFwTdhTQS1GHRnX65tYME3UQDG6CTa9b+MV26uR0yZn6scXa3LwPtu4clBKTSNKa07JTGF3sMGMSwocKhFvwjrVkRr2Ze7W/lGBJ057Mur/GfLk9R3JC/fnkb3usaSutHMVhp068P4S6o7e4b3Z9ZHPnwdf+6SQMOwh1uDaeZ07r6rE93rUtKGSmIKl157Df8ceGYfqNNq9WXcTS2C68NooHajltzx4KiAgLnqdLUlI+/qRo9U/wi2gfgW7XjkoeGMSCk7FaHptcMqUY/J9L7zam5rZsasBm/7hghPRWu1+zN+bA8GN4jC6ruW1IwG6qZ15pGHhpcEzAC6mkwt3wOwzVo2KdkPm6U19O078TSuXTPncmVdNP9arNL5TpcEzDXgoh9pFuHKHm0UQlSFuiOOoaOt/Ha7i8MP5chPaZ9j1E3fc/8POehqY+77+6CI058Jcb5SPBYmjUzgXrPGys+y6WGqmUD8Ylb9SzwhhBDl0trYeePuYgq+MXPz3MqOUYvTz4Pr+BY+X5IFQHHnNhIwiwuMiS3vxnD/MXjyuUIJmGuIjDRf4MrLOQ3lz82MW3Dygh5pLi9nO1xgnu3ZpZ7I5umpMD3s6ezIwvN7xdmgeMzMfSKBG35XeHxCIS91qOmf1RZVE5xL7EpuxoP3XU53swQVFfHm1lb2YbIG3PncEPoE/bCQODNMHJoSy5VvmmnxrJ1Z10R64khUh4w0CyHEaaQbXFzzWh4/Xu6hZTl5luLMMsQm0XbwIF5/YIAEzOIC48YSBd3+XiQBcw2TkWYhhBBCCCEqICPNQgghhBBCVECCZiGEEEIIISogQbMQQgghhBAVkKBZCCGEEEKICkjQLIQQQgghRAUkaBZCCCGEEKICEjQLIYQQQghRAQmahRBCCCGEqIAEzUIIIYQQQlRAgmYhhBBCCCEqIEGzEEIIIYQQFZCgWQghhBBCiApI0CyEEEIIIUQFJGgWQgghhBCiAhI0CyGEEEIIUQEJmoUQQgghhKiABM1CCCGEEEJUQIJmIYQQQgghKiBBsxBCCCGEEBWQoFkIIYQQQogKSNAshBBCCCFEBSRoFkIIIYQQogISNAshhBBCCFEBCZqFEEIIIYSogATNQgghhBBCVECCZiGEEEIIISogQbMQQgghhBAVkKBZCCGEEEKICkjQLIQQQgghRAUkaBZCCCGEEKICEjQLIYQQQghRAQmahRBCCCGEqIAEzUIIIYQQQlRAgmYhhBBCCCEqIEGzEEIIIYQQFZCgWQghhBBCiApI0CyEEEIIIUQFJGgWNcjO8i+yaP1+Lu9sC10mLhbq0RgefT6ZzUVyeDlf5SyfwiMvTmLc7L3YQhcKIcpVtDyLAe/mcNNcJ87QheK8Jme10yqPT9/Kpu27OSUvw+zK7UKqzcbSmTncMyHw87lMyzSErnpK9n+XUWPbVU84mJunoGo6j+6p3PcUFxb1qJXnHovhmwMq2aELxXkig/UbCnEp4Nmwh/WqErqCEOelmjzflc3Oil1wHNi8r5gtSk3vPzq2Ddm8NCmHAdWILcSpkaD5HKRohcyZ4mDMEVjhqekd7vTR6kRxTYKOpiq82cISulhc4BSPmel/j+FFg8a097PpF62FrnKOOczSid/w0KerOFTjJ7aqUQu2MPnjL7lz9t7QRWdBLTp3isWsg6FTCzpreugKZ8i50z4iEhvLv87mpm9sZCDtU8pK71ZQF2jfzES6XrP7j7o2m2uXKXxh8wbm4sySoPm0SuDeR5LZPi6J7eNUnvRUbudRtrj4vyKV5skW5t6b4Pt8EtvHJXJTqid09XOIlT53prBzbCIPpYUuExc2hd2fxzJql8L4p+3nQcAMkMveww5sxaHvnwWODPYed1N8LpQFSOozkreeHc27Q5sTE7rwjDmH2kdE4GZHJix0h74vovuksGhcEtOusVCzw0d25m+E4yg8PjCODWP9sUESnqE1+5dEZBI0n4PsGR4KULjhkniaR0sTiXOfmhvFJ++ZcI9w81wHe+hiIYQQp6yY/fkK+5It3JJmxCLhwRmneOyHKjf8WYYZ838nrVlD0lo0CF103lCzCvh5qZtJR3XW6ApWo8LgRhYeGWClgTW0ejzY1ufx5lr4rkihAGifbOSpIbH0SCnvFlUen77lYUzzmAqvCB0LMui8zcSLI1NqdGRZzchjxi8epubCGl1BU6EZcEBTgv6WeiKbp6dCTqcEJlziYstPDl487K2bOolGXrsmnp5JpfWibsqm9ZLg7/6ngbV5PC14iEjNyuH5r3U+jLWw8t5YGoXctlK3ZzF8vkpmixgWX20ufT+vkMULi5kQ0D63pUVz/2VRxKuB2yitY+0ahYOLbby0Q2eRRyHZauDJy+O4oWl5bVS+/d9lcNXRaL5+KJb03Tl8skhnokMhT1W4Pz2Gh/uZgkYVFM3FgZWFfLIZphR76/vSumbGXxFL27jQfgXakXx+WOzm/TyFAxqkmmF4Syt3948iNeh7evnr5dPjOis8CpqqMLyJhSevsJJi9q9fdr8rq59VtdwAeyam0O5jA/+Zms3D9csfelLcGaybt4zZ23I57FDQVQMJzdpw13W9aB8TPEKtZW3mu1mbWXzMgUsDzWymbrsePHRla2obA/rgtpncP0PjirEjuPLgHN799ST7HQqa0UCdTv3525AmJKo6kMHC935gSk75OY3WASN4vU980HuhZTFGJ9Fp8ADu7pCAv7cq2nEWfDSbKZlGml53O+M7mko+rzq28Mk7v7OyOJHB99/MTSkb+OyFVayoIGe4+S1jeLLVmRhu3RxWntx2/Zg8vHnQWl7eevyg3uV8e4XOL7P+4PsDTlwaKIl1uPrmqxlWO/QzNk6s/Z0vfzvMrjxvO5tSa9NrUF9ubxnnW6d67aMWHOH3pX/ws69PAZhSU+h+aT9uDWif6pUbwEPB+kV8sPIwBzN1XIp3/SFD+zO8iTVoTUXLZ88fi/l2eSb7K+jfp493v1/dJYEJbQv5Zp6H93MVjvvOV/83NJ6OIfty5fZ7OwsmFfGgrfxobWDHeN7ra+DEL5n032kMO8YE8h5Xo3j7rgQGx3nrx3+u8h8L/efk4GMbVT7me/9W8DFP0Wz8+qWDBwtUurW08umV1R0d9pblVUPp39vVxBp23PWqevsEfi7S8TyYjnNPHp+t1Pjat91UM9zQxhrhvCmqovyefxFQs3L51+RiHj7iDSQB7G6d7/c5eGlN6MnfzeEfcxiwXOFzX8AMsDnbzZ2T83h7Z8jqlWZnwaSskoT+ztuMgM6zUzKr9RBhJMqmbEZP9TA+Ryn5nqoGB8o5hhsdRXw+qYjhh0rr5kSum5HTCtji+39VaClxjKyrEWcvZumR0JOizqFdOlsUhQc6lZ6E1BO5vD7ZxZiQ9vl4k53uZeXSaW6WfVXA4K2wyJcTnm338OSPhcyv4GRcMZ0Ty7K58id4y+HtA6qm8/GmQv5vVeCByM6qKQUMWacwpbi0vlcedTHsyzzmZgSXQ92ZxV3fedvH3yaZLvhoq51JO4xB6wKox7IZ/5W3Xvx576rm7bfP/R7ab6uiauX2srDsOwPuNA9XNoh8YvRTHVv49I1ZTFiXVxLcKJqH/D1beXHe7qB1Pdtm8sT7q/nliDdIBVBdLk6uX84zb/3MClfo4SufdVOm8MScDPb7tq26PWSsWcA/V+SFrFs1yu5f+McHwWVxF+Ww5ofvGDv7IC7ferpal0Gj0mmLzr45c5lb6C+jja2zVvO7U6XWkCu5KaX8ejpfxO9ZzTMfLmHqPm/gCaDnnmD257+woji4fQ7MmsrzPx4sCZgBijNPsnTKSpZXcOFQvgx+/eInPgnoUwDFmVms+OE7Xt8YfsFRlXKDje1Tv+SJOYfYneUNmP3r//zl8pCyZ7Diy5m8+mtWSR/09++335rGtOxI+8/p8/3ufB6Y6uF5X+CE73x1+czCkGNndfb7iqXEqoDOsezQOvVzklmo4DQr1I/3Hj+VTdncNkULOhb6z8ndPytgQ6RZeap5zA8MmK9oF3sKAXP1VKZ91E2BkwFovGpQaHXAHhQbBD/cqJO7MJvLftJ5PWC7mS58581CDlXj/C28LvqR5qKlWXTZqHJrz3jGdzNgUUF1OTiyoYhvPXE82qs0YFF3ZnHbPJU/kox8NyiW9LoKiuYmY1s+ry+Gz6Ijj6B6lXeFWLmr97KvWsunaPl8+6GbZ3SVsZfEMK69GbNZR3UVs+77PEaeDB4J8I80T1e8o5dPXWbljnQz0W478ycX8WCBgb9encr9zcODM/+oc6SRZigdTXanx/L95aWjcIqWxyfveRibEkXGrVa8Y0gOVn9RyB35Ru7tbmVsFwtxZh01x8aSXx386YTK3X2Tebpj8KjqqwZvue9qb+XRSyzEG51s/b6A4UdVru+ZxCs9Sv5slXhHKbz9oWttM88PsdImAYo35HDPUoWpKVFk3BpNPOBekU3vtQoN6kfxv8ujaJaooLqcHF1l4/F1Cj83iObw8KiSA/S+HzK4+pCJZ65I4M42voOlzc6ulU5+a1ibO9uU1qWiFfDth8U851Ho3iyKFy71bz9Svy2730Uaaa5quQHULCuPXB3H23924rk3N2BJqGxWTpzBpKNGlKZtuffK7vRINaK4bRzdvZrPDzflqSuaAKC6tvDpG3+wsjiKZkOv5OH0FKxGHS1nL3OnLmR2hgFn96uZeGUd7/rbZnL/DO/f1uq15dGbLyE9TsO5dg5/n5tNVt2OvDKmG3WC9k3vyOqi2u355597lrHfgqLt5tvXlzC/OJFeN/bnjpYpmFTQT27ju5m/MS8jnl73j2J0rdJA2LNtJk9OzyWrbkdeGNONBhtn8sT3ORSk9+N/w8PzhNWMRbz4wX42ppc1snumeevmx/b9yyhP6Yiwrpppc81VPNwhGYv7CD99/BMzcgykjRrDoy38/XYHX7/4G78mtGbsA73pblYBD67jO/np10zq3tGPnmH1X7n2gQx+/WoJR9Iv5eq0OtSyqCiai8z1c/jX3DxONunCW3d2Ism3btXKDa7fJ/PIfAee6FQuH9qbm1umYFIjl92/rt66M49f1YlWcQqKO59Dqxfwv/m5HGvTm0k3twkY+T5dAo+FBl4YEsPIFgbUnDw++tbDa24j/7k9iaGJ1d/v/X/jiSQL2++MpRbh7aNuzaLbQpUb+yQzvrOO6srlvQ80FnaIZ8oAI2BjwScOboiKZs/tMdRx5fLRRA+vuVVG947hr+3NmM0aniw7P89x8NcClaatY/hpsL8Gq3bMDxxpvjk5n2VfObgvX+WqrnG80Tt8cKL6yj7uBi6vTPtEupMbrvRusf/8PdVg5IUhVm5oZsSietCO2Phgtps33Qqjeify/7pWtE0RSflR2kUgJgbigA37HeyzeTuRZo6iXo+koIAZ4OAundWKgdevTSS9rnddXTWSmp7Mo6004uweNuRUp0qtDBydUpLQvz7N7dsJUgMeAqx+or+yxc2rHoUuabE81tWE2Xd7SzObSAi4xR2qwGpi2h1J3NfBjEUFzWyldzMAnXxn9XY4vbWJUUadjbudQVPxKFs8vK8o/CMtxhcwg5rnYH6uSp3mVp68xEycv9xJMfQbZuAvms6zRxwl2/Bzmo28OSyRZ/t6P6OrZtLbeNu5wHGqI3wKw7vG8fXNMbRJUAAFUycDV6MT69ZwogBO1u/WyDSbeOkGK80S/f3KQt0+8TxRy0PScXfQ90+yAuj8vMdBlm8oS4ux0mJQUlDADKBsKeZVj0LDhtF8ck10wPYj99vKq3q5AThqYJ4R+tYtv27VjI0sOGLEmZrO32/rTY9Ubzl1Ywz12vYvCZgB2LyDlcUK5l6DeapTMlZfP1WTmjPsrq50R0fduZ9tIWVRmnbhuXt6kx6nAAYsXdvRy6SheDwlo8FVpezdzUqHSsIVV3JPa2/ADKDUTuOmq5uTpNvYtjs/6DOGtBt4ro+ZqBMbmTB/OZ/+kE1W3XSeu6FFWMB8PtPVGDqPuom/dkrGpIJmbsCAbt5v6Ay6ixVDYryGsfAoK3cW+NrCgLluGsNu7xshYK6KWgy6/Ubu6lyPWr4kT101k9K1FR11HaPdRWFIP6l8uTNYvsYGxDPg7uu5raT9I5U9n7VbC9EszfnTTV1oFec7Rxjjadjram5rVkzc7iOsD91/TiOn2ciEEYmMbOEdhdSSEriyoQZoOErGPKq531dGHZUhus7BAt8f26Hxiaow/5DTN5LqZr9NwZZg8AbdG9285lbo1C6G8SXnKgVDSgxDbzTwF3S2HixmV0hZqnrMVzQbq6Y4uC/fwK09Y2s4YK68yrSP1sE/mUDphAK7mliDYoPASQKObdSYrijc2zuekS38ec8G1AbxjLsSBuo6L+yX+aOrqzoR3gVF6xrPt408HDrp4obPsxk0MZ+PlhRxOGyQtIiDmQrg4fGvgtMm2r6bQ/+dBsDDvpPnXpV6HyyEy+pHhy4q1/FaprC8qui+3uA+0ihyZehqPINberC43Czf47+d5Gbrdo081Uj/9ICD4REP01WFE3ttYfXd+iOdN1SFmGxPWIpGfpRK9wbB72ntUlg1Lon3+pZ9q66yurUKvXhJ4PaHksm6M8Y32uJgR56KxVXMje8Fz9Pd9t0CRmYaUDWNowEXWEkDrXwSr7F6n4M+H2Vz0zf5TF/josB/LziAvz2vT4ur4VuJVS83AMWwJ7yY4TJzOahA7Y7taKSUHyRlFTgAA2kt6oYuQotqSIskDVN+Ptkhf7dZz+4h204gNWJuYOUVHMvCpkD+vKn8+aVJQa/7Pz9AjgJ7s7JCP0ZS/4GMTHWTtXInq9QEhg7vVeH3Pt+4kpsytHlwL4yKjwr6v1dDho5qQwulkM3ff8dDr3zBPyevZNFRW7UvZgKpOTuZP20641+dGNA+q8vMF698uU9wMEvFUacpV6SWk8sGwDH2HjGgOvfyyb8CyzGJP7/0DR/tN6FouRwI3X9Oo4P1zAysE1zu1OjQPljN/b4StBSVFhp8kOeNAA8e1GhRX+XPeS4WZ6qoeTonFXggwRu02vM1QGFQk/BzlRZjpnWMjtWhl6RG+lX1mL/4pyLuyFa5unMcz/coveN5plWufaqmqFAHjHRrEd5eWlMD3TVItHnIj5TaKCoUXqsXHRPNhqWy5hYzH6TBZcVu/rvJwRUf5vCXFYHpBzqOU+vLZ5mCpZxR5TMpuYuRWzWNr3Z4Z1lQXYUsOqlSr6mF3qaAA4inNG/8fBM8WlUxXY2hz53JrB9m4K0mCql5bp5ZaaPbJzll/Lri6WnPqpa7Okzm8JNYZEZiavaqoFpcWvVPLsW+/EpFc7I3uyh08UVFq30ZTz15I89f35I+dU1k7tvO5IlTefDNBRHy0ytPzVjGy+8vZ9qOAnJ9+bg1zWMxYK5wNLyY4opWOUedvv3eRNN4HWOBRj6FbD6iMrBTNH2jNJbucYNDo0CB5qnBFyxxpzl/ZXBXA6PQmbnVztJqXAycD4zh1x2iBlyYvaUatFox9B+YxD/uT2bnLSqPGnV+WlvELwX+KrLSPEEDjLz/QGkqRejr4dbVG4E9nYzRBkAnOz/4NpVqy+PXk5UNYGqO/4HAg4dd3gcKN3p4AzXoAUAAasONuk6bdrFh9ex/5d9ujZhLd3Z5TxT2KDOzHgq8tRb4ii/JJyylENUoniFDE5nw5yQ2XKVzk67x32WFQbdGrfEqoPPrgcoHYTF5wSPyqs3GgsOhu381y91A4x43LD1eQV+KTSBJh327D1T408wxUSrgZNX28On7Vcdh9uSoOFMTaXwGmj6ltrdfNr3ubiY8Mzria+rQxiGfsrFt+s/MyLHS6bZ+DLIUsfv7xSw+heDwQqCr8dRrfxl33z2Kt58awfjuFoyFB/no10Ohq1ba4bW72Ksr6K178tQTdwW0S3d6n/IPsyRSK07HevgYq8IeEAxVh8YpGsXxaTz67D1hfcT7GsHNofvPWVfN/b5SvOfNOnaNnJPFLHGb6dHMQpcmOhP2OnCchOmKSrMUb9TuP1fN3B2edqfaXOy0KWTEKzQ6xWZ11k3inyPg1uJi7pqWH/nhwvOU0awAblZuDa8kdb+H1SrYkozn4Hnz/HDh9JRq2jcnm7eXFHG0MOCAkGDh0lQd8JAXkLvbvIlKHG4en5rHlqPaabw6rwob22Z6bwE++s36iE/FmhvoDNR1PliVz9IsAA/OXTm8/qWH19zh659+Rtp1UOjqLObH7Trr9ujsSzYzNGSqMq2Ohb5ROtu223hzpYts++mpcNWxha/+9ykP/PtrXlhTEz/+bKVrQw2rw8WzM+3sz6zoZGNn2bRcvlkT+B0Vouta6GvVsbgIzj9rZmA0Ohu22nhpoYMjvs+ormKyNmTz5srAelSJM0P9XBdz93sAHe1YPp99632oJlhVy+2l1XHTu44OvxnYWU7eo96gEV2jNOJ2r+C52VvYlestp6K5yN2zlFfmHyhZN6ptE5rr4Fo5j9c3ZGP39VP95GY+/2Qdq1Go1bVdOQ+HVUYUVrOOJXM3X6/Poris7tWiCd3R2fvjD0zcmUVRhJSZUDmLv+eNnTqurv0Y26w5I2+oT5zjCBM//z3iPkqUGauuk7B9PV/us1ciZaF0v39w7t4KL0LONjVjBe99tpRFR3NK21KNoUF6XRrrYHdEyrCsXPvYi7y1FVe7Ng2Nqu8Bw23Mn7aFNeX0x8ppSHoLFUU7zuSPf2HR0fyScmg5e/n1qyX8UfI3atGhlRlT/jben7qO3dlFlWhHL/XkMl59eSL3v/Y907IquPiscdXb7/3Hllr5xXyy1lXm+TAxAawOjW1bPXxUz0g7RadeK5U7spxMPawCBpKTvfuxubXCrZrOum2F/G9tMS6XEnDM8vAGCne0rpmBEq1eMv/uC32cxdzw5YUTODduoZCuw8TleUzZ4/a1i++c/zMsUFTebhv5yYqcpVN45MVJjJm0NvJxSsjsGYEzIoTSEi0sv92fpwpgZ/kXRdyXH3nnyog3Bz1F7J2dIPK2ibC+X6RZDcrif+r+oAIQzxVjb+am5NDP+GehCD4Ya6qBp+u6eeWoGnH2jJeblvXkb6CKZ/7wz9kZzMZPHzv4Ty0j1x30YO+fEjALRillaxb3LFL4rYwdOHiWjoqf5o4kZ/HXPL3Me3pzpqaX+aR+pDk+y6K68pgyyc1zZYxOBc+EUn4dtmhmZUbQL0vp5CzNZvhGNeLPqAbXt87hOVlcsT+0/uGmJJ1pOSFtX6Vy+yns/TiZtIlGnpuYw7Otyw4VPNtm8+x3meSEV2/YnMCB7RJKq9eR5+7pVpIj7J89I3xOY+9sCZ8bOkZs1wOzJvHvjUFvQYR5gHOWT+H5hUUl040FC97v1EMLee6zAxxOSuOJB3vR1ldG/9/S2kWaQaN0ZpFQ4d8JYDdTX1nCr25v0NHp9nsY2zR8NpuqKK++Cds3yq7XSG0RfJwKZSFt1EgejZCDWZn2UbfN5LHpufie4w5zKuXGd1H9xfu/s9QeXj5owJ3PDaGPb0Rbde1g8rvLWRBx3fA+7uefdQPA1jhwto/qKnv2hkjnl+rt92UfWwKPQer6LFov9253tG8WDShg6gTvDEBOs4nZ98f5fm7aO13a4K1qxNS8mGQLM0fFBDwbULVjfvgxXMe+Opv7V6psijbx+W3xdKrmr5lW7XxftfYpVfbnShWz/7t8rjoauS3bN7PyVcRfKsxn5cRvS45BqVeN4sVukfL8L26Ra/Ui0nxgDN+0ULjaVLqzNTIbGNvNyupbAwNmACuX3R7HvC46I006/un4zyatVg+GdzRh1sHSvDmXJEXa4aPoOdLKx3U0mqigqdCrvpkf7kjg1oTQnfJMiWFwWzh8WOONKDPDOoQu99LbpTDpZgMvJ+l0O00PUaVc0omBsRq6aqZ59xZhgVV1aOYERo62MqMFQX0rMitXXGvi7QbQ21C6bqdYA8/1i2VO2AFOIalvMj9fpfDXRJ0mvr3YalS4uVUUL1wSeOBWaHR1NJPrU7JeA6uBl69J4F8R6rxq5fbTaXmdg3vc8PysWMJvrJYypA3lpQe6M7hBFFbfuVYzGqib1plnh7QMWjep/228en0jWqYo+H/PwBidRNvBg3h1dGnAfCqaXjuMP3dJoGFU+dtK6jOSl29Po3tdI+ZyjpqqYwufTNnHCSWG/iP6lATMAE2vvYxBFg116++8uys0OE3m0lsHM6pNHImVqveW3HhNCjE63geQT5zaPNSnm1arL+NuahFUf5rRQO1GLbnjwVERA2Yq2T5a2nU8eVUyTX3r6KqBxEYtGXnfVdxewQ/tVIYWlc4dD18XVg5jvXpcd0efkoAZQDO3YWSEdSti6TGAEUneY3H00ayw2SFOt+rt9wqNro6p+DOJCn103fdwmv97xdG7kfdcdTTWEHDMVUi8PJlFl+ncGQP+x4BTfefkhSMDA+aaoGDtnsw76RpmRzG3fZvHtvN+xNlE0+HxLOocHKc0sHrPJ2X/tHc8l17bqiTlbf+JkyHLBTLSLISoGQp7JibR7mMT494p4PUu8lPap5uibWTSS2tYoSphcwuL80/uws8Z/5uGo06kOcWFOBOOM++dOczIM5Aw8GZe6R05jeNidr5fUgkhzgk6rW6382Z9nTefjOXTE2dvGqeLgdt5nPWzNrFCVfBEN2dAhB8aEucHf07/V2u8I80Nu7SRgFmccaorh31LlvNzrgFdTaJ/h3PhXvq5R0aahRA1Rj0aw8O3x/BOPY2Fn2TTr5r5gaJs26d+yBs7vXNyeX+k43rGNjvNc3SJ0yI011tp2oW/39a5hlMQRFWV96xTqLKeTTqfBD/PYKHBVVfyXLfkkLUEMtIshKhJWn0bb39l46FWGvUs5+9J5Fynmc3UTevMw4+MlID5AmBKTaH3sOG8eXsnCZjFWRH4jIEEzGWTkWYhhBBCCCEqICPNQgghhBBCVECCZiGEEEIIISpwUQfNM+b/zrY9R0LfPudJuc8sKbcQQgghLuqgWQghhBBCiMqQoFkIIYQQQogKSNAshBBCCCFEBSRoFkIIIYQQogISNAshhBBCCFEBCZqFEOI8VLQ8iwHv5nDTXCfO0IVCnIOUrVnc+1423b6xc0j3/Xa4EOcRCZqFEOK8Y2fFLjgObN5XzBZFAhBR89QT2TzzTjaG2TVzWbZvh8ZvuoIt28XvWRJ+XEgcCzJo+24O/9lmCl10QZFeK4QQ5x0rvVtBXaB9MxPpuh66gqhBal4+U77KpvPcmgkeL1bN2qhcqujEJJu5JEULXSzEOU+CZiGEOA9F90lh0bgkpl1jwRK6UNQsh5uNObBJ4rxTordL4dMHk1lzq5VGilzoifOPBM1CCCGEEEJUQPHYD53S5d6M+b+T1qwhaS0ahC46552vZZdyn1lS7pqSx6dveRjTPAbtGoWDi228tENnkUch2WrgycvjuKFpcG6umlfI4oXFTDiqs0ZXsBoVbkuL5v7LoohXQw9dxWT/UciEzTrfFSkUAJ1iDdzYy8otbYwh6wLoOPfk8dlKjen5Cgc0SDUbuKdXNPd1KM3LUzdl03qJwp8G1ubxtOKAz9tZMKmImw1RbL8zllqUlkfRXBxYWcgnm2FKsYKmwqV1zYy/Ipa2caHlrgpvHb5qKK2nXU2seIaGjjV7yzY4NRatZSGPLVCYrag8MiCRRxJzeGmmzkRUbrsklv/XtbRu1Ix8fl7u4evjOis83nL3TDRwZ68YrmxmCPoL3vXz+Gaeh0999RcquM482Nbn8eZaStqnfbKRp4bE0iOlejnZ6olsnp4KSYOSGbU/kzv2GsiJMvH5bXE0Xp3JqM0qx81GXh+WyKBantLPVapfhdd1JKH9oqp1eLoomouja2x8ugV+sXnz31PNcHmTKP4ywEqKObgfBvbZucXe9qlt1ClyK6wN6GP7v8ugW6GVLYPdfDPLwwcuhau6xvFWRxtTvnHznFPlsrYxvDvI7LsD4u2LD9pKx+gy4s1h+4xXab/V+xYz7xcnr2WoHNCggdXA40PiubrahzPvtq+2WMm6XmPdPFdJ+zewGng4wvGn6nVYxO4lDj7fqZfs9z0TjYwdEEOfeuFjlNqRfH5Y7Ob9PP/xB4a3tHJ3/yhSVR1ws2FKLiMzo/j6oTi6RkzD8n6v+4otzL4/zpeqVXps+zpXKSn3DW2sYcdO/z6U0ymBCZe42PKTgxcPe+ulTqKR166Jp2dS8N/17z+f+vo4QGOjzkF3pOPkhSW8FYUQ4nTS3Cz7qoDBW2GR74Cbbffw5I+FzM8pDSrUE7m8PtnFmCOwxvekvd2t8/EmO92/sZFB4AlO5/CcPC5dBZ/7AjKADYUe/m++g7VhD8rp5C7M5rKfdF7PLQ34Ml0eXltiY1rmqQQ3dlZNKWDIOoUpxd6/q2qw8qiLYV/mMTfjVLZdNYk5Tv61WGGurqBqOn9bn8+7P+h8pnn//9kaR8BDhHl8/I2bh49QciJUNVid7eHRuQV8czi43OqxbMZP9fB8QP2Vzc3hH3MYsFwJap/N2W7unJzH2ztDVq+iE+vyeXSPgeOA01HM5B9zeXiDN9hyOtz8Y62jZN2q9auqqlodnk5Fi/K4/A/4whfsAWS6YOouBx1mFQXNuKJoNpZ9Vdpn/e1z0l3670DxDo1P5nkDZoDvNxfx1kxvwAywbLuTJQXVDy8aH7Nz/xQXD53wtiHAEbuHB+cWst63T1VXHXsxL33pDGr/IxGOP1SxDsHBqq9sXLvFe6FMSdu7GTa/KKxfqTuzuOs7D+NzAo8/8NFWO5N2+C9kjaTEAmgczSmrPj1kORSOxhpo5AuYA49tgeX29vHCiDOXGB1FfD6piOGHSuvlRK6bkdMK2BKwvnosh//70rv/+Ps4wEF3+DYvRGW1ghBCnBatDrm4p9DAHR1jWDUmmR1jY/iuvoaqufllt3800MEf89xMcKvc29273vZxSey8zczHdTTUXCcfbwzcaj6L96nYo0xMuTeB7eOS2D4unq03GPlvSvjojLozm4e2qOSpCo/28m8/kS2jLExuDNbwj1Sae4WDsdkqbetH8ePtid5yj7GyqLNOT4+Hu5fZTmGKuATufcRbF9vHqTzpKb+gtfI9vGO2MOd+C+9FaTTL9vCqambKvXF8m+zB4tLYF3Ayjo038OrAGFaNSSop9y+tdeLQeX9LaeAJbrYu05ihqyXt6K1vA48adZxmE5PvTy4ZcVJ35jF+j4G8RCPTb/TWyY6xcSwboDNC0Xh5uY1DYRc2lTcrx4OlTSw7R+hcq+t8d0wjr4mVTfcojNV01mcW+4KWqvSr0rreeZPOjbrOriZWX92XvkJH1Spfh6eXbjJwc6sofhoZ7ytrIltHeNsn/nhxUFDr/s3BffkqMckmvr+1dP/ZfqW3PkNZXG4+s5n48K5EZtb1YHG5eSvfxEs3J7GkuQdws/2YPwC1MnB0im+bFt6LqfAKC4sLFnhUHugdy4axSewcY+F/MRoWVzFL90W6a1R5VoeH6R6Vh/vHsHFMMjvHWEuOP2+vD26fqtShmlXEd3kqu2pHsdzX9jvGxvHHtUbejg/aLAB7tmusVhSeucK7P2wfl8TO0RbmtIU6AZFZSrwCaBQU+gLx/dnc9042/97o/b+ieShwgTtRJR5QT+Tw2haFPNXAP66KY8NY/7HQW24118Un68LbYN7OYv7pUXmiX0xJnb8Xp2FxuVm+z9+WDpbO15iMwrXpMSXfc+eYWH5pXXon50ImQbMQ4oxymo28OSyRZ/uaiTPr6KqZ9DYQBxQ4vAdeNc/B/FyVOs2tPHmJdz0ALSmGfsMM/EXTefZI4AnOSEqUTpTLzbI9/oO3AbVBHNeOCr2tqbN3i/eE9UC/RMZ2829fwZBipfN1iVwTcCu/apys362RaTbx0g1WmiV6T2ya2ULdPvE8UctD0nH3GZwiTuGxXrG0MFlpnuw9UT7QI5ZO0Ubio3RAw+H2r5vALaMTGJZmJs7sfUczW2jSEYboOsuLA0+0Lo7aFNxGI8P7WXz1Z0BtEM+tLbxB1O680tPLwV06qxUDr1+bSHpd73fXVSOp6ck82kojzu5hQ5kjaRVzmk08OcCMVs9AugaaauRvV0RjsirE6WDSvO1f9X5VVVWpw9Mrum8yLwyJpmmqP+BRUOvFc3VtD+Ahz+nvg3YW7/bW2Ts3xdMm2d8OBtQ4iPL9L9QV7a30i1No6rt136VtNDfWhniL9//O6u5CgKYqPDE4gce6mrCooJmtDG7jLe+pbBff8eeNEcmMa2/GbNbRzBbSr/W2/cKj/osrr8rXIRCn0EiBxrlulh7xtrOuGolvGsdt18eEpaIkWQF0ft7jIMs3Yq/FWGkxKIk725ReiMWkQBw6Rwq869j3eliuKPzjoLefKhkae1R4INZ7MXFso8Z0ReHe3vGMbGHEolKyb467EgbqOi/sD5/bvcBqYtodSdzXwVxS572bAejk+76nesLO3DyFrPrR/GuAmZSSPm6iliH84upCVP2jlBBCVEN+lEr3BsFBo9YuhVXjknivr+/kdMTDdFXhxF4bbd/NCXq1/kjnDVUhJtsTcIKL4ZprVW7TNN5eXEjr93P5+7QCfjtYEhEGKGJvnoqmGrm8fU0Hrw525KlYXMXc+F52SNkLGJlpQNXKu9Va04wMbBf4fxNDupT9nbUj+cz8OpvbA8reeprC9LAg30C8QcfodjN9pROXSwE86PtzmbTHABhISfSfRIs4mOld/vhXmWHt2X+nAfCw72T16+RgPROdTaUn7T2NzAyIjhCgVrlfVV3l6/D0UrQi9izK4fkPs+kR8D2vOho6UlvM/nyF4/EGWgbUYfkUBqb5Iibf/2/uUFZ4XXVZsSZuaBncH8yxQf+ttvwolR51gr+nZjbR2qqXXFz5Vb4OQTMnMrYfXF5czPi5eXT9IJfn5xSy5XjkOk0aaOWTeI3V+xz0+Sibm77JZ/oaFwW+ALpEisIQXWdvpgNwsvmIwoP1VNofKmadrkCeznYUmqd667+oUAeMdGsRvj9pTQ101yDR5iE/pI8fr2WiY8jzFtF9vXcISu6mnITpisKNdf356hef8FoVQoizzRM5l7I8Wr0k/jE2lgWXqTyTqLEmw829swro9EkhG4rCD3XFRk7Lgd8ZIVY7HyhbS3Ms/TmNZbPQs7/CtbrG16ttdPwom7bv5pM2R2eCW2Fgx2guN/orQscROW4486rRr6qianV4OtlZ/oW9JL+2Mt/ZqSpYwh7Mu1jouMJGsKteh3qHZCb9KZp5XRTujdVYvL+YG6fnRvwFRF2Noc+dyawfZuCtJgqpeW6eWWmj2yc5vLOtdD2tjoEWGmy2a6iuIlbnmknvq/InrZjVewzgVNiiKDStFXzgMUYH/bdGJRjDj6cXi4v3mwshzl214UZdp0272LAcUv8r/3Zr2C1PXTVTv1MCd9+azLwHYviltY7ZUczDSwJvRppJidaxuNxsPFT5Q+Du3JAbmnsczLeHBkYmmsbr2KPMzHrIn3sc+opnaGLYGfosc7N+k85qBa5oV5qruD0gnzd0/T3rdWYZVK5L0mniq8ZGZgNP9Ivlvb6BI3FWmidogJH3H/Dntoa/Hm59Bp64r2a/qpyq1uHpo+538EmBgtNs5JMR/hxl7+un+qF3X1TizFDHrnEiaDRcJ3urzrwzPEJ+NqgHnfzgUsiNMRDva/uq1WEpzRxN40sTeej2ZJaMiWJKbQ1btpN3Vkdqf4WoRvEMGZrIhD8nseEqnZt0jf8uKwxI4fIeU5bbPOg7NN5INNCxVjS9Uz18sacIe4YHMFDf92MxRrMCuFm5Nfzvqfs9rFbBlmSsXh+36KTrsL0weF9VNBu/Ha78sfR8dnF8SyHEeUWrY6FvlM627TbeXOki217+8K16Iod3vsnnt4PFvlQB0FUDDVtFyiU1kt5YJQ6dv/+Yy9RtrpLPqDY7237IDZ7hwneimLrbzvYCBUVzk7Uhm7E/w4yw0UQrXRtqWB0unp1pZ3/muRYcl6UYm0MBFJqnGEkxg6K5yd9fwIxfiBA42Vi4XyWpbhR/HxrH9Lu9QcUvY+KDpuvza95EJQ43j0/NY8tR7ayNxle1X5WIUonTocUhJ1NKcuZDVbUOS6knl/HqyxO5/7XvmZZVAzNs2HU2Kgr5UQp1U72nedVmZ8+iHN4qeUDPL5oOKd4+++YCJ/maguqys+2HLAZvVSs1wno+iXHpHCvwB70eHPvz+OhnhQWKyitp0aV3n6pUh6BuzeKxWYVB/Vs3mmjZAtL10uc1vOwsm5bLN2sC+6BCdF0Lfa06FhcBOcfR1I/TqVXgYd4enU6NLNTCSJcWCocOOplRoGKPUqnli+Yat1BI12Hi8jym7HH7yuLBuSuH13+GBYrK221jSrZeJU0NDFZ0tm0vYvI+DdDRjuXz+WcOHqxgtpScpVN45MVJjJm0NmzU/XxS/rcUQoizIoarL4XLdI3319i4dGJeWA7qf7YFBmc6x7Lc3Dur0JcqkONLF1CYrqi80To4EcN0iYU34r1Phj+3wJ9ekEPrSU6GH4LAAWS9pZlRRp1a+cXc8Hk2bd4voM8yhV8VIzdHmHM5uZ+ZF0waGw47uGpKfli5DbNDH8GpPMeCjIBtabxqUGh1wF7yXsoX1Z0yLZqujbwnwQ+Xeuu6zfsF9JzjZnxepFvTKqlmnbyjRfT+opDuAe3T+v0c7p1SwB85peXQukbzRryGLdvNjd/l0en94Dqpfrmrqqr9yktLiOKKRA1V8/D8T8FtWrp+VeuwlGPfYfZ6FFRXDt/PXUtO6ApV1dLIn3199toPfe0yycm1W2BuWMBipF0nhe46zN9qo+f72bT+yMnwQwaaNDMwNiTPt6rUTYG5/U4etKnUynfR913/+4URpoQ8fayOYm753N+G+XSeo/GaS6FV42geTgv4rlWqQ2/qz48Hi4P6d5v3C+i2QmWTwcDQtoE54OAq9PCPlcF9sPUkF4/ZVFo0M/nmWwZQqJukk1jo4uEjBm5o6csdb2XgAYeLfx5WOWFVqeNbX2sbz38b+Ptqga8s+XSaBxPcCu2bRXNXy7JHysujmRMY2tS77f83N4+27+bSboaHFxwGnmpYXjiZz47dBbgUMBzZyAdri0JXOG+U9y2FEOKs0dulMOlmAy8n6XSr4Cd3tToJPH25yl8TS1MFNFXhihQjX4xK4OHWwevragyX3R7HvC46I006cb73G1gNPNcvhptSS0eFdDWOkdcb+Vu8RhygqdCrvpkf7kjgvrjwUUfNnMDI0VZmtICrK/1g1dkXPSCBOW1hgO8peE1VuKGRiWmjTLwQ9mR8HFf3hGaA1ajQO+B7qhr8lunmjsn5rCj2n2KsEev7bKhKvyoVRc8R0XzUAHqH1UWpqtVhKUuPAYxI8val6KNZ7DrFIFIzJzDmaiN/TdSp63uvgdXA871iWdE5vBxa62Q+HehtG/D+yM8T/WKZdo1OhOvCC0qnWAPP9Ytl1nXBP0df1TrU02NZ2BPujKFkfatR4YZG3mNF8Iw8Vq641sTbIf3JX5Y51wSXJTneux85zUY6NvJuR0uI5opE7yj1JclGSme1M9F0eDyLOkc6tsUyLWTbVaPQ6Op45jYv3XfaJxv56pYE7msefiwsFc+l17aise+r7j9xMmT5+UN+EfA8LLuU+8yScgsRTD2Rw/jpOn80sDLjuujgXxhz2ZnzdRGP2dQL/tfBalLuws8Z/5uGo05HXhnTrWTkUNSUsn/BU5wJx5n3zhxm5BlIGHgzr/SuZorIWSYjzUIIIarEvsXNDF1BdesU2ktv9aquYvIOuFjv9Ob2hj7RL8IpmovcPUv5ao13pK5hlzYSMIsLiurKYd+S5fyca0BXk+jf4Wzeazo1MtJ8HpZdyn1mSbnF6bD/u4yI871GkhFvPqdGx9SdWdw2T2V1OVkEXVvHMHFw1eZzdSzIoPO2ytUJmPj6odAfrjm/qBmLePGD/Rz01aPStAt/v60zjSqdNnKxyuPTtzy8aiinAwYY2DGe9/o6ZaT5LMhZ/DVPL3P5/mehwVVX8ly35JC1zh8y0iyEEKJKtNbJfHy9Ny84MCfTn0f+5jXxfF3FgPliZkpNofew4bx5eycJmMUFRzMaqN2oJXc8OOq8DpiRkebzs+xS7jNLyi2EEEIIGWkWQgghhBCiAhI0CyGEEEIIUQEJmoUQQgghhKiA5DSfh2WXcp9ZUu6a4V67MPQtIS5axq6Xh74lhDjHyUizEEIIIYQQFZCgWQghhBBCiApI0CyEEEIIIUQFJGgWQgghhBCiAhI0CyGEEEIIUQEJmoUQQgQp2JfGoBWduWNnQ5wooYvPWZ4TLfnTik5ctqE5x86LciucmJvE6BnxOEIXCSHOORI0CyHOCOPRlrRf0Zm3M0yhiyLyrx/4quxna5Ja0JhnfutE/PZGoYtOq12bOtB+RQd+KDKELjrNEliZZeIEsD4rlp3n0Vli78loVqKQa49hVVHNF1xxpbJ4Szr3rewU0C9PpY2MFJ5Q+OM/0dw8Ny50oRDiHFPzRxUhhBDnsTx6pRRTB+icUkhrLXT5uat57SJ6oZNotdEjumYLruipzN5Qn3H5Jn7Xa2oUu5gW9xQwbVQx816K5plN1tAVhBDnEAmahRDnJHf93WzuvZ7NvdezvUlh6GJxGsU128avvdfzZevDWDil3786owx1dvNx7w0s67SXejVcbsOxRF50q7Sw5jO7+5aSvrm59yaGRXtCV6+CYtLH2fiwHrz8DyuL3HJaFuJcJXunEEIIUYEcu4kCdEY0PkhTU3Ho4lOiG5yMfsbBwCMGnvwhJnSxEOIcIUGzEOIMM1CU2YR3V3Wi94rOpK/sxN93NCL7FB/cUvRY9u1vzfO/l+ab3rY2jdk5CaGr+hgpymzMh+s6cs1K7/qX/9GeL06khK4YkedYS+78rTNpf6SzxGYOXVwlamE9ZqxL584V3rKnr+zMo7bIebKh3zN9ZWfGbG3BLmdgvnccS9d0pP2KDkwvNAa876Xodfh2RSfS/mjNDsVf73X4eHlgrm7nSuRxV6UOjeQfac6/Vnvbvf2Kzty6oS1ri06t7iCBX1Z3DCp383UtyS75XuHrxm9vhFqUys+b0kvKfdWaNOYXWEI/EEIjKar8EWzFk8Cm7Wk86Mt7Tl/ZmdGV+J56FycPttFY8340c2W0WYhzkuyZQogz6siRlgzdlcT7boUCQNEVfshO4f5ddUNXrTRFT2Te2uZcd8zKdK00WNrotDB+ezP+eqBW0PpgJHN3KwbuSuYth8pBXxyU4THyyt76FT7Y5TnWktH7YlltdPJpx130i3GFrlJpnmMtuXdTbf7PYWKd78JB0SkpU7AEVq5vFvQ9FR1W5MVxw7o2/GL3l7uAPnWKiMPAnIzUoC0AGDKsfItC71r5tNEj/qFKqEodWti/rTVXHozn62JvuwNsskdx1/o0Psg6s6OrDfIT+PPGBvyt0FRS7sMuCw9va8Zm3X9aDA7Ge2dYAAN/X9+hzAsLxVWHj1Y15dYcC0t8ec+KDqt93/PtjLIu4ACcDB7uxmhXWL7tzD/wKoSomATNQogzanaRkVqxBXzXeQebe29mfZschqGzPTOZ5SUBS9Xk76nHYy4Vc7TNt931bOm5g4UN7HTR4edjtVnsKg3iDBmNeOykhXzFzaNNjrOy5wY2997Muk5H+CzBRXQ5caTnWEse2B/DdrODqV130Duq+gGzotdh+v4YVijw5yZHWNtzg6/su/gsJvxBNsf+evzFYaBdQh5zunjzarf03MPP9ex01Yz8ZX+DkiniDA3yeQyd5Vlx7AsadTWy7UQs2/Ewql5GwPsn+FMf79/f3PsYf9HKqYQq1qEhoz7P5ZhxRtv5toOvfXptY0HzfIYB/9lfn6MRR4YrI4/B3Tf6yr2P/5nC6y2UwWNkse6t8zW9NrCl5yFeMWkYPFEszy7/gqlsFnbuqMUbukK7hFx+8eU9b+m5l9kpLuJQeG9fnZC2CBbf0cUNHpi8q/xRaSHE2VG9M5QQQlRTr5RMPuuwl1bRRYAbY/IBHkr2ACY2VytgSWFJlhldKead9nt82wXdUEStxnt5JcWFoptYkxXtW9/I9uOxrFN0xjY7xJj6x4k16IAbkzWDbu12MNga+cEuz8lmPLI/hvWWIr7qtJP2xooDtPIYjsXxPxQuqXOCh+pnYDZ4I03dYCNeCQ1aY9mYZSbXYOeF9P00ifLm1eqGAho0PcBjVg3yrSVTxOlKFpfEezAVW1kSUK+KnsLiApXsuAL6R1W3/FWrwz0ZMaxTPLzcdg/tYn3tozipXWcvDyV7sLii2Hwapogri664ear1Ph6qn4FF0dENWQxK9V78uEqqJDAYX8+KWk7Aw786bwp4CHA9+W0PAaB4Uvgl34DTbOOVdgeo58t71g35NG19gHejNQyeaNbmldPHUzXS3Tr7T4an1Aghzr4zd5QSQgigU9KJsBkZGsc4IShgqQojx9xQGG2ngyk00HTTOM4bDB12Rfnei2G/U0FXnPSvlx+0dnlq2xN4ck88CwxOJnXcTetKjGhWxPtwGVwSnxW6KIIYtjsUDB4rN/4WnHvcfkUadxWpKLqJY3b/Yd1N8waF9NdhcmZpeornSDyfKAp/S80Ma4fKq0odxnPIrgIG/rouOLWh/YrODMk2Agb22c7c6ajI4mBoij9JxCvW7A76f1UpdiNHFGgZX0izsHq10Sq2GFA46ix7pFmL06kb+XpNCHEOOHNHKSGEKIOrmmkZgYoNOubQWKUcmqpRlZvgJ62F/DnBQ6IniokH6tTgL+XpRKmVK3hVE0E8iVmMsujsz4nzPfBnYWt2NLkGO0Pr2UJXr7LK1aFyUf3aXVI5A8kVUV0KOae+KwghThPZPYUQZ5mFrTkWQKe+pXLBYzA38SokFUazKexHJ4wcLPCGdc2s/rmeHaQYweCxsDm34pCvlIdW7fbxeaybn0/W4ekD4Q/YVZXJqAMKWQ7/KLiX4qrD4rCRVwdNLDrFJhuzLvXnHoe+NjEkKnCo0vtAYKInmt+zLCieFJYUnOoDgFSxDvNoatGBYj7oVZruEPp6IKVmp3E744wasTqsyomNkJ8dw65CE+ChSWw5dyiOqKw1KfRveGqj3kKI0yP0qCyEEKeVzRlPocebs6l44tm/qwWP2lTsUTYuT6jOvek8Lon3oOgW/rKxBbuKvLnLiieOfXta8lSWGY/BzpDa3hQQcNIu0UUcBp7d3pLvMlJxeXwzHbiS2Lw1cBaKUDZatz/M/8wa8442iDArR9XEJDror+t8dKgRK4rM3incMprw+tq6vBF2AZBH1/hiTMUxPL+lKQfslfv1OO8DgfDvk7XwHI3jPVULeQCwOqpWhy2SHMRh4qmNLdmaH4cz7Lud/7ToPC6L0rG4Yhi/pQnHir0zYCieRDZvbcK4IpUCq43LrWUHzc4dJmYaoHeTqt5TEEKcCYrHfuhUhhuYMf930po1JK1Fg9BF57zztexS7jNLyl1DZh+i7YHY0HfB92DWvzvsYpgvt9k73VcTHisu+7p+SP3DvN4kE/xTfUUMNEFXdB5psZ8HauWVvKfoiSxZ25ixrkjb9/CvzltLfuVNLWjM05uSeDs5u/ShL1cqszfV5ymXyrUNjvBK4+oGoXH8saYZ94aUQ1fcPB6r898CNagsiqcOU1bX5Z8B0+oFOpiUVVLGQFk707gsFx6zmHjTlMvadofC8pkLdqf5plWLzB5VyOque0j2jVBXpQ4hgaVrmpSxbvi2q8J4tGWZ/crLwTd9dtBB00v61QMGe9jf82/ngZZbeLhW+Ki3t36MId8rmJrfhPFbEvkhQuqOrrh5o8MuBvv6uLHr5SFrmFg4PpErduus+DaLnpVM2RFCnDmRj2BCCFHDtMRc3qlVxAijRh3fe7GqzvWJ+czssiMgYK463XyCMV2P8G58MZf4Zp3QFehjtfFFp21BAbN3WS79uu5lVj07N6o6cb73G5qLea7Z0TKDIj/dnMnQDif4i6Iz50h9Xj5c3RHnAi7pfIT3YotprHjL3DuhgJlddnBThJktdMMJRnbfzzdJToZUIaiq1aCQkW4zb9kVnqp7Mixgro6q1WFexHUvNFr8AV7ueJJ/RhXTxVfHulLax/0BcyTKumj+tVil850uCZiFOEfJSPN5WHYp95kl5a4Z7rULQ98S4qIVONKseCxMGpnAvWaNlZ9l06MGZmYRQtQ8GWkWQgghzhoTW96N4f5j8ORzhRIwC3EOk6BZCCFqgFrQmGfC5k8u+/V2hvxUcqiC3Wlh9VT2qy2b1PDc4fOLiUNTYrlpsokhzxTx77SLaXI+Ic4/EjQLIYQQZ4UbSxR0+3sRs64J/rEVIcS5R3Kaz8OyS7nPLCl3zZCcZiFKhc+eIYQ418lIsxBCCCGEEBWQoFkIIYQQQogKnHJ6hhBCCCGEEBc6GWkWQgghhBCiAhI0CyGEEEIIUQEJmoUQQgghhKiABM1CCCGEEEJU4P8DSZlUQSpBVQwAAAAASUVORK5CYII=;" vertex="1" parent="1">
          <mxGeometry x="420" y="-10" width="347" height="88.56" as="geometry" />
        </mxCell>
        <mxCell id="PnWIzYzLt3JOAJieJ4XY-32" value="" style="edgeStyle=orthogonalEdgeStyle;rounded=0;orthogonalLoop=1;jettySize=auto;html=1;" edge="1" parent="1" source="PnWIzYzLt3JOAJieJ4XY-29" target="PnWIzYzLt3JOAJieJ4XY-31">
          <mxGeometry relative="1" as="geometry" />
        </mxCell>
        <mxCell id="PnWIzYzLt3JOAJieJ4XY-29" value="开始rescue(备份原始guest xml)" style="rounded=1;whiteSpace=wrap;html=1;" vertex="1" parent="1">
          <mxGeometry x="294" y="100" width="120" height="60" as="geometry" />
        </mxCell>
        <mxCell id="PnWIzYzLt3JOAJieJ4XY-34" value="" style="edgeStyle=orthogonalEdgeStyle;rounded=0;orthogonalLoop=1;jettySize=auto;html=1;" edge="1" parent="1" source="PnWIzYzLt3JOAJieJ4XY-31" target="PnWIzYzLt3JOAJieJ4XY-33">
          <mxGeometry relative="1" as="geometry" />
        </mxCell>
        <mxCell id="PnWIzYzLt3JOAJieJ4XY-36" value="" style="edgeStyle=orthogonalEdgeStyle;rounded=0;orthogonalLoop=1;jettySize=auto;html=1;" edge="1" parent="1" source="PnWIzYzLt3JOAJieJ4XY-31" target="PnWIzYzLt3JOAJieJ4XY-35">
          <mxGeometry relative="1" as="geometry" />
        </mxCell>
        <mxCell id="PnWIzYzLt3JOAJieJ4XY-31" value="判断image类型" style="rounded=1;whiteSpace=wrap;html=1;" vertex="1" parent="1">
          <mxGeometry x="294" y="190" width="120" height="60" as="geometry" />
        </mxCell>
        <mxCell id="PnWIzYzLt3JOAJieJ4XY-38" value="" style="edgeStyle=orthogonalEdgeStyle;rounded=0;orthogonalLoop=1;jettySize=auto;html=1;" edge="1" parent="1" source="PnWIzYzLt3JOAJieJ4XY-33" target="PnWIzYzLt3JOAJieJ4XY-37">
          <mxGeometry relative="1" as="geometry" />
        </mxCell>
        <mxCell id="PnWIzYzLt3JOAJieJ4XY-33" value="稳定模式（image包含&lt;span style=&quot;font-family: Consolas, &amp;quot;Courier New&amp;quot;, monospace; white-space: pre; color: rgb(42, 161, 152);&quot;&gt;hw_rescue_device&lt;/span&gt;&lt;div&gt;&lt;span style=&quot;font-family: Consolas, &amp;quot;Courier New&amp;quot;, monospace; white-space: pre; color: rgb(42, 161, 152);&quot;&gt;hw_rescue_bus&lt;/span&gt;&lt;/div&gt;" style="whiteSpace=wrap;html=1;rounded=1;fontSize=13;" vertex="1" parent="1">
          <mxGeometry x="494" y="190" width="156" height="60" as="geometry" />
        </mxCell>
        <mxCell id="PnWIzYzLt3JOAJieJ4XY-39" style="edgeStyle=orthogonalEdgeStyle;rounded=0;orthogonalLoop=1;jettySize=auto;html=1;entryX=0.383;entryY=0.043;entryDx=0;entryDy=0;entryPerimeter=0;" edge="1" parent="1" source="PnWIzYzLt3JOAJieJ4XY-35" target="PnWIzYzLt3JOAJieJ4XY-37">
          <mxGeometry relative="1" as="geometry">
            <mxPoint x="360" y="359.9999999999998" as="targetPoint" />
          </mxGeometry>
        </mxCell>
        <mxCell id="PnWIzYzLt3JOAJieJ4XY-35" value="传统模式" style="rounded=1;whiteSpace=wrap;html=1;" vertex="1" parent="1">
          <mxGeometry x="294" y="280" width="120" height="60" as="geometry" />
        </mxCell>
        <mxCell id="PnWIzYzLt3JOAJieJ4XY-41" value="" style="edgeStyle=orthogonalEdgeStyle;rounded=0;orthogonalLoop=1;jettySize=auto;html=1;" edge="1" parent="1" source="PnWIzYzLt3JOAJieJ4XY-37" target="PnWIzYzLt3JOAJieJ4XY-40">
          <mxGeometry relative="1" as="geometry" />
        </mxCell>
        <mxCell id="PnWIzYzLt3JOAJieJ4XY-37" value="&lt;div&gt;&lt;span style=&quot;color: rgb(42, 161, 152);&quot;&gt;生成disk_info&lt;/span&gt;&lt;/div&gt;" style="whiteSpace=wrap;html=1;rounded=1;fontSize=13;" vertex="1" parent="1">
          <mxGeometry x="380" y="410" width="156" height="60" as="geometry" />
        </mxCell>
        <mxCell id="PnWIzYzLt3JOAJieJ4XY-43" value="" style="edgeStyle=orthogonalEdgeStyle;rounded=0;orthogonalLoop=1;jettySize=auto;html=1;" edge="1" parent="1" source="PnWIzYzLt3JOAJieJ4XY-40" target="PnWIzYzLt3JOAJieJ4XY-42">
          <mxGeometry relative="1" as="geometry" />
        </mxCell>
        <mxCell id="PnWIzYzLt3JOAJieJ4XY-40" value="&lt;font color=&quot;#2aa198&quot;&gt;镜像创建&lt;/font&gt;" style="whiteSpace=wrap;html=1;rounded=1;fontSize=13;" vertex="1" parent="1">
          <mxGeometry x="380" y="500" width="156" height="60" as="geometry" />
        </mxCell>
        <mxCell id="PnWIzYzLt3JOAJieJ4XY-42" value="&lt;font color=&quot;#2aa198&quot;&gt;重建实例&lt;/font&gt;" style="whiteSpace=wrap;html=1;rounded=1;fontSize=13;" vertex="1" parent="1">
          <mxGeometry x="380" y="600" width="156" height="60" as="geometry" />
        </mxCell>
      </root>
    </mxGraphModel>
  </diagram>
</mxfile>
